<svg width="25" height="25" viewBox="0 0 25 25" fill="none" xmlns="http://www.w3.org/2000/svg">
<path d="M23.2259 12.277C23.2259 14.7169 23.2259 17.1568 23.2259 19.5966C23.2222 21.7995 21.7999 23.2109 19.6117 23.2145C16.9371 23.2145 14.2687 23.2145 11.6064 23.2145C9.39988 23.2145 7.99941 21.7995 7.99212 19.5857C7.99212 18.1269 7.99212 16.679 7.99212 15.2421C7.99212 14.7935 7.93012 14.3813 7.37941 14.385C6.82871 14.3886 6.76671 14.8008 6.76671 15.2457C6.76671 16.7957 6.76671 18.3493 6.76671 19.8993C6.77807 21.0953 7.25745 22.2392 8.10211 23.0859C8.94678 23.9326 10.0895 24.4147 11.2854 24.429C14.1544 24.4582 17.0259 24.4582 19.8998 24.429C20.4989 24.4261 21.0916 24.3053 21.6441 24.0733C22.1965 23.8414 22.6979 23.5029 23.1195 23.0772C23.5412 22.6515 23.8748 22.1469 24.1015 21.5923C24.3281 21.0377 24.4432 20.4438 24.4404 19.8446C24.4574 14.7606 24.4574 9.67664 24.4404 4.59263C24.4408 3.99352 24.3231 3.40019 24.094 2.84664C23.8648 2.29308 23.5287 1.79016 23.1049 1.36669C22.6811 0.943226 22.1779 0.607519 21.6242 0.378802C21.0704 0.150084 20.477 0.0328478 19.8779 0.0338073C17.004 0.00827792 14.1338 0.0338073 11.2635 0.0338073C10.8076 0.0338073 10.3189 0.0338075 10.3153 0.631925C10.3153 1.28475 10.8368 1.25922 11.3109 1.25922H19.5424C21.8509 1.25922 23.2222 2.6451 23.2259 4.96828C23.2283 7.40209 23.2283 9.83832 23.2259 12.277Z" fill="#2E2E2E"/>
<path d="M8.02965 8.3051C10.2981 8.18474 12.2055 8.69533 13.544 10.5553C13.9413 11.1178 14.3066 11.7023 14.6381 12.3059C14.7404 12.5428 14.9307 12.7306 15.1688 12.83C15.4069 12.9293 15.6743 12.9323 15.9146 12.8384C16.4252 12.6706 16.5674 12.2622 16.5346 11.7443C16.21 6.84627 13.5185 4.15109 8.63506 3.83745C8.48918 3.83745 8.3433 3.81192 8.11353 3.79004C8.11353 2.87098 8.14636 1.98839 8.11353 1.1058C8.11632 0.940482 8.08542 0.77633 8.02272 0.623341C7.96002 0.470351 7.86683 0.331728 7.74883 0.215915C7.58819 0.181331 7.42183 0.183372 7.26209 0.221885C7.10236 0.260399 6.95334 0.334397 6.82612 0.438386C4.65977 2.07592 2.54812 3.74262 0.432825 5.40933C-0.136116 5.85427 -0.147057 6.24815 0.432825 6.70039C2.55542 8.38533 4.69381 10.0581 6.848 11.7187C6.9644 11.8045 7.09866 11.8628 7.24076 11.8893C7.38286 11.9158 7.52911 11.9099 7.66859 11.8719C7.77813 11.7836 7.8674 11.6728 7.93033 11.5469C7.99325 11.4211 8.02837 11.2831 8.0333 11.1425C8.05518 10.1943 8.02965 9.26063 8.02965 8.3051ZM6.81153 10.0411L1.64 6.02933L6.81153 1.93003V3.71709C6.81153 4.89145 6.84071 4.81121 7.97859 4.98992C9.33094 5.13006 10.6639 5.41745 11.9539 5.84698C13.5987 6.47792 14.8715 8.57498 14.7366 10.0375C13.0261 7.48451 10.568 6.72957 7.69047 6.94839C7.05589 6.9958 6.78236 7.27298 6.80424 7.90757C6.82612 8.54216 6.81153 9.20227 6.81153 10.0229V10.0411Z" fill="#2E2E2E"/>
</svg>
