<svg width="16" height="17" viewBox="0 0 16 17" fill="none" xmlns="http://www.w3.org/2000/svg">
<path d="M5.66792 15.1218C4.66792 15.1218 3.68542 15.1218 2.71042 15.1218C1.58542 15.1218 0.930423 14.4909 0.920423 13.4218C0.920423 13.1576 0.935423 12.8909 0.920423 12.6266C0.883403 12.3533 0.919185 12.0754 1.02447 11.8187C1.12976 11.562 1.30117 11.3346 1.52292 11.1576C2.42792 10.4623 2.68542 9.59565 2.62542 8.50041C2.56292 7.35279 2.72042 6.19327 2.81292 5.04089C2.84002 4.77529 2.93908 4.52096 3.10042 4.30279C3.20042 4.16946 3.45542 4.14327 3.64042 4.0647C3.70792 4.23374 3.89042 4.44089 3.82792 4.56232C3.10792 6.22898 3.57792 7.97422 3.40542 9.71232H13.3054C13.327 9.59343 13.3403 9.47333 13.3454 9.35279C13.3229 8.16231 13.4054 6.95517 13.2504 5.78136C12.8404 2.68612 9.25042 0.881363 6.29542 2.24565C6.21792 2.28136 6.13542 2.36232 6.06542 2.35279C5.8528 2.31238 5.64252 2.26152 5.43542 2.20041C5.51792 2.00993 5.55292 1.69565 5.68542 1.64565C6.36719 1.35696 7.08327 1.14829 7.81792 1.02422C10.9979 0.667078 13.9604 3.09327 14.0979 6.14327C14.1429 7.15279 14.1404 8.1647 14.1129 9.1766C14.1129 9.62184 14.1829 9.98851 14.5579 10.2695C14.5839 10.2915 14.6082 10.3154 14.6304 10.3409C16.2079 12.0076 15.8504 11.3528 15.8804 13.5504C15.8899 13.7588 15.8539 13.9668 15.7747 14.1612C15.6955 14.3557 15.5747 14.5323 15.4201 14.68C15.2655 14.8277 15.0804 14.9433 14.8764 15.0193C14.6725 15.0954 14.4542 15.1303 14.2354 15.1218C13.0504 15.1361 11.8679 15.1218 10.6829 15.1385C10.5933 15.1467 10.5068 15.1744 10.4301 15.2194C10.3534 15.2644 10.2885 15.3255 10.2404 15.398C9.80042 16.4099 8.99042 16.9695 7.93042 16.9433C6.91292 16.9195 6.11542 16.3242 5.74292 15.3123C5.71542 15.2599 5.70042 15.2147 5.66792 15.1218ZM8.43292 14.2385H14.1829C14.8254 14.2385 15.1079 13.9861 15.1679 13.3885C15.2479 12.5718 15.2029 11.8004 14.4329 11.2456C14.2554 11.1171 14.1454 10.9076 13.9679 10.7695C13.8175 10.6472 13.632 10.5709 13.4354 10.5504C10.1454 10.5377 6.85626 10.5377 3.56792 10.5504C3.4166 10.5368 3.26513 10.5748 3.14042 10.6576C2.40792 11.3933 1.55042 12.048 1.77792 13.2766C1.90542 13.9695 2.06792 14.229 2.80292 14.229L8.43292 14.2385ZM9.39542 15.1361H6.62542C6.92042 15.8123 7.47292 16.1599 8.12542 16.1147C8.41868 16.0996 8.69943 15.9966 8.92753 15.8205C9.15563 15.6443 9.3194 15.4039 9.39542 15.1337V15.1361Z" fill="#2E2E2E"/>
</svg>
