<svg width="14" height="12" viewBox="0 0 14 12" fill="none"
    xmlns="http://www.w3.org/2000/svg">
    <path d="M0 2.34359C0.0366667 2.19859 0.0666667 2.05193 0.108333 1.90693C0.209378 1.54587 0.418694 1.22447 0.708064 0.986058C0.997435 0.747648 1.35294 0.603691 1.72667 0.573594C1.83167 0.563594 1.935 0.558594 2.04 0.558594C5.33667 0.558594 8.63334 0.558594 11.93 0.558594C12.9717 0.558594 13.7083 1.13193 13.895 2.07193C13.922 2.23211 13.9331 2.39456 13.9283 2.55693C13.9283 4.92582 13.9283 7.29359 13.9283 9.66026C13.9283 10.9336 13.1683 11.6986 11.8933 11.7003C8.63111 11.7003 5.36945 11.7003 2.10833 11.7003C0.92 11.7103 0.296667 11.2003 0.0416667 10.0303C0.0316319 9.99704 0.0176428 9.96515 0 9.93526L0 2.34359ZM6.92167 10.9803C8.58167 10.9803 10.2411 10.9803 11.9 10.9803C12.72 10.9803 13.1917 10.5319 13.1933 9.72359C13.2 7.32137 13.2 4.91971 13.1933 2.51859C13.1933 1.72359 12.7317 1.26859 11.9333 1.26693C8.61556 1.26693 5.29722 1.26693 1.97833 1.26693C1.145 1.26693 0.696667 1.74026 0.696667 2.57359C0.696667 4.94137 0.696667 7.3086 0.696667 9.67526C0.696667 10.5269 1.155 10.9786 2.01333 10.9803C3.65 10.9825 5.28611 10.9825 6.92167 10.9803Z" fill="#2E2E2E" stroke="#2E2E2E" stroke-width="0.3"/>
    <path d="M7.02083 7.31696C6.71158 7.3273 6.4041 7.26622 6.12228 7.13846C5.84045 7.0107 5.59187 6.8197 5.39583 6.5803C4.29917 5.28863 3.22917 3.9803 2.13583 2.6803C1.96917 2.4903 1.94083 2.29696 2.13583 2.13363C2.33083 1.9703 2.51917 2.06196 2.6725 2.24696C3.71917 3.50363 4.7675 4.75974 5.8175 6.0153C6.54583 6.8903 7.38083 6.8853 8.1125 6.00363C9.09917 4.81696 10.0875 3.63085 11.0775 2.4453C11.1345 2.37226 11.1951 2.30217 11.2592 2.2353C11.4008 2.08696 11.5675 2.00696 11.7475 2.16196C11.7884 2.19051 11.8223 2.22786 11.8468 2.27126C11.8713 2.31467 11.8858 2.36301 11.8892 2.41275C11.8925 2.46248 11.8847 2.51233 11.8662 2.55863C11.8478 2.60494 11.8191 2.64651 11.7825 2.6803C11.5575 2.94696 11.3358 3.2153 11.1158 3.48363C10.2542 4.51696 9.3875 5.54696 8.5325 6.58696C8.3526 6.81555 8.12294 7.0001 7.861 7.1266C7.59906 7.25309 7.31172 7.3182 7.02083 7.31696Z" fill="#2E2E2E" stroke="#2E2E2E" stroke-width="0.3"/>
    <path d="M9.92554 6.45703C10.0413 6.52242 10.1497 6.60009 10.2489 6.6887C11.0289 7.60536 11.8005 8.52203 12.5822 9.44703C12.6219 9.48192 12.6531 9.52542 12.6734 9.5742C12.6937 9.62299 12.7026 9.67578 12.6994 9.72852C12.6962 9.78127 12.6809 9.83259 12.6548 9.87855C12.6288 9.92451 12.5925 9.96389 12.5489 9.9937C12.3472 10.1604 12.1872 10.052 12.0489 9.88536C11.2739 8.9737 10.4989 8.06703 9.74554 7.14536C9.65863 7.01807 9.62183 6.86315 9.6422 6.71036C9.65387 6.6237 9.81054 6.55536 9.92554 6.45703Z" fill="#2E2E2E" stroke="#2E2E2E" stroke-width="0.3"/>
    <path d="M1.58606 10.0696C1.48106 9.99961 1.33273 9.96127 1.30773 9.87961C1.28278 9.81891 1.2712 9.75355 1.27379 9.68797C1.27638 9.6224 1.29307 9.55815 1.32273 9.49961C2.10106 8.54794 2.8944 7.60794 3.69106 6.66627C3.71673 6.62633 3.75131 6.5929 3.7921 6.5686C3.83288 6.5443 3.87875 6.52981 3.92609 6.52625C3.97343 6.5227 4.02095 6.53018 4.06491 6.54812C4.10886 6.56605 4.14806 6.59395 4.1794 6.6296C4.21604 6.65956 4.24589 6.69698 4.26695 6.73938C4.28801 6.78177 4.2998 6.82816 4.30153 6.87546C4.30327 6.92277 4.29491 6.9699 4.27701 7.01372C4.25911 7.05754 4.23209 7.09704 4.19773 7.1296C3.42773 8.04461 2.66273 8.96294 1.8894 9.87294C1.79789 9.95223 1.6958 10.0184 1.58606 10.0696Z" fill="#2E2E2E" stroke="#2E2E2E" stroke-width="0.3"/>
</svg>
