<svg width="14" height="14" viewBox="0 0 14 14"  xmlns="http://www.w3.org/2000/svg">
<path d="M1.60641 10.5796H12.4797V10.1979C12.4797 8.83958 12.4797 7.48125 12.4797 6.12292C12.4741 5.96648 12.525 5.81325 12.6231 5.69125C12.8081 5.52458 13.0764 5.69125 13.0847 5.97958C13.0947 6.46792 13.0847 6.95458 13.0847 7.44292C13.0847 8.69625 13.0847 9.94292 13.0847 11.2029C13.0847 12.3212 12.3797 13.0362 11.2647 13.0362C8.43363 13.0429 5.6003 13.0429 2.76474 13.0362C1.63807 13.0362 0.943073 12.3346 0.941406 11.2029C0.941406 8.38292 0.941406 5.56236 0.941406 2.74125C0.956406 1.61125 1.66807 0.907917 2.80474 0.90625C5.61474 0.90625 8.42363 0.90625 11.2314 0.90625C12.3797 0.90625 13.0897 1.62625 13.0947 2.78125C13.0947 3.23458 13.0947 3.68625 13.0947 4.13958C13.0947 4.36458 13.0347 4.53792 12.7614 4.52958C12.4881 4.52125 12.5214 4.33292 12.5214 4.15458C12.5214 3.67958 12.5214 3.20292 12.5214 2.72792C12.5097 1.97625 12.0697 1.52292 11.3347 1.52125C8.47807 1.52125 5.62252 1.52125 2.76807 1.52125C2.05474 1.52125 1.60141 1.96125 1.60141 2.65792C1.60141 5.22292 1.60141 7.78792 1.60141 10.3529C1.59141 10.4196 1.60141 10.4879 1.60641 10.5796ZM12.4547 11.2262H1.57807C1.54974 11.9396 2.00474 12.4062 2.74474 12.4062C5.13474 12.4062 7.52363 12.4062 9.91141 12.4062C10.4214 12.4062 10.9314 12.4179 11.4414 12.4062C11.5876 12.4015 11.7312 12.3664 11.8631 12.3032C11.995 12.24 12.1123 12.1501 12.2076 12.0391C12.3029 11.9282 12.3741 11.7986 12.4166 11.6587C12.4592 11.5187 12.4721 11.3715 12.4547 11.2262Z"  stroke-width="0.3"/>
<path d="M4.18281 5.51912L2.95781 6.61912C2.87115 6.69579 2.79115 6.81412 2.69615 6.83912C2.55072 6.8591 2.40324 6.8591 2.25781 6.83912C2.27281 6.69245 2.23448 6.49579 2.31448 6.41079C2.60948 6.10079 2.94281 5.82912 3.26281 5.54245C3.46948 5.35745 3.68448 5.18079 3.88281 4.98579C4.11115 4.76079 4.29948 4.76579 4.53115 4.99745C5.81115 6.28967 7.0967 7.57634 8.38781 8.85745C8.55448 9.02412 8.68115 9.19079 8.47115 9.38912C8.26115 9.58745 8.11281 9.43412 7.97115 9.28745L4.47615 5.79745C4.38781 5.70912 4.29448 5.62579 4.18281 5.51912Z"  stroke-width="0.3"/>
<path d="M8.00058 2.11819C8.29983 2.11886 8.5922 2.20804 8.84088 2.37451C9.08956 2.54098 9.28344 2.7773 9.3981 3.05372C9.51277 3.33013 9.54309 3.63429 9.48527 3.92791C9.42745 4.22153 9.28405 4.49148 9.07314 4.70377C8.86223 4.91607 8.59323 5.06123 8.3 5.12098C8.00677 5.18073 7.70242 5.1524 7.42525 5.03955C7.14809 4.9267 6.91051 4.73438 6.74241 4.48679C6.57431 4.23921 6.48321 3.94743 6.48058 3.64819C6.47814 3.44743 6.51572 3.2482 6.59112 3.06213C6.66652 2.87605 6.77823 2.70686 6.91973 2.56443C7.06123 2.422 7.22968 2.30918 7.41526 2.23257C7.60083 2.15595 7.79981 2.11707 8.00058 2.11819ZM7.98225 4.53319C8.10061 4.53901 8.21895 4.52104 8.33025 4.48034C8.44156 4.43965 8.54357 4.37705 8.63027 4.29626C8.71697 4.21546 8.7866 4.1181 8.83503 4.00994C8.88346 3.90178 8.90972 3.785 8.91225 3.66652C8.91695 3.5449 8.89708 3.42358 8.85382 3.30982C8.81055 3.19606 8.74479 3.0922 8.66045 3.00444C8.57612 2.91669 8.47495 2.84684 8.363 2.79909C8.25105 2.75134 8.13062 2.72665 8.00891 2.72652C7.89 2.7243 7.77184 2.74588 7.6614 2.79001C7.55096 2.83414 7.45046 2.89991 7.36582 2.98347C7.28118 3.06702 7.21411 3.16666 7.16855 3.27653C7.123 3.38639 7.09989 3.50426 7.10058 3.62319C7.09607 3.74151 7.11559 3.85952 7.15794 3.97009C7.20029 4.08067 7.2646 4.18152 7.34699 4.26656C7.42938 4.3516 7.52815 4.41907 7.63733 4.46489C7.74651 4.51072 7.86384 4.53395 7.98225 4.53319Z"  stroke-width="0.3"/>
<path d="M9.22393 6.32248C8.8406 6.63914 8.47226 6.93748 8.1106 7.24248C7.9306 7.39581 7.74226 7.48748 7.57393 7.26748C7.4056 7.04748 7.57393 6.90748 7.7306 6.76748C8.13226 6.43415 8.53726 6.10081 8.93226 5.76748C9.14893 5.58081 9.33226 5.58081 9.5356 5.78748C10.2673 6.52748 11.0073 7.26248 11.7439 7.99915C11.8856 8.14081 11.9989 8.29581 11.8256 8.47581C11.6523 8.65581 11.4773 8.58081 11.3256 8.42248C10.6273 7.73248 9.93393 7.03581 9.22393 6.32248Z"  stroke-width="0.3"/>
</svg>
