<svg width="14" height="14" viewBox="0 0 14 14"  xmlns="http://www.w3.org/2000/svg">
<path d="M5.42887 4.46862C4.27887 4.46862 3.13054 4.46862 1.9822 4.46862C1.22387 4.46862 0.880538 4.12028 0.875538 3.36028C0.875538 2.90695 0.865538 2.45528 0.875538 2.00195C0.892205 1.37695 1.2472 1.01195 1.87554 0.988617C2.33887 0.970284 2.80387 0.988617 3.2672 0.988617C5.12387 0.988617 6.98054 0.988617 8.8372 0.988617C9.65887 0.988617 10.0205 1.35528 10.0222 2.18195C10.0222 2.58862 10.0222 2.99362 10.0222 3.40028C10.0222 4.10028 9.65054 4.47028 8.94387 4.47362C7.7722 4.47362 6.60054 4.46862 5.42887 4.46862ZM5.4622 3.83195C6.62887 3.83195 7.78387 3.83195 8.94554 3.83195C9.26554 3.83195 9.4172 3.70528 9.41054 3.37695C9.40054 2.92362 9.40054 2.47084 9.41054 2.01862C9.41887 1.68528 9.25887 1.56362 8.94387 1.56362C6.61054 1.56362 4.2772 1.56362 1.94387 1.56362C1.58054 1.56362 1.4772 1.67528 1.4722 2.05028C1.4722 2.45695 1.4722 2.86362 1.4722 3.26862C1.4722 3.73195 1.56387 3.82362 2.0172 3.82362C3.16387 3.83028 4.3122 3.83362 5.4622 3.83362V3.83195Z"  stroke-width="0.3"/>
<path d="M5.42387 12.9369C4.28721 12.9369 3.14887 12.9369 2.01221 12.9369C1.23554 12.9369 0.880538 12.5802 0.875538 11.8152C0.875538 11.3502 0.865538 10.8852 0.875538 10.4219C0.892205 9.83353 1.25387 9.45853 1.83887 9.45686C4.23887 9.44797 6.63998 9.44797 9.04221 9.45686C9.17068 9.4553 9.29817 9.47945 9.41717 9.52789C9.53617 9.57633 9.64427 9.64809 9.73512 9.73894C9.82598 9.8298 9.89773 9.9379 9.94618 10.0569C9.99462 10.1759 10.0188 10.3034 10.0172 10.4319C10.0305 10.8952 10.0172 11.3602 10.0172 11.8235C10.0172 12.5585 9.64221 12.9335 8.89887 12.9352C7.74387 12.9402 6.58387 12.9369 5.42387 12.9369ZM5.42387 12.3269C6.58498 12.3313 7.74665 12.3335 8.90887 12.3335C9.30387 12.3335 9.40887 12.2319 9.40887 11.8419C9.40887 11.4002 9.40887 10.9585 9.40887 10.5085C9.41721 10.1752 9.25721 10.0452 8.94387 10.0452C6.61054 10.0452 4.27721 10.0452 1.94387 10.0452C1.58554 10.0452 1.4772 10.1685 1.4722 10.5452C1.4722 10.963 1.4722 11.3813 1.4722 11.8002C1.4722 12.2269 1.58054 12.3285 2.01221 12.3285C3.14998 12.3319 4.28776 12.3335 5.42554 12.3335L5.42387 12.3269Z"  stroke-width="0.3"/>
<path d="M3.93281 5.20925C4.59948 5.20925 5.27781 5.20925 5.95115 5.20925C6.16448 5.20925 6.37115 5.22925 6.37948 5.49425C6.38781 5.75925 6.16615 5.80759 5.94115 5.80759C4.65337 5.80759 3.36559 5.80759 2.07781 5.80759C1.55281 5.80759 1.47281 5.88925 1.47115 6.41092C1.47115 6.78092 1.47115 7.15203 1.47115 7.52425C1.47115 7.98259 1.56781 8.07925 2.01615 8.07925H5.80948C5.90281 8.07925 6.01448 8.04759 6.08448 8.08759C6.19781 8.15592 6.37615 8.28759 6.36281 8.36259C6.34468 8.43318 6.30997 8.49844 6.26156 8.55293C6.21315 8.60742 6.15245 8.64959 6.08448 8.67592C5.84293 8.70657 5.59885 8.71215 5.35615 8.69259C4.24504 8.69259 3.13392 8.69259 2.02281 8.69259C1.26115 8.69259 0.887813 8.32092 0.882812 7.56592C0.882812 7.12592 0.882812 6.68425 0.882812 6.24425C0.894479 5.57759 1.25781 5.21425 1.92115 5.20925C2.58448 5.20425 3.25948 5.20925 3.93281 5.20925Z"  stroke-width="0.3"/>
<path d="M10.635 2.72071C10.635 2.44238 10.6217 2.16404 10.635 1.88738C10.636 1.67524 10.714 1.47068 10.8543 1.31162C10.9947 1.15256 11.188 1.0498 11.3983 1.02238C11.695 0.978219 11.9966 0.978219 12.2933 1.02238C12.4965 1.05406 12.682 1.15628 12.8173 1.3111C12.9527 1.46593 13.0291 1.66346 13.0333 1.86904C13.0517 2.44904 13.055 3.03571 13.0333 3.60738C13.0241 3.83331 12.9292 4.04725 12.7679 4.20574C12.6066 4.36423 12.3911 4.45539 12.165 4.46071C11.9983 4.47404 11.8183 4.47238 11.645 4.46071C10.9983 4.44738 10.645 4.08904 10.625 3.44404C10.625 3.19904 10.625 2.95571 10.625 2.71238L10.635 2.72071ZM11.2267 2.70738C11.2267 2.94071 11.2267 3.17238 11.2267 3.40404C11.2267 3.68238 11.3583 3.84071 11.6517 3.83238C11.78 3.83238 11.9067 3.83238 12.035 3.83238C12.0904 3.83995 12.1468 3.8347 12.1999 3.81702C12.2529 3.79934 12.3012 3.76971 12.341 3.73041C12.3807 3.69111 12.411 3.6432 12.4293 3.59037C12.4476 3.53754 12.4536 3.4812 12.4467 3.42571C12.4533 2.93904 12.4533 2.45182 12.4467 1.96404C12.4523 1.91143 12.4462 1.85822 12.4288 1.80826C12.4114 1.7583 12.383 1.71285 12.3459 1.67519C12.3087 1.63754 12.2636 1.60863 12.2139 1.59056C12.1641 1.57249 12.111 1.56571 12.0583 1.57071H11.6417C11.5863 1.56347 11.5301 1.56896 11.4772 1.58677C11.4243 1.60457 11.3761 1.63421 11.3364 1.67343C11.2967 1.71265 11.2665 1.76042 11.2481 1.81309C11.2296 1.86576 11.2234 1.92195 11.23 1.97738C11.2233 2.22071 11.2267 2.46404 11.2267 2.70738Z"  stroke-width="0.3"/>
<path d="M10.6304 6.97484C10.6304 6.74151 10.6304 6.50984 10.6304 6.27818C10.6286 6.1622 10.6403 6.04642 10.6654 5.93318C10.7987 5.39984 11.2971 5.15984 12.1154 5.22818C12.3503 5.23501 12.5743 5.32881 12.744 5.4914C12.9136 5.65399 13.0169 5.87378 13.0337 6.10818C13.0571 6.68651 13.0571 7.27484 13.0337 7.84651C13.024 8.07565 12.9272 8.29242 12.763 8.45257C12.5988 8.61271 12.3797 8.70414 12.1504 8.70818C11.9837 8.71818 11.8171 8.70818 11.6637 8.70818C11.0171 8.69984 10.6504 8.34151 10.6337 7.70818C10.6254 7.46151 10.6304 7.21818 10.6304 6.97484ZM12.4487 6.94484C12.4487 6.70151 12.4487 6.45651 12.4487 6.21318C12.4541 6.1606 12.448 6.10749 12.4309 6.05748C12.4138 6.00747 12.3861 5.96175 12.3497 5.92344C12.3133 5.88513 12.2691 5.85515 12.22 5.83554C12.1709 5.81594 12.1182 5.80717 12.0654 5.80984C11.9154 5.80984 11.7637 5.80984 11.6137 5.80984C11.5608 5.80659 11.5078 5.81496 11.4585 5.83437C11.4091 5.85378 11.3646 5.88375 11.3281 5.92219C11.2916 5.96063 11.2639 6.00659 11.247 6.05686C11.2301 6.10713 11.2245 6.16048 11.2304 6.21318C11.2304 6.70151 11.2304 7.18818 11.2304 7.67651C11.2242 7.73209 11.2308 7.78836 11.2498 7.84098C11.2687 7.8936 11.2995 7.94115 11.3398 7.97997C11.3801 8.01878 11.4287 8.04783 11.482 8.06486C11.5353 8.08189 11.5917 8.08644 11.6471 8.07818H12.0304C12.0857 8.08605 12.1421 8.08122 12.1953 8.06408C12.2485 8.04693 12.2971 8.0179 12.3374 7.9792C12.3777 7.9405 12.4086 7.89314 12.4279 7.84069C12.4472 7.78825 12.4543 7.73211 12.4487 7.67651C12.4554 7.43318 12.4487 7.18818 12.4487 6.94484Z"  stroke-width="0.3"/>
<path d="M10.6348 11.1668C10.6348 10.8902 10.6215 10.6102 10.6348 10.3335C10.6421 10.0989 10.7395 9.87622 10.9069 9.71168C11.0742 9.54715 11.2985 9.45348 11.5332 9.45016C11.7297 9.43849 11.9267 9.43849 12.1232 9.45016C12.3574 9.45808 12.5803 9.55323 12.748 9.71695C12.9157 9.88068 13.0163 10.1012 13.0298 10.3352C13.0532 10.9018 13.0498 11.4702 13.0298 12.0385C13.0288 12.2501 12.9501 12.454 12.8089 12.6116C12.6676 12.7691 12.4734 12.8694 12.2632 12.8935C11.9773 12.9335 11.6873 12.9335 11.4015 12.8935C11.1919 12.867 10.999 12.7658 10.8581 12.6084C10.7173 12.451 10.638 12.248 10.6348 12.0368C10.6215 11.7535 10.6348 11.4635 10.6348 11.1668ZM12.4482 11.1868C12.4482 10.9435 12.4482 10.7002 12.4482 10.4585C12.454 10.4032 12.4475 10.3473 12.4293 10.2948C12.4111 10.2423 12.3815 10.1945 12.3427 10.1547C12.3038 10.1149 12.2567 10.0842 12.2047 10.0647C12.1526 10.0452 12.0969 10.0374 12.0415 10.0418C11.9032 10.0418 11.7648 10.0418 11.6265 10.0418C11.5739 10.0374 11.521 10.0443 11.4714 10.0623C11.4218 10.0802 11.3766 10.1087 11.3391 10.1458C11.3016 10.1828 11.2725 10.2276 11.2539 10.277C11.2353 10.3264 11.2277 10.3792 11.2315 10.4318C11.2315 10.9318 11.2315 11.4318 11.2315 11.9218C11.2242 11.9784 11.23 12.0358 11.2487 12.0897C11.2673 12.1436 11.2982 12.1924 11.3389 12.2323C11.3797 12.2722 11.4291 12.3021 11.4833 12.3197C11.5375 12.3372 11.5951 12.342 11.6515 12.3335H12.0315C12.0868 12.34 12.1429 12.334 12.1956 12.316C12.2484 12.2979 12.2964 12.2683 12.3362 12.2293C12.376 12.1903 12.4065 12.1429 12.4256 12.0906C12.4447 12.0382 12.4519 11.9823 12.4465 11.9268C12.4532 11.6785 12.4482 11.4352 12.4482 11.1935V11.1868Z"  stroke-width="0.3"/>
<path d="M10.0218 7.00019C10.0218 7.24352 10.0218 7.48686 10.0218 7.73019C10.0269 7.86114 10.0049 7.99175 9.95731 8.11384C9.90969 8.23594 9.8374 8.3469 9.74496 8.43981C9.65253 8.53271 9.54193 8.60556 9.42008 8.6538C9.29823 8.70204 9.16774 8.72464 9.03676 8.72019C8.77077 8.73914 8.50363 8.73468 8.23843 8.70686C8.16822 8.69036 8.10286 8.65764 8.04758 8.61134C7.9923 8.56503 7.94864 8.50641 7.92009 8.44019C7.86843 8.23519 8.02509 8.12852 8.23176 8.12519C8.47509 8.12519 8.71843 8.12519 8.96176 8.12519C9.25676 8.12519 9.41509 7.99852 9.41009 7.68352C9.41009 7.22019 9.41009 6.75686 9.41009 6.29185C9.41009 5.98519 9.27343 5.84352 8.96676 5.85185C8.72343 5.85185 8.48009 5.85185 8.23676 5.85185C8.03009 5.85185 7.87509 5.73685 7.92176 5.53685C7.94751 5.46829 7.9892 5.40684 8.0434 5.35757C8.09759 5.30831 8.16273 5.27264 8.23343 5.25352C8.53306 5.22018 8.83546 5.22018 9.13509 5.25352C9.37522 5.27383 9.59914 5.38295 9.76311 5.55955C9.92707 5.73615 10.0193 5.96755 10.0218 6.20852C10.0318 6.45685 10.0218 6.72519 10.0218 7.00019Z"  stroke-width="0.3"/>
</svg>
