<svg width="20" height="20" viewBox="0 0 20 20" fill="none" xmlns="http://www.w3.org/2000/svg">
<g clip-path="url(#clip0_29_40550)">
<path d="M4.5625 7.625C4.5625 7.50897 4.60859 7.39769 4.69064 7.31564C4.77269 7.23359 4.88397 7.1875 5 7.1875H6.75C6.86603 7.1875 6.97731 7.23359 7.05936 7.31564C7.14141 7.39769 7.1875 7.50897 7.1875 7.625V9.25C7.1875 9.36603 7.14141 9.47731 7.05936 9.55936C6.97731 9.64141 6.86603 9.6875 6.75 9.6875H5C4.88397 9.6875 4.77269 9.64141 4.69064 9.55936C4.60859 9.47731 4.5625 9.36603 4.5625 9.25V7.625ZM5.1875 7.8125V9.0625H6.5625V7.8125H5.1875ZM5 10.625C4.88397 10.625 4.77269 10.6711 4.69064 10.7531C4.60859 10.8352 4.5625 10.9465 4.5625 11.0625V12.6875C4.5625 12.8035 4.60859 12.9148 4.69064 12.9969C4.77269 13.0789 4.88397 13.125 5 13.125H6.75C6.86603 13.125 6.97731 13.0789 7.05936 12.9969C7.14141 12.9148 7.1875 12.8035 7.1875 12.6875V11.0625C7.1875 10.9465 7.14141 10.8352 7.05936 10.7531C6.97731 10.6711 6.86603 10.625 6.75 10.625H5ZM5.1875 12.5V11.25H6.5625V12.5H5.1875ZM4.5625 14.4375C4.5625 14.3215 4.60859 14.2102 4.69064 14.1281C4.77269 14.0461 4.88397 14 5 14H6.75C6.86603 14 6.97731 14.0461 7.05936 14.1281C7.14141 14.2102 7.1875 14.3215 7.1875 14.4375V16.0625C7.1875 16.1785 7.14141 16.2898 7.05936 16.3719C6.97731 16.4539 6.86603 16.5 6.75 16.5H5C4.88397 16.5 4.77269 16.4539 4.69064 16.3719C4.60859 16.2898 4.5625 16.1785 4.5625 16.0625V14.4375ZM5.1875 14.625V15.875H6.5625V14.625H5.1875ZM9.125 7.1875C9.00897 7.1875 8.89769 7.23359 8.81564 7.31564C8.73359 7.39769 8.6875 7.50897 8.6875 7.625V9.25C8.6875 9.36603 8.73359 9.47731 8.81564 9.55936C8.89769 9.64141 9.00897 9.6875 9.125 9.6875H10.875C10.991 9.6875 11.1023 9.64141 11.1844 9.55936C11.2664 9.47731 11.3125 9.36603 11.3125 9.25V7.625C11.3125 7.50897 11.2664 7.39769 11.1844 7.31564C11.1023 7.23359 10.991 7.1875 10.875 7.1875H9.125ZM9.3125 9.0625V7.8125H10.6875V9.0625H9.3125ZM8.6875 11.0625C8.6875 10.9465 8.73359 10.8352 8.81564 10.7531C8.89769 10.6711 9.00897 10.625 9.125 10.625H10.875C10.991 10.625 11.1023 10.6711 11.1844 10.7531C11.2664 10.8352 11.3125 10.9465 11.3125 11.0625V12.6875C11.3125 12.8035 11.2664 12.9148 11.1844 12.9969C11.1023 13.0789 10.991 13.125 10.875 13.125H9.125C9.00897 13.125 8.89769 13.0789 8.81564 12.9969C8.73359 12.9148 8.6875 12.8035 8.6875 12.6875V11.0625ZM9.3125 11.25V12.5H10.6875V11.25H9.3125ZM9.125 14C9.00897 14 8.89769 14.0461 8.81564 14.1281C8.73359 14.2102 8.6875 14.3215 8.6875 14.4375V16.0625C8.6875 16.1785 8.73359 16.2898 8.81564 16.3719C8.89769 16.4539 9.00897 16.5 9.125 16.5H10.875C10.991 16.5 11.1023 16.4539 11.1844 16.3719C11.2664 16.2898 11.3125 16.1785 11.3125 16.0625V14.4375C11.3125 14.3215 11.2664 14.2102 11.1844 14.1281C11.1023 14.0461 10.991 14 10.875 14H9.125ZM9.3125 15.875V14.625H10.6875V15.875H9.3125ZM12.8125 7.625C12.8125 7.50897 12.8586 7.39769 12.9406 7.31564C13.0227 7.23359 13.134 7.1875 13.25 7.1875H15C15.116 7.1875 15.2273 7.23359 15.3094 7.31564C15.3914 7.39769 15.4375 7.50897 15.4375 7.625V9.25C15.4375 9.36603 15.3914 9.47731 15.3094 9.55936C15.2273 9.64141 15.116 9.6875 15 9.6875H13.25C13.134 9.6875 13.0227 9.64141 12.9406 9.55936C12.8586 9.47731 12.8125 9.36603 12.8125 9.25V7.625ZM13.4375 7.8125V9.0625H14.8125V7.8125H13.4375ZM13.25 14C13.134 14 13.0227 14.0461 12.9406 14.1281C12.8586 14.2102 12.8125 14.3215 12.8125 14.4375V16.0625C12.8125 16.1785 12.8586 16.2898 12.9406 16.3719C13.0227 16.4539 13.134 16.5 13.25 16.5H15C15.116 16.5 15.2273 16.4539 15.3094 16.3719C15.3914 16.2898 15.4375 16.1785 15.4375 16.0625V14.4375C15.4375 14.3215 15.3914 14.2102 15.3094 14.1281C15.2273 14.0461 15.116 14 15 14H13.25ZM13.4375 15.875V14.625H14.8125V15.875H13.4375ZM13.25 10.625C13.134 10.625 13.0227 10.6711 12.9406 10.7531C12.8586 10.8352 12.8125 10.9465 12.8125 11.0625V12.6875C12.8125 12.8035 12.8586 12.9148 12.9406 12.9969C13.0227 13.0789 13.134 13.125 13.25 13.125H15C15.116 13.125 15.2273 13.0789 15.3094 12.9969C15.3914 12.9148 15.4375 12.8035 15.4375 12.6875V11.0625C15.4375 10.9465 15.3914 10.8352 15.3094 10.7531C15.2273 10.6711 15.116 10.625 15 10.625H13.25Z" fill="#6C6C6C"/>
<path d="M0.626875 4.375C0.65933 3.36943 1.08161 2.4159 1.80443 1.71607C2.52724 1.01623 3.49391 0.624963 4.5 0.625H15.5C16.5061 0.624963 17.4728 1.01623 18.1956 1.71607C18.9184 2.4159 19.3407 3.36943 19.3731 4.375H19.375V15.5C19.375 16.5277 18.9667 17.5133 18.24 18.24C17.5133 18.9667 16.5277 19.375 15.5 19.375H4.5C3.47229 19.375 2.48666 18.9667 1.75996 18.24C1.03326 17.5133 0.625 16.5277 0.625 15.5V4.375H0.626875ZM1.875 5.625V15.5C1.875 16.1962 2.15156 16.8639 2.64384 17.3562C3.13613 17.8484 3.80381 18.125 4.5 18.125H15.5C16.1962 18.125 16.8639 17.8484 17.3562 17.3562C17.8484 16.8639 18.125 16.1962 18.125 15.5V5.625H1.875Z" fill="#6C6C6C"/>
</g>
<defs>
<clipPath id="clip0_29_40550">
<rect width="20" height="20" fill="white"/>
</clipPath>
</defs>
</svg>
