<svg width="14" height="14" viewBox="0 0 14 14" fill="none" xmlns="http://www.w3.org/2000/svg">
<path d="M6.89984 13.0942C5.30873 13.0942 3.71762 13.0942 2.12651 13.0942C1.27818 13.0942 0.839844 12.6542 0.839844 11.8042C0.839844 8.61089 0.839844 5.41755 0.839844 2.22422C0.839844 1.39089 1.26984 0.954219 2.10151 0.949219C3.10151 0.949219 4.10151 0.949219 5.10151 0.949219C5.88484 0.954219 6.33151 1.39922 6.33151 2.18255C6.33151 2.28755 6.33151 2.39255 6.33151 2.49589C6.33151 2.91089 6.49818 3.08589 6.92818 3.09089C7.74151 3.09089 8.55484 3.09089 9.36651 3.09089C10.1782 3.09089 10.9698 3.09089 11.7715 3.09089C12.5732 3.09089 12.9982 3.49922 12.9982 4.31422C12.9982 6.79866 12.9982 9.28366 12.9982 11.7692C12.9982 12.6659 12.5682 13.0926 11.6648 13.0942H6.89984ZM12.4515 5.02755V4.55255C12.4515 3.81589 12.3348 3.69755 11.6182 3.69755C10.0515 3.69755 8.48318 3.69755 6.91651 3.69755C6.35818 3.69755 5.91651 3.36422 5.80318 2.87755C5.76942 2.65983 5.75658 2.43938 5.76484 2.21922C5.75151 1.71922 5.58484 1.55255 5.08651 1.55255C4.13318 1.55255 3.18151 1.55255 2.22984 1.55255C1.64151 1.55255 1.48318 1.71922 1.48318 2.29589C1.48318 5.45477 1.48318 8.61311 1.48318 11.7709C1.48318 12.3392 1.63484 12.4876 2.20818 12.4876C5.37818 12.4876 8.54762 12.4876 11.7165 12.4876C12.3015 12.4876 12.4598 12.3309 12.4598 11.7442V5.64088H2.71484C2.60984 5.64088 2.48484 5.67088 2.40651 5.62588C2.32818 5.58088 2.17318 5.44255 2.17151 5.34422C2.16984 5.24588 2.28818 5.11089 2.38984 5.05089C2.498 5.0192 2.61183 5.0118 2.72318 5.02922H12.4515V5.02755Z"  stroke-width="0.3"/>
<path d="M10.3714 8.84961H11.3448C11.5614 8.84961 11.7448 8.93628 11.6914 9.16461C11.6632 9.23563 11.6181 9.29871 11.56 9.34837C11.5019 9.39803 11.4326 9.43278 11.3581 9.44961C10.7092 9.47739 10.0603 9.47739 9.41142 9.44961C9.33593 9.43154 9.26604 9.39518 9.20791 9.34374C9.14978 9.29229 9.1052 9.22734 9.07809 9.15461C9.03142 8.95294 9.20142 8.85294 9.41142 8.85128L10.3714 8.84961Z"  stroke-width="0.3"/>
<path d="M10.377 10.6654C10.0536 10.6654 9.72865 10.6654 9.40531 10.6654C9.20198 10.6654 9.06198 10.5854 9.05865 10.3688C9.05531 10.1521 9.20531 10.0654 9.40198 10.0654C10.0503 10.0654 10.6986 10.0654 11.347 10.0654C11.557 10.0654 11.7186 10.1354 11.707 10.3838C11.6953 10.6321 11.5486 10.6654 11.3503 10.6654C11.027 10.6654 10.702 10.6654 10.377 10.6654Z"  stroke-width="0.3"/>
</svg>
