<svg width="17" height="13" viewBox="0 0 17 13" fill="none" xmlns="http://www.w3.org/2000/svg">
<path d="M5.93557 10.5046C6.047 10.3035 6.17715 10.1133 6.32428 9.93653C9.12895 7.11989 11.9396 4.30226 14.7562 1.48362C14.8878 1.35206 15.0074 1.16668 15.1689 1.11585C15.2655 1.07885 15.3689 1.06316 15.4721 1.06987C15.5754 1.07658 15.6759 1.10552 15.7669 1.15472C15.819 1.24422 15.8525 1.34332 15.8653 1.44609C15.8782 1.54886 15.8701 1.65316 15.8416 1.75273C15.8117 1.89326 15.6353 2.0039 15.5187 2.12051L6.41697 11.2342C5.85783 11.7934 5.75018 11.7934 5.20001 11.2342L1.01393 7.04813C0.753791 6.78799 0.469735 6.50992 0.831532 6.15111C1.19333 5.7923 1.46842 6.09729 1.72855 6.35444C2.92458 7.55046 4.1206 8.74648 5.29868 9.94251C5.44304 10.123 5.56923 10.3173 5.67543 10.5226L5.93557 10.5046Z" fill="#007C45" stroke="#007C45"/>
</svg>
