<svg width="43" height="26" viewBox="0 0 43 26" fill="none" xmlns="http://www.w3.org/2000/svg">
<path d="M4.00643 13.9923C15.3232 24.8184 27.8705 24.8526 39.0224 14.1978C32.4302 7.65907 24.2667 4.57568 16.2571 6.89557C15.5594 7.09623 14.9112 7.1256 14.664 6.40614C14.4167 5.68668 15.0375 5.36366 15.7627 5.163C22.1132 3.43532 27.9859 4.59526 33.3421 7.79122C36.0504 9.40633 38.4236 11.4815 40.9287 13.3658C41.4781 13.7769 41.7747 14.2712 41.1484 14.8341C37.1601 18.4901 32.7817 21.642 27.1893 23.1299C20.7069 24.8526 14.7464 23.5557 9.3297 20.2422C6.80815 18.6859 4.57227 16.7282 2.22102 14.9417C1.53982 14.4523 1.45742 13.8454 2.17158 13.2973C4.36901 11.6332 6.51699 9.96917 8.70893 8.32469C9.25828 7.91358 9.92301 7.59545 10.4888 8.30022C11.0547 9.005 10.4888 9.37696 9.89004 9.7685C7.90687 11.1487 5.97313 12.5778 4.00643 13.9923Z" fill="#B7B7B7"/>
<path d="M28.4862 14.2278C28.4775 15.4543 28.0611 16.6511 27.2894 17.6669C26.5178 18.6827 25.4255 19.472 24.1507 19.9351C22.8758 20.3983 21.4755 20.5144 20.1266 20.269C18.7777 20.0235 17.5406 19.4275 16.5717 18.556C15.6028 17.6846 14.9455 16.577 14.6827 15.3729C14.42 14.1689 14.5636 12.9225 15.0955 11.7912C15.6273 10.6598 16.5236 9.69422 17.671 9.01638C18.8184 8.33854 20.1656 7.97882 21.5424 7.98267C22.4621 7.97533 23.3742 8.1323 24.2247 8.44429C25.0752 8.75628 25.8469 9.21696 26.4942 9.79913C27.1415 10.3813 27.6513 11.0731 27.9935 11.8338C28.3356 12.5944 28.5032 13.4084 28.4862 14.2278ZM24.3551 10.4836C21.6083 9.22092 18.8615 9.73971 17.4057 11.6534C16.723 12.5392 16.4223 13.615 16.5591 14.6826C16.6958 15.7503 17.2608 16.738 18.15 17.4641C19.0391 18.1901 20.1927 18.6057 21.3985 18.6342C22.6042 18.6628 23.7809 18.3024 24.7122 17.6195C25.6667 16.9082 26.2875 15.9041 26.4523 14.8052C26.617 13.7063 26.3137 12.5923 25.6021 11.6827L22.5752 14.4969C22.0643 14.9864 21.4764 15.3681 20.8227 14.7514C20.169 14.1348 20.6579 13.6943 21.1578 13.2832C22.1906 12.3679 23.2289 11.4625 24.3551 10.4836Z" fill="#B7B7B7"/>
<line x1="1" y1="-1" x2="47.0549" y2="-1" transform="matrix(-0.866355 0.499428 -0.587652 -0.809114 41.6328 0)" stroke="#B7B7B7" stroke-width="2" stroke-linecap="round"/>
</svg>
