<svg width="25" height="25" viewBox="0 0 25 25" fill="none" xmlns="http://www.w3.org/2000/svg">
<path d="M1.41083 12.277C1.41083 14.7169 1.41083 17.1568 1.41083 19.5966C1.41448 21.7995 2.83683 23.2109 5.02507 23.2145C7.69958 23.2145 10.368 23.2145 13.0304 23.2145C15.2368 23.2145 16.6373 21.7995 16.6446 19.5857C16.6446 18.1269 16.6446 16.679 16.6446 15.2421C16.6446 14.7935 16.7066 14.3813 17.2573 14.385C17.808 14.3886 17.87 14.8008 17.87 15.2457C17.87 16.7957 17.87 18.3493 17.87 19.8993C17.8587 21.0953 17.3793 22.2392 16.5346 23.0859C15.6899 23.9326 14.5472 24.4147 13.3513 24.429C10.4823 24.4582 7.61083 24.4582 4.73695 24.429C4.13779 24.4261 3.54507 24.3053 2.99262 24.0733C2.44018 23.8414 1.93882 23.5029 1.51719 23.0772C1.09555 22.6515 0.761896 22.1469 0.535268 21.5923C0.308639 21.0377 0.193478 20.4438 0.196358 19.8446C0.179339 14.7606 0.179339 9.67664 0.196358 4.59263C0.195878 3.99352 0.313588 3.40019 0.542749 2.84664C0.771909 2.29308 1.10802 1.79016 1.53183 1.36669C1.95563 0.943226 2.45882 0.607519 3.01256 0.378802C3.5663 0.150084 4.15972 0.0328478 4.75883 0.0338073C7.63271 0.00827792 10.503 0.0338073 13.3732 0.0338073C13.8291 0.0338073 14.3178 0.0338075 14.3214 0.631925C14.3214 1.28475 13.7999 1.25922 13.3258 1.25922H5.09436C2.78577 1.25922 1.41448 2.6451 1.41083 4.96828C1.4084 7.40209 1.4084 9.83832 1.41083 12.277Z" fill="#2E2E2E"/>
<path d="M16.6071 8.3051C14.3386 8.18474 12.4312 8.69533 11.0927 10.5553C10.6954 11.1178 10.3301 11.7023 9.99859 12.3059C9.89628 12.5428 9.70602 12.7306 9.46791 12.83C9.22979 12.9293 8.96242 12.9323 8.72212 12.8384C8.21154 12.6706 8.0693 12.2622 8.10212 11.7443C8.42671 6.84627 11.1182 4.15109 16.0017 3.83745C16.1475 3.83745 16.2934 3.81192 16.5232 3.79004C16.5232 2.87098 16.4904 1.98839 16.5232 1.1058C16.5204 0.940482 16.5513 0.77633 16.614 0.623341C16.6767 0.470351 16.7699 0.331728 16.8879 0.215915C17.0485 0.181331 17.2149 0.183372 17.3746 0.221885C17.5344 0.260399 17.6834 0.334397 17.8106 0.438386C19.977 2.07592 22.0886 3.74262 24.2039 5.40933C24.7728 5.85427 24.7838 6.24815 24.2039 6.70039C22.0813 8.38533 19.9429 10.0581 17.7887 11.7187C17.6723 11.8045 17.5381 11.8628 17.396 11.8893C17.2539 11.9158 17.1076 11.9099 16.9681 11.8719C16.8586 11.7836 16.7693 11.6728 16.7064 11.5469C16.6435 11.4211 16.6083 11.2831 16.6034 11.1425C16.5815 10.1943 16.6071 9.26063 16.6071 8.3051ZM17.8252 10.0411L22.9967 6.02933L17.8252 1.93003V3.71709C17.8252 4.89145 17.796 4.81121 16.6581 4.98992C15.3058 5.13006 13.9728 5.41745 12.6828 5.84698C11.038 6.47792 9.76518 8.57498 9.90012 10.0375C11.6106 7.48451 14.0687 6.72957 16.9462 6.94839C17.5808 6.9958 17.8544 7.27298 17.8325 7.90757C17.8106 8.54216 17.8252 9.20227 17.8252 10.0229V10.0411Z" fill="#2E2E2E"/>
</svg>
