<svg width="14" height="12" viewBox="0 0 14 12" fill="none"
    xmlns="http://www.w3.org/2000/svg">
    <path d="M9.19372 8.90036H7.45705C7.65538 9.31036 7.76539 9.73369 7.55205 10.1404C7.41818 10.3955 7.22847 10.6171 6.99705 10.7887C6.75728 10.9459 6.47273 11.0206 6.18665 11.0013C5.90057 10.9821 5.6286 10.87 5.41205 10.682C4.90372 10.2537 4.82038 9.69203 5.15872 8.84869C4.60872 8.66869 4.46538 8.21536 4.37538 7.69869C4.04205 5.76703 3.68038 3.84203 3.33872 1.91203C3.31038 1.72036 3.23038 1.66703 3.04705 1.66703C2.47705 1.66703 1.90872 1.66703 1.34038 1.66703C1.13038 1.66703 0.918717 1.65036 0.910384 1.38036C0.902051 1.11036 1.12372 1.06869 1.34872 1.07036C2.04538 1.07036 2.74205 1.07869 3.43705 1.07036C3.72205 1.07036 3.85205 1.17369 3.90205 1.45869C4.26705 3.54869 4.64372 5.63703 5.01538 7.72536C5.09205 8.15536 5.22872 8.27203 5.67038 8.27369H11.1704C11.6204 8.27369 11.7171 8.19536 11.8037 7.75869C11.8904 7.32203 11.9604 6.92536 12.0437 6.45869H9.94538C9.63205 6.45869 9.31705 6.45869 9.00372 6.45869C8.77872 6.45869 8.51705 6.48036 8.51539 6.16536C8.51372 5.85036 8.78872 5.85036 9.01538 5.85036H11.4971C12.1537 5.85036 12.1521 5.85036 12.2587 5.20869C12.2971 4.98036 12.3437 4.75369 12.3854 4.52536C12.5004 3.88203 12.2771 3.60869 11.6237 3.60703H8.87372C8.32705 3.60703 7.78205 3.60703 7.23538 3.60703C7.02538 3.60703 6.85205 3.55703 6.84538 3.31703C6.83872 3.07703 7.01205 3.00703 7.21872 3.00703C8.76205 3.00703 10.3071 2.99036 11.8504 3.01869C12.6304 3.03203 13.1221 3.71703 12.9771 4.48536C12.7787 5.54536 12.5754 6.60369 12.3937 7.66703C12.3021 8.20203 12.1171 8.65036 11.6637 8.80703C11.6637 9.27536 11.7237 9.70036 11.6437 10.0987C11.5574 10.3607 11.3891 10.588 11.1637 10.747C10.9365 10.9112 10.6632 10.9996 10.3829 10.9996C10.1025 10.9996 9.8293 10.9112 9.60205 10.747C9.04872 10.367 8.92872 9.83369 9.19372 8.90036ZM7.04372 9.64703C7.04372 9.44811 6.9647 9.25735 6.82405 9.1167C6.6834 8.97604 6.49263 8.89703 6.29372 8.89703C6.09481 8.89703 5.90404 8.97604 5.76339 9.1167C5.62274 9.25735 5.54372 9.44811 5.54372 9.64703C5.54372 9.84594 5.62274 10.0367 5.76339 10.1774C5.90404 10.318 6.09481 10.397 6.29372 10.397C6.49263 10.397 6.6834 10.318 6.82405 10.1774C6.9647 10.0367 7.04372 9.84594 7.04372 9.64703ZM11.1637 9.63536C11.1614 9.48745 11.1153 9.34354 11.0312 9.22182C10.9472 9.1001 10.8289 9.00603 10.6914 8.95149C10.5539 8.89694 10.4033 8.88438 10.2587 8.91537C10.114 8.94637 9.98181 9.01954 9.87873 9.12565C9.77565 9.23175 9.70633 9.36602 9.67953 9.5115C9.65273 9.65698 9.66964 9.80714 9.72814 9.94302C9.78664 10.0789 9.88409 10.1944 10.0082 10.2749C10.1323 10.3554 10.2775 10.3973 10.4254 10.3954C10.5239 10.3945 10.6213 10.3741 10.7119 10.3353C10.8025 10.2966 10.8846 10.2402 10.9532 10.1695C11.0219 10.0988 11.0759 10.0152 11.112 9.92353C11.1481 9.83184 11.1657 9.73389 11.1637 9.63536Z"  stroke-width="0.3"/>
</svg>
