<svg width="39" height="42" viewBox="0 0 39 42" fill="none" xmlns="http://www.w3.org/2000/svg">
<g clip-path="url(#clip0_1190_59206)">
<path d="M18.4872 24.4072L18.4872 2.0963C18.4872 1.7523 18.389 1.3395 18.534 1.08395C18.7539 0.700638 19.1563 0.174807 19.4698 0.179722C19.7833 0.184636 20.1764 0.71538 20.4056 1.10361C20.5507 1.35915 20.4477 1.77195 20.4477 2.11104C20.4477 9.12866 20.4477 16.1446 20.4477 23.159V24.3777L20.6536 24.4809C20.8268 24.2303 21.0046 23.9895 21.1683 23.734C22.6516 21.439 24.1442 19.1538 25.6088 16.8539C26.0252 16.2003 26.5165 15.7679 27.209 16.2741C27.9015 16.7802 27.6395 17.4387 27.209 18.0579C25.3374 20.9279 23.4657 23.8126 21.552 26.6727C20.3261 28.5205 18.5714 28.5156 17.3408 26.6727C15.4411 23.8077 13.5976 20.923 11.6792 18.0579C11.2674 17.4289 11.0054 16.7851 11.7213 16.279C12.4372 15.7728 12.9098 16.2347 13.3215 16.8785C14.7674 19.1538 16.2413 21.4095 17.7058 23.675C17.8789 23.9404 18.0708 24.2008 18.2579 24.4613L18.4872 24.4072Z" />
<path d="M19.4987 31.1396C21.4873 31.1396 23.4713 31.1396 25.4599 31.1396C26.1477 31.1396 26.7653 31.2625 26.7747 32.1225C26.784 32.9825 26.1617 33.2037 25.4271 33.2037C21.4218 33.2037 17.415 33.2037 13.4066 33.2037C12.7001 33.2037 12.1386 33.0169 12.1526 32.1569C12.1666 31.2969 12.7468 31.1396 13.4393 31.1446C15.442 31.1396 17.4774 31.1396 19.4987 31.1396Z" />
</g>
<defs>
<clipPath id="clip0_1190_59206">
<rect width="39" height="41" fill="white" transform="translate(0 0.179688)"/>
</clipPath>
</defs>
</svg>
