<svg width="13" height="12" viewBox="0 0 13 12" fill="none" xmlns="http://www.w3.org/2000/svg">
<path d="M12.0702 3.01451C11.8446 3.40936 11.6979 3.86062 11.3933 4.16748C9.13477 6.49825 6.8401 8.79292 4.54543 11.1079C4.4103 11.2303 4.24399 11.3131 4.06483 11.3471C2.93668 11.5727 1.80852 11.769 0.680363 11.9721C0.0892095 12.0759 -0.0800143 11.8976 0.0328014 11.3155C0.240382 10.237 0.434425 9.15619 0.660057 8.08219C0.712582 7.84162 0.82868 7.61956 0.996247 7.43914C3.31423 5.10611 5.63523 2.78211 7.95923 0.467129C8.21397 0.191343 8.56557 0.0248588 8.94034 0.00256596C9.31511 -0.0197269 9.68397 0.103902 9.9696 0.347544C10.5638 0.860487 11.1196 1.41628 11.6325 2.01045C11.8446 2.24962 11.9055 2.61965 12.0702 3.01451ZM9.753 4.76315L7.33423 2.33761L2.91637 6.62461L5.34416 9.05917L9.753 4.76315ZM10.5201 4.11333C10.6271 3.95628 10.7431 3.8056 10.8676 3.66207C11.3572 3.1386 11.3617 2.75954 10.8676 2.24285C10.484 1.85251 10.1005 1.45991 9.70336 1.0831C9.53925 0.91148 9.31411 0.811449 9.07675 0.804691C8.83938 0.797933 8.60892 0.884994 8.43531 1.047C8.24578 1.20494 8.04948 1.35837 7.89605 1.48021L10.5201 4.11333ZM1.29408 8.76585L0.82928 11.144L3.23225 10.7063L1.29408 8.76585ZM1.67991 7.78887L4.16185 10.2505L4.67404 9.79924L2.21691 7.36017L1.67991 7.78887Z" />
<path d="M1.29293 8.76562L3.2311 10.7061L0.828125 11.1438L1.29293 8.76562Z" />
</svg>
