<svg width="84" height="72" viewBox="0 0 84 72" fill="none" xmlns="http://www.w3.org/2000/svg">
<path d="M69.7575 70.3786H13.5014C6.62562 70.3786 1 64.753 1 57.8772V14.1225C1 7.24671 6.62562 1.62109 13.5014 1.62109H69.7575C76.6333 1.62109 82.2589 7.24671 82.2589 14.1225V57.8772C82.2589 64.753 76.6333 70.3786 69.7575 70.3786Z" stroke="#007C45" stroke-width="2" stroke-miterlimit="10" stroke-linecap="round" stroke-linejoin="round"/>
<path d="M13.5014 70.3787H69.7575C76.6333 70.3787 82.2589 64.753 82.2589 57.8773V35.9999L69.7575 23.4985L37.254 53.5018L22.8774 39.1252L1 59.1274C1.9376 65.3781 6.93815 70.3787 13.5014 70.3787Z" stroke="#007C45" stroke-width="2" stroke-miterlimit="10" stroke-linecap="round" stroke-linejoin="round"/>
<path d="M16.6257 26.6239C20.0778 26.6239 22.8764 23.8254 22.8764 20.3732C22.8764 16.9211 20.0778 14.1226 16.6257 14.1226C13.1735 14.1226 10.375 16.9211 10.375 20.3732C10.375 23.8254 13.1735 26.6239 16.6257 26.6239Z" stroke="#007C45" stroke-width="2" stroke-miterlimit="10" stroke-linecap="round" stroke-linejoin="round"/>
</svg>
