<svg width="22" height="22" viewBox="0 0 22 22" fill="none" xmlns="http://www.w3.org/2000/svg">
<path d="M9.9209 21.0007C9.37642 20.8763 8.82001 20.7878 8.28747 20.6179C4.17284 19.3093 1.66299 16.5151 1.09463 12.2447C0.526277 7.9744 2.56568 4.40263 5.93045 2.39306C7.61404 1.39356 9.55485 0.914611 11.5092 1.01634C13.4636 1.11806 15.3444 1.79593 16.9155 2.96483C17.2045 3.18014 17.4576 3.42895 17.1878 3.7878C16.9179 4.14665 16.617 3.98158 16.3209 3.76866C10.869 -0.123685 3.5209 2.78541 2.19314 9.35957C1.19493 14.3022 4.82001 19.3165 9.83493 19.9122C15.4158 20.5749 20.1513 16.295 20.0057 10.7041C19.959 9.33453 19.6039 7.99329 18.9669 6.78062C18.9072 6.661 18.8403 6.54139 18.783 6.42655C18.6421 6.13469 18.6636 5.85957 18.9669 5.69689C19.2702 5.53421 19.5161 5.69689 19.6833 5.96244C20.311 7.06259 20.7303 8.26945 20.9203 9.52225C20.9466 9.68493 20.9896 9.84282 21.023 10.0007V11.8022C20.9919 11.9433 20.9513 12.0844 20.9275 12.2256C20.1705 16.484 17.7728 19.2998 13.6558 20.6179C13.0922 20.7974 12.4976 20.8763 11.9173 21.0031L9.9209 21.0007Z" fill="#E42B24" stroke="#E42B24"/>
<path d="M10.967 11.6839L7.8625 14.8203C7.75743 14.9279 7.65713 15.0978 7.53773 15.1169C7.31788 15.1728 7.08522 15.1465 6.8834 15.0427C6.78071 14.9566 6.79504 14.6097 6.8834 14.4375C7.02377 14.2325 7.19449 14.0502 7.38967 13.8968L10.315 10.9494C9.83743 10.4901 9.35982 10.0619 8.88221 9.61212C8.22788 8.97337 7.58788 8.31786 6.94071 7.67193C6.70191 7.4327 6.61594 7.19346 6.8643 6.92791C7.11265 6.66236 7.39683 6.72935 7.64519 6.97815L10.9789 10.3298C11.5091 9.78676 12.0106 9.26762 12.5192 8.75088C13.078 8.17672 13.6583 7.62408 14.2076 7.05471C14.4655 6.79155 14.7449 6.60255 15.0601 6.92073C15.3753 7.23892 15.1509 7.51882 14.8977 7.77002C13.9425 8.72695 12.9873 9.68389 12.0321 10.6408C11.9198 10.7581 11.8124 10.8801 11.6786 11.0236C12.7174 12.0667 13.7395 13.0858 14.7521 14.1145C15.0195 14.3848 15.4685 14.6671 15.0386 15.0954C14.6088 15.5236 14.3222 15.0954 14.0524 14.8083C13.0398 13.7724 12.0225 12.7437 10.967 11.6839Z" fill="#E42B24" stroke="#E42B24"/>
</svg>
