<svg width="21" height="20" viewBox="0 0 21 20" fill="none" xmlns="http://www.w3.org/2000/svg">
<g clip-path="url(#clip0_1434_21544)">
<path d="M21.0004 18.6921C20.9148 18.8144 20.8343 18.932 20.7487 19.0592C20.5585 19.3511 20.2924 19.5911 19.9761 19.7559C19.6599 19.9207 19.3043 20.0047 18.9439 19.9998C17.3154 19.983 15.6868 19.9998 14.0583 19.9998C13.721 19.9998 13.4466 19.9494 13.434 19.5703C13.4215 19.1912 13.6782 19.04 14.0432 19.04C15.5308 19.04 17.0209 19.04 18.5085 19.04C19.6613 19.04 20.0514 18.6633 20.0514 17.5667L20.0514 5.64827C20.0514 4.89962 20.2629 4.74605 20.9979 4.95241L21.0004 18.6921Z" fill="#2E2E2E"/>
<path d="M20.998 2.54599C20.3108 2.74515 20.1522 2.65396 20.044 2.00609C19.9357 1.35822 19.4827 1.00549 18.7024 0.998294C17.2651 0.998295 15.8304 0.998295 14.3931 0.998295C14.2547 0.998295 14.1137 0.998295 13.9728 0.998295C13.6531 0.981498 13.4341 0.839926 13.4291 0.518391C13.4207 0.450805 13.4284 0.382277 13.4517 0.317938C13.475 0.253599 13.5132 0.195117 13.5636 0.146874C13.6139 0.0986321 13.6751 0.0618796 13.7425 0.0393691C13.8099 0.0168586 13.8817 0.00917457 13.9526 0.0168919C15.6869 0.0168919 17.4212 9.40007e-05 19.1529 0.0456848C20.0465 0.0696799 20.5726 0.676759 20.998 1.35822L20.998 2.54599Z" fill="#2E2E2E"/>
<path d="M12.4092 10.5204L0.981679 10.5204C0.805483 10.5204 0.594048 10.5707 0.46316 10.4964C0.266828 10.3836 -0.00249974 10.1772 1.73304e-05 10.0165C0.0025344 9.85568 0.274379 9.65413 0.473228 9.53655C0.604117 9.46216 0.815551 9.51495 0.98923 9.51495C4.58362 9.51495 8.17717 9.51495 11.7699 9.51495L12.3941 9.51495L12.447 9.40937C12.3186 9.32059 12.1953 9.22941 12.0644 9.14543C10.8889 8.38478 9.71846 7.61933 8.54047 6.86828C8.2057 6.65473 7.9842 6.40277 8.24345 6.04765C8.50271 5.69252 8.84 5.82689 9.15716 6.04765C10.6271 7.00745 12.1047 7.96726 13.5696 8.94867C14.516 9.57734 14.5135 10.4772 13.5696 11.1082C12.1021 12.0824 10.6246 13.0278 9.15716 14.0117C8.83497 14.2228 8.50523 14.3572 8.24597 13.9901C7.98671 13.6229 8.22332 13.3806 8.55306 13.1694C9.71846 12.428 10.8738 11.6721 12.0342 10.9211C12.1701 10.8323 12.3035 10.7339 12.4369 10.6379L12.4092 10.5204Z" fill="#2E2E2E"/>
<path d="M15.8555 10.0012C15.8555 8.98138 15.8555 7.96398 15.8555 6.94419C15.8555 6.59146 15.9184 6.27472 16.3589 6.26992C16.7994 6.26512 16.9126 6.58426 16.9126 6.96098C16.9126 9.01497 16.9126 11.0698 16.9126 13.1254C16.9126 13.4877 16.817 13.7756 16.3765 13.7684C15.936 13.7612 15.8555 13.4637 15.858 13.1086C15.8555 12.0816 15.8555 11.0378 15.8555 10.0012Z" fill="#2E2E2E"/>
</g>
<defs>
<clipPath id="clip0_1434_21544">
<rect width="20" height="21" fill="white" transform="translate(0 20) rotate(-90)"/>
</clipPath>
</defs>
</svg>
