<svg width="39" height="22" viewBox="0 0 39 22" fill="none" xmlns="http://www.w3.org/2000/svg">
<path d="M3.18302 10.9001C13.9735 22.4868 25.9373 22.5235 36.5706 11.1201C30.2849 4.12205 22.5011 0.82205 14.864 3.30491C14.1987 3.51967 13.5806 3.5511 13.3449 2.7811C13.1092 2.0111 13.7011 1.66538 14.3925 1.45062C20.4478 -0.398426 26.0473 0.843002 31.1544 4.26348C33.7368 5.99205 35.9997 8.213 38.3883 10.2297C38.9121 10.6697 39.1949 11.1987 38.5978 11.8011C34.7949 15.714 30.6202 19.0873 25.2878 20.6797C19.1068 22.5235 13.4235 21.1354 8.25874 17.5892C5.85445 15.9235 3.72255 13.8282 1.48064 11.9163C0.831119 11.3925 0.752547 10.743 1.4335 10.1563C3.52874 8.37538 5.57683 6.59443 7.66683 4.83443C8.19064 4.39443 8.82445 4.05395 9.36398 4.80824C9.9035 5.56253 9.36398 5.96062 8.79302 6.37967C6.90207 7.85681 5.05826 9.38634 3.18302 10.9001Z" fill="#B7B7B7"/>
<path d="M26.522 11.1509C26.5137 12.4636 26.1166 13.7444 25.3808 14.8316C24.645 15.9188 23.6036 16.7635 22.388 17.2592C21.1725 17.7548 19.8373 17.8792 18.5511 17.6165C17.2649 17.3538 16.0854 16.7158 15.1615 15.7832C14.2377 14.8506 13.6109 13.6651 13.3604 12.3765C13.1098 11.0879 13.2468 9.75392 13.7539 8.54309C14.261 7.33226 15.1156 6.29885 16.2097 5.57339C17.3038 4.84793 18.5883 4.46294 19.901 4.46706C20.778 4.45921 21.6476 4.6272 22.4586 4.96111C23.2696 5.29502 24.0054 5.78806 24.6226 6.41113C25.2398 7.03419 25.7259 7.77464 26.0521 8.58872C26.3783 9.4028 26.5381 10.274 26.522 11.1509ZM22.5829 7.14372C19.9639 5.7923 17.3448 6.34753 15.9567 8.39563C15.3058 9.34372 15.0191 10.495 15.1495 11.6377C15.2799 12.7803 15.8185 13.8374 16.6664 14.6145C17.5142 15.3916 18.6141 15.8363 19.7638 15.8669C20.9134 15.8974 22.0355 15.5118 22.9234 14.7809C23.8335 14.0196 24.4255 12.945 24.5826 11.7689C24.7396 10.5928 24.4504 9.40049 23.772 8.42706L20.8858 11.439C20.3986 11.9628 19.8382 12.3713 19.2148 11.7113C18.5915 11.0513 19.0577 10.5799 19.5343 10.1399C20.5191 9.16039 21.5091 8.19134 22.5829 7.14372Z" fill="#B7B7B7"/>
</svg>
