<svg width="14" height="12" viewBox="0 0 14 12" fill="none" xmlns="http://www.w3.org/2000/svg">
<path d="M10.795 10.8333V8.69499C10.795 8.11999 10.8217 8.09499 11.4117 8.09499H11.8633C12.445 8.08665 12.6667 7.86999 12.6683 7.29332C12.6683 6.51499 12.6683 5.73832 12.6683 4.95999C12.6706 4.88945 12.6874 4.82014 12.7178 4.75645C12.7483 4.69276 12.7916 4.63608 12.845 4.58999C13.0483 4.45832 13.285 4.62165 13.2867 4.89499C13.2867 5.78832 13.3133 6.68332 13.2767 7.57499C13.2517 8.21999 12.725 8.67999 12.0483 8.72666C11.8667 8.73999 11.6833 8.72666 11.4717 8.72666C11.4717 8.89332 11.455 9.01165 11.455 9.13499C11.455 9.86665 11.455 10.5983 11.445 11.3283C11.445 11.4833 11.3733 11.7083 11.265 11.765C11.1567 11.8217 10.9317 11.7417 10.8083 11.6533C9.965 11.0367 9.14167 10.4 8.30834 9.77332C7.85334 9.43999 7.43834 8.97165 6.925 8.79832C6.41167 8.62499 5.82333 8.75499 5.26667 8.75332C4.175 8.75332 3.085 8.75332 1.99333 8.75332C1.14833 8.75332 0.626667 8.22999 0.625 7.38332C0.625 5.54999 0.625 3.71665 0.625 1.88332C0.625 1.04999 1.15 0.52832 1.97167 0.52832C5.305 0.52832 8.63833 0.52832 11.9717 0.52832C12.7717 0.52832 13.2933 1.05999 13.305 1.86165C13.3268 2.11592 13.3217 2.37177 13.29 2.62499C13.2633 2.75165 13.0867 2.84999 12.9783 2.95832C12.8767 2.84165 12.7133 2.73832 12.6883 2.60665C12.6627 2.35305 12.6571 2.09781 12.6717 1.84332C12.6517 1.40499 12.4067 1.16665 11.9633 1.16665C8.63 1.16665 5.29667 1.16665 1.96333 1.16665C1.50167 1.16665 1.255 1.41499 1.25333 1.88332C1.25333 3.71665 1.25333 5.54999 1.25333 7.38332C1.25333 7.86999 1.50667 8.09665 2.03667 8.09832C3.615 8.09832 5.20333 8.08999 6.77333 8.10999C7.02289 8.11484 7.2656 8.19246 7.47167 8.33332C8.48334 9.07332 9.47167 9.83332 10.4717 10.5967C10.5617 10.6667 10.655 10.73 10.795 10.8333Z"  stroke-width="0.3"/>
<path d="M6.96649 2.6548C7.79982 1.6548 8.95316 1.80813 9.55482 2.4498C9.83718 2.73378 10.0046 3.11211 10.0249 3.51206C10.0452 3.91201 9.91697 4.30535 9.66482 4.61647C8.90149 5.4998 8.10482 6.3598 7.31316 7.2248C7.09482 7.4648 6.87982 7.45147 6.66316 7.21313C5.92205 6.39647 5.18316 5.57758 4.44649 4.75647C3.78982 4.02147 3.80816 3.0298 4.47982 2.3848C5.11649 1.77313 6.10982 1.79647 6.81316 2.44147C6.87089 2.50758 6.92223 2.57901 6.96649 2.6548ZM6.96649 6.57147C7.67649 5.78813 8.34649 5.03647 9.03316 4.2998C9.18166 4.1592 9.28349 3.97645 9.32491 3.77619C9.36633 3.57593 9.34536 3.36778 9.26482 3.1798C9.20849 3.0068 9.10177 2.85457 8.95834 2.74262C8.81492 2.63067 8.64133 2.56411 8.45982 2.55147C8.25104 2.524 8.0388 2.55944 7.85027 2.65326C7.66174 2.74708 7.50548 2.89502 7.40149 3.07813C7.08982 3.57813 6.75982 3.56647 6.46649 3.04147C6.39621 2.92472 6.30326 2.82324 6.19311 2.74301C6.08296 2.66279 5.95786 2.60545 5.82518 2.57437C5.6925 2.5433 5.55495 2.53913 5.42063 2.5621C5.28632 2.58508 5.15796 2.63473 5.04316 2.70813C4.56316 2.9998 4.40316 3.71147 4.76649 4.13313C5.46816 4.9498 6.20649 5.7348 6.96316 6.57147H6.96649Z"  stroke-width="0.3"/>
</svg>
