<svg width="13" height="12" viewBox="0 0 13 12" fill="none" xmlns="http://www.w3.org/2000/svg">
<path d="M10.1349 10.2563C10.1349 9.54459 10.1349 8.90034 10.1349 8.25458C10.1349 7.85005 10.1843 7.80511 10.5844 7.80511C10.7627 7.80511 10.9395 7.80511 11.1178 7.80511C11.5792 7.79162 11.7845 7.58786 11.786 7.12789C11.786 6.4287 11.786 5.72951 11.786 5.03032C11.786 4.82956 11.798 4.63478 12.0602 4.62879C12.3224 4.6228 12.3598 4.82806 12.3598 5.04081C12.3598 5.73001 12.3598 6.41772 12.3598 7.10692C12.3598 7.90998 11.9103 8.36695 11.1043 8.37744C10.9904 8.37744 10.8765 8.37744 10.7177 8.37744V8.72953C10.7177 9.39776 10.7282 10.066 10.7177 10.7327C10.716 10.8059 10.6988 10.8779 10.6673 10.944C10.6358 11.0101 10.5907 11.0688 10.5349 11.1163C10.454 11.1642 10.2548 11.0893 10.1514 11.0114C9.05016 10.1828 7.9819 9.35731 6.89866 8.53326C6.75856 8.43291 6.5915 8.37705 6.41921 8.37295C5.06179 8.36096 3.70586 8.37295 2.34844 8.37295C1.4315 8.37295 1 7.94744 1 7.04249C1 5.45533 1 3.86917 1 2.28401C1 1.43 1.43599 1 2.2945 1H11.0608C11.9103 1 12.3463 1.44049 12.3493 2.293C12.3493 2.48178 12.3493 2.66906 12.3493 2.85635C12.3493 3.04363 12.2669 3.18746 12.0602 3.18447C11.8534 3.18147 11.7785 3.03464 11.7815 2.84436C11.7845 2.65408 11.7815 2.44882 11.7815 2.24506C11.777 1.76411 11.5747 1.56634 11.0863 1.56634H2.9837C2.723 1.56634 2.4623 1.56634 2.20011 1.56634C1.76112 1.56634 1.53488 1.7776 1.53338 2.21209C1.52639 3.86118 1.52639 5.50927 1.53338 7.15636C1.53338 7.60584 1.75962 7.79462 2.24056 7.79462C3.60698 7.79462 4.97489 7.8066 6.3413 7.79462C6.68363 7.77835 7.01986 7.88936 7.28521 8.10626C8.13472 8.78048 9.00821 9.42473 9.87271 10.0795C9.93863 10.1229 10.0076 10.1664 10.1349 10.2563Z"  stroke-width="0.25"/>
<path d="M9.35452 4.72169C9.3524 5.07702 9.27973 5.42839 9.14073 5.7554C9.00173 6.08242 8.79916 6.37857 8.54479 6.62667C8.29042 6.87478 7.9893 7.06989 7.65891 7.20068C7.32853 7.33148 6.97546 7.39535 6.62019 7.3886C6.08719 7.38116 5.56834 7.21594 5.12919 6.9138C4.69004 6.61166 4.35027 6.18615 4.1528 5.69102C3.95534 5.19589 3.90903 4.65335 4.01974 4.13191C4.13044 3.61048 4.39318 3.13355 4.77478 2.76136C5.15639 2.38917 5.63973 2.13841 6.16376 2.04076C6.68779 1.94311 7.22901 2.00294 7.71906 2.2127C8.20911 2.42246 8.626 2.77275 8.91708 3.21931C9.20817 3.66587 9.36039 4.18867 9.35452 4.72169ZM8.78518 4.69023C8.78735 4.41103 8.73424 4.13416 8.6289 3.87558C8.52356 3.61701 8.36807 3.38184 8.17141 3.18365C7.97474 2.98545 7.74079 2.82815 7.48304 2.7208C7.22529 2.61346 6.94884 2.55819 6.66963 2.5582C6.24727 2.55494 5.83346 2.6772 5.48069 2.90947C5.12791 3.14175 4.85208 3.47358 4.68819 3.86285C4.52429 4.25213 4.47971 4.68132 4.5601 5.09597C4.6405 5.51063 4.84224 5.89206 5.13974 6.19188C5.43725 6.4917 5.8171 6.6964 6.23112 6.78C6.64513 6.86361 7.07465 6.82237 7.46519 6.66149C7.85573 6.50062 8.18968 6.22737 8.42469 5.87642C8.6597 5.52546 8.78517 5.1126 8.78518 4.69023Z"  stroke-width="0.25"/>
<path d="M6.94724 4.40244C7.2349 4.40244 7.47463 4.40244 7.71435 4.40244C7.9286 4.40244 8.19829 4.36199 8.20877 4.68261C8.21926 5.00324 7.93909 4.97028 7.73083 4.97478C7.48362 4.97478 7.2349 4.97478 6.94724 4.97478V5.87373C6.94724 6.06851 6.90229 6.2438 6.67156 6.2513C6.41535 6.26029 6.38089 6.076 6.37191 5.86774C6.36441 5.58007 6.44382 5.20101 6.2925 5.03471C6.14117 4.8684 5.76361 4.98377 5.48344 4.97777C5.27817 4.97777 5.08789 4.93582 5.09389 4.67812C5.09988 4.42042 5.29466 4.39645 5.49692 4.39794C5.7771 4.39794 6.05577 4.39794 6.3749 4.39794C6.3749 4.07432 6.3749 3.78516 6.3749 3.49899C6.3749 3.30122 6.41535 3.13041 6.65208 3.12892C6.88881 3.12742 6.95173 3.28923 6.95173 3.4885L6.94724 4.40244Z"  stroke-width="0.25"/>
</svg>
