<svg width="14" height="14" viewBox="0 0 14 14" fill="none" xmlns="http://www.w3.org/2000/svg">
<path d="M1.89376 6.56825L1.60543 6.55325C1.47726 6.55325 1.35037 6.5279 1.23204 6.47865C1.11372 6.4294 1.0063 6.35723 0.915988 6.2663C0.825673 6.17536 0.75424 6.06746 0.705803 5.9488C0.657366 5.83014 0.632882 5.70307 0.633761 5.57491C0.620428 5.01825 0.633761 4.45991 0.633761 3.90825C0.633761 3.68491 0.693761 3.50158 0.947095 3.49658C1.20043 3.49158 1.27043 3.66325 1.26709 3.89658C1.26709 4.40825 1.26709 4.91825 1.26709 5.42991C1.26709 5.81658 1.37876 5.92991 1.76709 5.92991C2.53543 5.94158 2.53543 5.94158 2.53543 6.72491V7.73658C2.95791 7.44758 3.36409 7.13544 3.75209 6.80158C4.08174 6.46176 4.48681 6.2044 4.93448 6.05035C5.38215 5.8963 5.85981 5.8499 6.32876 5.91491C7.0171 5.99158 7.72043 5.93158 8.4171 5.92825C8.79876 5.92825 8.9171 5.81658 8.9171 5.42825C8.9171 4.24491 8.9171 3.06047 8.9171 1.87491C8.9171 1.48491 8.81043 1.37491 8.4171 1.37491H1.75209C1.36376 1.37491 1.26876 1.48158 1.26209 1.87491C1.27848 2.03659 1.27287 2.19974 1.24543 2.35991C1.22401 2.42012 1.1887 2.47444 1.14237 2.51845C1.09604 2.56247 1.03999 2.59494 0.978761 2.61325C0.877095 2.62325 0.668761 2.49991 0.668761 2.42325C0.617095 1.98991 0.547095 1.54158 0.825428 1.14658C0.928523 1.0054 1.06628 0.893198 1.22539 0.820794C1.3845 0.748391 1.5596 0.718238 1.73376 0.733247C2.41876 0.733247 3.10376 0.733247 3.78876 0.733247C5.30876 0.733247 6.82932 0.733247 8.35043 0.733247C9.1721 0.733247 9.5371 1.10325 9.5371 1.92658C9.5371 3.08658 9.5371 4.24769 9.5371 5.40991C9.5371 6.22158 9.16043 6.59325 8.33876 6.59491C7.3621 6.59491 6.38709 6.59491 5.41209 6.60491C5.20921 6.6115 5.01251 6.6763 4.84543 6.79158C4.07376 7.34825 3.32376 7.93491 2.55543 8.49991C2.43043 8.59158 2.19376 8.68658 2.10543 8.62991C2.04143 8.57087 1.99033 8.49923 1.95534 8.41949C1.92035 8.33976 1.90222 8.25365 1.90209 8.16658C1.87876 7.64658 1.89376 7.12491 1.89376 6.56825Z"  stroke-width="0.3"/>
<path d="M11.6939 12.3583C11.6939 12.025 11.6939 11.7667 11.6939 11.515C11.6789 11.2 11.8239 11.08 12.1306 11.08C12.6306 11.08 12.6306 11.0683 12.6306 10.5533C12.6306 9.76501 12.6189 8.97501 12.6306 8.18668C12.6306 7.87668 12.5239 7.79001 12.2239 7.79168C10.6356 7.80335 9.04558 7.79168 7.45558 7.79168C7.23558 7.79168 7.09058 7.82168 7.01891 8.07501C6.99225 8.17168 6.76725 8.27668 6.65058 8.26001C6.56058 8.24668 6.43891 8.05001 6.43391 7.92668C6.43985 7.72585 6.52274 7.53498 6.66543 7.39353C6.80812 7.25208 6.9997 7.17087 7.20058 7.16668C8.97836 7.15668 10.7534 7.15668 12.5256 7.16668C12.7322 7.17018 12.9291 7.25483 13.0738 7.40234C13.2185 7.54986 13.2994 7.74838 13.2989 7.95501C13.3145 8.95501 13.3145 9.95501 13.2989 10.955C13.2989 11.4167 13.0022 11.6567 12.3472 11.7883C12.3472 12.1467 12.3639 12.515 12.3372 12.88C12.3344 12.955 12.3163 13.0286 12.2839 13.0962C12.2515 13.1639 12.2055 13.2242 12.1489 13.2733C12.0622 13.325 11.8572 13.2567 11.7506 13.18C11.1789 12.7633 10.6289 12.3167 10.0539 11.905C9.8872 11.79 9.69127 11.7247 9.48891 11.7167C8.77058 11.695 8.05058 11.7167 7.33225 11.705C6.77391 11.705 6.43891 11.3717 6.42558 10.8267C6.41725 10.3867 6.42558 9.94501 6.42558 9.50501C6.42558 9.28501 6.47891 9.10168 6.74058 9.09501C7.00225 9.08835 7.06225 9.27001 7.06058 9.49335C7.06058 9.90001 7.06891 10.305 7.06058 10.7117C7.05225 10.9783 7.15225 11.0833 7.42725 11.0783C8.17058 11.0667 8.91391 11.0567 9.65558 11.0783C9.8941 11.0928 10.1244 11.1711 10.3222 11.305C10.7606 11.6233 11.1822 11.97 11.6939 12.3583Z"  stroke-width="0.3"/>
<path d="M10.8145 9.87091C10.6412 9.80438 10.4797 9.7104 10.3362 9.59258C10.2862 9.53591 10.3662 9.24925 10.4096 9.24258C10.6972 9.20732 10.9879 9.20452 11.2762 9.23425C11.3195 9.23425 11.4045 9.54258 11.3612 9.57758C11.1904 9.69521 11.007 9.79359 10.8145 9.87091Z"  stroke-width="0.3"/>
<path d="M8.78609 9.7981C8.66776 9.7881 8.54276 9.8131 8.46776 9.7631C8.35779 9.69715 8.27817 9.59059 8.24609 9.46643C8.25163 9.40816 8.27241 9.35237 8.30635 9.30468C8.34029 9.257 8.38619 9.21908 8.43943 9.19476C8.66447 9.15643 8.89438 9.15643 9.11943 9.19476C9.17292 9.21798 9.21939 9.25482 9.2542 9.30162C9.289 9.34841 9.31092 9.40352 9.31776 9.46143C9.3052 9.52317 9.28026 9.58173 9.24446 9.63358C9.20865 9.68542 9.16272 9.72948 9.10943 9.7631C9.02276 9.81476 8.88609 9.78976 8.78609 9.7981Z"  stroke-width="0.3"/>
<path d="M7.05724 3.46795C7.14891 3.46795 7.26057 3.43628 7.32891 3.47628C7.43391 3.53795 7.56891 3.64295 7.57891 3.74295C7.57633 3.80612 7.55768 3.86759 7.52473 3.92154C7.49177 3.97549 7.4456 4.02015 7.39057 4.05128C7.16718 4.09543 6.9373 4.09543 6.71391 4.05128C6.6564 4.02354 6.60693 3.98158 6.57018 3.92938C6.53343 3.87717 6.51062 3.81644 6.50391 3.75295C6.50391 3.65628 6.64057 3.53795 6.74557 3.47962C6.82391 3.43462 6.94724 3.46962 7.05057 3.46962L7.05724 3.46795Z"  stroke-width="0.3"/>
<path d="M3.10406 3.46477C3.18406 3.46477 3.28573 3.43477 3.34073 3.46477C3.45073 3.53811 3.6174 3.65644 3.60906 3.74144C3.59549 3.81327 3.56518 3.88088 3.52058 3.93879C3.47599 3.99671 3.41837 4.0433 3.3524 4.07477C3.19048 4.13104 3.01431 4.13104 2.8524 4.07477C2.72406 4.02644 2.6424 3.85811 2.53906 3.74144C2.64223 3.64005 2.75373 3.5475 2.8724 3.46477C2.9324 3.42977 3.03073 3.46477 3.11073 3.46477H3.10406Z"  stroke-width="0.3"/>
<path d="M5.10854 3.46671C5.18854 3.46671 5.28688 3.43671 5.34688 3.46671C5.45354 3.52838 5.61354 3.63338 5.61354 3.71505C5.60832 3.7835 5.58646 3.84965 5.54986 3.90775C5.51327 3.96584 5.46304 4.01411 5.40354 4.04838C5.19221 4.10002 4.97154 4.10002 4.76021 4.04838C4.70082 4.01574 4.65032 3.96906 4.61313 3.9124C4.57594 3.85575 4.5532 3.79085 4.54688 3.72338C4.54688 3.63504 4.69521 3.52004 4.80354 3.46504C4.88521 3.42171 5.00521 3.45671 5.10854 3.45671V3.46671Z"  stroke-width="0.3"/>
</svg>
