<svg width="13" height="13" viewBox="0 0 13 13" fill="none" xmlns="http://www.w3.org/2000/svg">
<g clip-path="url(#clip0_1434_4503)">
<path d="M13.0016 5.85V7.15C12.9787 7.20912 12.9595 7.26959 12.9441 7.33107C12.4778 10.0936 10.9142 11.8981 8.25327 12.7477C7.89734 12.8638 7.5212 12.918 7.15128 13H5.85501C5.79685 12.9753 5.73648 12.9562 5.67472 12.9427C4.18956 12.7423 2.81889 12.0392 1.7929 10.9514C0.766902 9.86354 0.148073 8.45734 0.0403337 6.96889C-0.0674053 5.48044 0.342508 4.0004 1.20123 2.77734C2.05996 1.55427 3.31519 0.662668 4.75614 0.252262C5.11673 0.154762 5.4882 0.0820238 5.85501 0H7.15128C7.21041 0.0235025 7.27119 0.0426415 7.33313 0.0572619C10.1044 0.516905 11.8996 2.08929 12.7467 4.74964C12.8648 5.10714 12.9192 5.48321 13.0016 5.85ZM0.657499 6.48762C0.656216 8.03372 1.26886 9.51762 2.36186 10.6158C3.45486 11.714 4.93957 12.3373 6.49227 12.35C8.05046 12.3531 9.54607 11.7397 10.6501 10.6448C11.7541 9.54987 12.376 8.06312 12.3791 6.51161C12.3822 4.96009 11.7662 3.4709 10.6665 2.37163C9.56692 1.27237 8.07378 0.653078 6.51558 0.65C4.96288 0.655715 3.47548 1.27273 2.37799 2.36639C1.28049 3.46005 0.662003 4.94157 0.657499 6.48762Z"  stroke-width="0.2"/>
<path d="M7.34789 8.93441V8.53977C7.34789 7.77215 7.34789 7.0035 7.34789 6.23382C7.34789 6.02025 7.45825 5.84382 7.65875 5.87167C7.73338 5.89484 7.80096 5.93633 7.85528 5.99231C7.9096 6.04829 7.94891 6.11697 7.9696 6.19203C7.99292 7.20882 7.99914 8.22715 7.9696 9.24239C7.94805 9.34772 7.90251 9.44672 7.83649 9.53177C7.77048 9.61683 7.68574 9.68566 7.58881 9.73298C7.4598 9.7887 7.1878 9.67108 7.06346 9.54572C6.62826 9.11084 6.23658 8.63108 5.81071 8.18691C5.69669 8.08423 5.55316 8.01981 5.40038 8.00275C5.17428 7.98801 4.94757 7.98492 4.72116 7.99346C4.58792 7.99469 4.45577 7.96955 4.33238 7.91949C4.20898 7.86943 4.09681 7.79545 4.00238 7.70185C3.90795 7.60826 3.83314 7.49691 3.78229 7.37428C3.73145 7.25165 3.70559 7.12018 3.70621 6.98751C3.69689 6.66251 3.69689 6.33751 3.70621 6.01251C3.7202 5.43525 4.14607 4.95858 4.71805 5.02203C5.43924 5.10096 5.92573 4.84251 6.32207 4.26989C6.5512 3.98214 6.79503 3.7063 7.05258 3.44346C7.19868 3.27167 7.3883 3.14167 7.5857 3.2562C7.76746 3.35654 7.90331 3.52286 7.96494 3.72048C8.00669 4.09668 8.01345 4.47591 7.98515 4.85334C7.98953 4.89735 7.98308 4.94177 7.96635 4.98274C7.94963 5.02372 7.92313 5.06002 7.88916 5.08852C7.85519 5.11701 7.81476 5.13684 7.77136 5.14629C7.72797 5.15574 7.68291 5.15452 7.6401 5.14275C7.57277 5.11512 7.51238 5.07306 7.46322 5.01956C7.41406 4.96607 7.37734 4.90245 7.35566 4.83322C7.32614 4.59859 7.32197 4.36148 7.34323 4.12596C7.04275 4.43417 6.75895 4.75808 6.49304 5.09632C6.16664 5.57144 5.75165 5.73703 5.17656 5.70144C4.36212 5.65036 4.35279 5.68751 4.35279 6.50001C4.35279 7.39763 4.37611 7.41775 5.28536 7.38215C5.32733 7.38215 5.37085 7.37286 5.45633 7.36203C5.45633 7.14072 5.45633 6.91632 5.45633 6.69346C5.45633 6.4706 5.52938 6.30036 5.77496 6.29263C5.82466 6.28537 5.87539 6.29079 5.92241 6.30837C5.96943 6.32596 6.01121 6.35514 6.04382 6.39318C6.07643 6.43121 6.09881 6.47687 6.10888 6.52587C6.11894 6.57487 6.11635 6.62561 6.10136 6.67334C5.97235 7.38215 6.2801 7.89286 6.78524 8.33703C6.98328 8.5261 7.17109 8.72551 7.34789 8.93441Z"  stroke-width="0.2"/>
</g>
<defs>
<clipPath id="clip0_1434_4503">
<rect width="13" height="13" fill="white"/>
</clipPath>
</defs>
</svg>
