<svg width="28" height="28" viewBox="0 0 28 28" fill="none" xmlns="http://www.w3.org/2000/svg">
<path d="M9.07633 18.425C8.40892 16.9662 7.77069 15.5365 7.09963 14.1288C6.97786 13.9323 6.78851 13.787 6.56716 13.7203C5.40374 13.3556 4.7728 12.6262 4.70716 11.4117C4.67051 10.8545 4.68883 10.295 4.76186 9.74136C4.80163 9.28039 4.99042 8.8449 5.29968 8.50077C5.60894 8.15663 6.02186 7.92256 6.47598 7.83395C6.92092 7.73183 7.03033 7.46924 7.20539 7.10454C7.78163 5.87183 8.27398 4.55159 9.08728 3.49395C11.7715 -0.00723088 16.3522 -0.098407 19.1532 3.31524C20.0467 4.40936 20.5828 5.79889 21.2138 7.08995C21.3888 7.45465 21.4873 7.7136 21.9432 7.81936C22.4575 7.92983 22.917 8.21673 23.242 8.63037C23.5671 9.044 23.7372 9.55831 23.7229 10.0842C23.7229 10.5656 23.7229 11.0507 23.7229 11.543C23.7202 12.0538 23.5441 12.5485 23.2233 12.9461C22.9026 13.3437 22.4564 13.6205 21.9578 13.7312C21.4873 13.8261 21.3633 14.0485 21.2283 14.4607C20.7278 16.2852 19.6987 17.9208 18.2706 19.1617C17.2646 20.054 15.9943 20.5926 14.6536 20.6954C13.3128 20.7981 11.9753 20.4593 10.8452 19.7307C10.5577 19.5693 10.218 19.5286 9.90057 19.6176C8.30316 20.1975 6.72398 20.8248 5.15939 21.4411C4.44722 21.6905 3.8152 22.1268 3.32949 22.7042C2.84378 23.2817 2.52225 23.9791 2.39857 24.7235C2.19068 25.8176 2.43868 26.0984 3.56563 26.0984H22.9716C23.7339 26.0984 24.4961 26.0984 25.2583 26.0984C26.0206 26.0984 26.3853 25.7921 26.2029 25.0262C26.0153 24.2987 25.7449 23.595 25.3969 22.9291C25.1818 22.4951 25.003 22.1158 25.4772 21.8095C25.5618 21.7494 25.6598 21.7109 25.7627 21.6973C25.8655 21.6836 25.9702 21.6952 26.0675 21.7312C26.1649 21.7671 26.252 21.8262 26.3214 21.9034C26.3907 21.9806 26.4402 22.0736 26.4655 22.1742C26.9126 23.155 27.262 24.1775 27.5086 25.2268C27.6946 26.2808 26.874 27.116 25.7945 27.2545C25.5171 27.2838 25.2381 27.2948 24.9593 27.2874H3.63127C1.47586 27.2874 0.673506 26.3063 1.11845 24.1983C1.28326 23.3062 1.67573 22.4718 2.25784 21.7759C2.83994 21.0801 3.59193 20.5464 4.44092 20.2267C5.77939 19.6796 7.1361 19.1872 8.48551 18.6694L9.07633 18.425ZM9.2441 5.18618C8.85386 6.36783 8.48916 7.33065 8.20469 8.31901C8.17287 8.54321 8.05574 8.74649 7.87773 8.88646C7.69971 9.02642 7.47454 9.09228 7.24916 9.0703C6.28269 9.0703 5.99457 9.40218 5.97633 10.365C5.97633 10.6714 5.97633 10.9777 5.97633 11.2804C6.00551 12.1047 6.31186 12.4985 7.11057 12.4876C7.90927 12.4767 8.13175 12.8158 8.27398 13.4869C8.55766 14.9136 9.20316 16.2436 10.1486 17.3491C12.2128 19.7671 15.2763 19.924 17.5849 17.7138C18.7981 16.541 19.624 15.0255 19.9519 13.3702C20.1087 12.6408 20.3822 12.3089 21.159 12.3454C21.3013 12.3647 21.4461 12.352 21.5828 12.3084C21.7196 12.2648 21.8449 12.1912 21.9497 12.093C22.0545 11.9949 22.1361 11.8746 22.1886 11.741C22.2411 11.6074 22.2631 11.4638 22.2532 11.3205C22.2532 10.5291 22.6179 9.59913 21.6259 9.0703C21.5376 9.01894 21.4361 8.99483 21.3341 9.00101C20.3202 9.13595 20.0905 8.50501 19.8753 7.68442C19.3465 5.72595 18.38 4.03736 16.6221 2.88124C16.334 2.73673 16.0367 2.61125 15.7322 2.50559C16.3142 3.63155 16.9533 4.72709 17.6469 5.78795C17.9132 6.20371 18.0116 6.61218 17.5229 6.9003C17.0342 7.18842 16.7935 6.83101 16.5528 6.46265C15.8234 5.30289 15.094 4.14556 14.3646 2.99065C13.7774 2.05701 13.4054 1.97677 12.3988 2.62595C13.0334 3.62889 13.6643 4.63912 14.3062 5.64207C14.5797 6.06877 14.8569 6.53195 14.3062 6.89301C13.7555 7.25407 13.482 6.7143 13.2303 6.33501C12.552 5.27007 11.8809 4.20148 11.1953 3.11101C11.0275 3.22771 10.9217 3.29336 10.8306 3.36995C10.0173 4.00454 10.0173 4.00454 10.5643 4.85795C10.8216 5.17166 11.0328 5.52042 11.1916 5.89371C11.2719 6.18913 11.1005 6.55383 11.0421 6.88571C10.743 6.7836 10.3637 6.76536 10.1668 6.56477C9.81787 6.13432 9.50902 5.67287 9.2441 5.18618Z" fill="#007C45" stroke="#007C45" stroke-width="0.5"/>
<path d="M22.389 21.3972C22.389 21.8859 22.389 22.2615 22.389 22.6372C22.389 23.0821 22.1519 23.4432 21.707 23.3411C21.5627 23.274 21.4347 23.1763 21.332 23.0548C21.2294 22.9332 21.1545 22.7907 21.1125 22.6372C21.0511 22.2266 21.0425 21.8099 21.087 21.3972C20.642 21.3972 20.2445 21.3972 19.8506 21.3972C19.4567 21.3972 19.0264 21.1857 19.1394 20.7407C19.2099 20.5886 19.3111 20.4527 19.4366 20.3416C19.5621 20.2305 19.7093 20.1466 19.8689 20.0952C20.2693 20.0303 20.6769 20.0217 21.0797 20.0697C21.0361 19.624 21.0447 19.1748 21.1052 18.7312C21.1672 18.4832 21.4918 18.1404 21.7033 18.1367C21.8478 18.1675 21.9823 18.2335 22.095 18.329C22.2076 18.4245 22.2948 18.5464 22.3489 18.6838C22.413 19.1381 22.4228 19.5984 22.378 20.0551C22.7993 20.0111 23.2244 20.0196 23.6436 20.0806C23.9208 20.1608 24.1286 20.4745 24.373 20.686C24.1286 20.9231 23.9244 21.2659 23.6436 21.368C23.2293 21.4413 22.8062 21.4512 22.389 21.3972Z" fill="#007C45" stroke="#007C45" stroke-width="0.5"/>
</svg>
