<svg width="14" height="14" viewBox="0 0 14 14" fill="none" xmlns="http://www.w3.org/2000/svg">
<path d="M9.69153 10.0263C9.69153 10.4213 9.67653 10.7796 9.70153 11.1346C9.70153 11.2213 9.83487 11.3363 9.93153 11.373C10.4315 11.568 10.9315 11.743 11.4315 11.9196C11.7299 12.0263 11.9582 12.1846 11.9065 12.5463C11.8615 12.8563 11.6282 13.023 11.2399 13.0246C8.38542 13.0246 5.52931 13.0246 2.67153 13.0246C2.30653 13.0246 2.06487 12.858 2.03153 12.5663C1.9932 12.233 2.17153 12.043 2.46487 11.9363C2.97653 11.7496 3.48653 11.558 4.0032 11.3863C4.04231 11.3793 4.07965 11.3646 4.11307 11.3431C4.14649 11.3216 4.17534 11.2937 4.19795 11.261C4.22056 11.2284 4.23649 11.1915 4.24483 11.1527C4.25317 11.1138 4.25374 11.0737 4.24653 11.0346C4.23153 10.6646 4.24653 10.2913 4.24653 9.9213C4.24653 9.47464 4.30653 9.4213 4.74653 9.4213H8.57987C9.4732 9.4213 10.3682 9.4213 11.2615 9.4213C11.9832 9.4213 12.4165 8.9913 12.4182 8.2763C12.4249 6.40741 12.4249 4.53852 12.4182 2.66964C12.4182 1.96797 11.9882 1.5313 11.2949 1.52964C8.42709 1.52964 5.55931 1.52964 2.69153 1.52964C1.95153 1.52964 1.52487 1.95797 1.52487 2.7063C1.52487 4.56297 1.52487 6.42019 1.52487 8.27797C1.52487 8.94464 1.8832 9.3363 2.5432 9.4163C2.75653 9.44297 2.91987 9.5163 2.9032 9.74964C2.88653 9.98297 2.6932 10.0496 2.4732 10.033C2.06237 10.0053 1.67634 9.82646 1.38952 9.53102C1.10271 9.23559 0.935403 8.84444 0.919866 8.43297C0.898199 6.45964 0.894866 4.48464 0.919866 2.5113C0.931533 1.59964 1.7032 0.921302 2.65487 0.917969C4.5582 0.917969 6.4632 0.917969 8.36653 0.917969C9.32987 0.917969 10.2949 0.917969 11.2582 0.917969C12.3082 0.917969 13.0249 1.6413 13.0282 2.6963C13.0282 4.55519 13.0282 6.41297 13.0282 8.26964C13.0282 9.31797 12.3032 10.0296 11.2482 10.0396C10.7382 10.0313 10.2315 10.0263 9.69153 10.0263ZM4.87153 11.2096H5.26487C6.11153 11.2096 6.95987 11.2096 7.8082 11.2096C8.01653 11.2096 8.19487 11.2546 8.2032 11.493C8.21153 11.7313 8.02653 11.8163 7.80487 11.8163H7.55987C6.65487 11.8163 5.7432 11.758 4.84487 11.838C4.2632 11.888 3.69653 12.1396 3.12487 12.3013L3.1532 12.3946H10.7265C10.3064 12.1802 9.87002 11.9991 9.42153 11.853C9.31473 11.8315 9.22037 11.7696 9.15823 11.6801C9.09609 11.5906 9.071 11.4805 9.0882 11.373C9.10487 10.9363 9.0882 10.498 9.0882 10.0513H4.87153V11.2096Z" fill="#2E2E2E"  stroke-width="0.3"/>
<path d="M6.9844 8.21182C7.22547 8.19507 7.46756 8.20009 7.70773 8.22682C7.82607 8.24848 7.91607 8.41015 8.0194 8.50848C7.91773 8.60848 7.82107 8.79015 7.7144 8.79682C7.2193 8.82682 6.72284 8.82682 6.22774 8.79682C6.15861 8.77679 6.09551 8.73998 6.04404 8.68968C5.99257 8.63938 5.95434 8.57713 5.93274 8.50848C5.8894 8.29848 6.0544 8.21182 6.26607 8.21182H6.9844Z" fill="#2E2E2E" stroke-width="0.3"/>
</svg>
