<svg width="36" height="36" viewBox="0 0 36 36" fill="none" xmlns="http://www.w3.org/2000/svg">
<rect x="0.5" y="0.5" width="35" height="35" rx="17.5" fill="white" stroke="#007C45"/>
<path d="M18.5443 25.8875H20.6085C21.1191 25.8875 21.5531 26.0334 21.564 26.6169C21.575 27.2005 21.1227 27.4047 20.583 27.4047H14.9446C14.4304 27.4047 13.9964 27.2406 14 26.6753C14.0037 26.11 14.4085 25.9021 14.9337 25.8985H16.976C16.976 25.5593 17.0161 25.2894 17.0161 25.0195C17.0161 23.0137 17.0161 21.0078 17.0161 19.0019C17.0161 18.7976 17.0161 18.5934 17.0161 18.3928C17.0453 17.8968 17.2933 17.4738 17.793 17.5759C17.9619 17.6495 18.1128 17.7591 18.235 17.897C18.3572 18.035 18.4478 18.198 18.5005 18.3746C18.5751 18.7997 18.5874 19.2334 18.537 19.662V25.8985L18.5443 25.8875Z" fill="#007C45"/>
<path d="M20.5516 10.2667C20.5516 10.8699 20.3125 11.4486 19.8866 11.8759C19.4607 12.3031 18.8828 12.5441 18.2795 12.5461C17.9803 12.551 17.6832 12.4959 17.4057 12.3843C17.1281 12.2726 16.8757 12.1065 16.6633 11.8958C16.4509 11.6851 16.2828 11.434 16.1689 11.1574C16.055 10.8807 15.9976 10.5841 16.0001 10.2849C15.9977 9.68133 16.2351 9.10152 16.6602 8.67302C17.0853 8.24452 17.6632 8.00244 18.2667 8.00002C18.8703 7.9976 19.4501 8.23505 19.8786 8.66013C20.3071 9.08521 20.5492 9.66309 20.5516 10.2667ZM19.1365 10.4563V10.0916C18.8448 9.89831 18.5676 9.58467 18.2503 9.53725C18.1492 9.51681 18.0445 9.52303 17.9465 9.55531C17.8486 9.58758 17.7607 9.64479 17.6915 9.72132C17.6223 9.79785 17.5743 9.89106 17.552 9.99179C17.5298 10.0925 17.5341 10.1973 17.5647 10.2958C17.6167 10.4569 17.7068 10.6031 17.8275 10.7218C17.9481 10.8406 18.0957 10.9284 18.2576 10.9778C18.5384 10.9924 18.8448 10.646 19.1365 10.4563Z" fill="#007C45"/>
<path d="M17.7822 15.8243H14.8938C14.3686 15.8243 13.9893 15.631 14.0002 15.0439C14.0112 14.4567 14.3649 14.3145 14.8609 14.3145H20.7145C21.2032 14.3145 21.5752 14.4932 21.5752 15.0439C21.5752 15.5946 21.1922 15.8243 20.6707 15.828L17.7822 15.8243Z" fill="#007C45"/>
</svg>
