<svg width="182" height="30" viewBox="0 0 182 30" fill="none" xmlns="http://www.w3.org/2000/svg">
<path d="M0 29.7208V0.408203H143.638V29.7208H0ZM29.8155 19.6329C29.586 19.9931 29.7342 20.3472 29.7952 20.6831C29.9619 21.4411 30.3797 22.1211 30.9815 22.6137C31.4986 23.1094 32.1855 23.3908 32.9031 23.4009C37.8581 23.4009 42.8125 23.4009 47.7661 23.4009C48.0007 23.4049 48.2349 23.3791 48.4629 23.324C49.6947 23.0069 50.7685 22.2537 51.4834 21.2052C51.8925 20.6473 52.1833 20.0121 52.338 19.3386C52.4927 18.665 52.5081 17.9671 52.3833 17.2875C52.2885 16.7661 52.1188 16.2611 51.8795 15.7879C51.3636 14.764 50.4942 14.0496 49.5395 13.4567C48.9419 13.0639 48.2424 12.8529 47.5264 12.8496C43.407 12.8698 39.2875 12.8597 35.168 12.8496C34.997 12.8511 34.8282 12.8108 34.6764 12.7322C34.0833 12.4064 33.8883 11.6334 34.002 11.0566C34.0627 10.7235 34.2377 10.4216 34.4971 10.2027C34.7564 9.98383 35.084 9.8615 35.4239 9.85662C36.9962 9.87078 38.5684 9.90924 40.1406 9.91328C43.8376 9.91328 47.5346 9.91328 51.2336 9.91328C51.3142 9.92755 51.3967 9.92755 51.4773 9.91328C51.5484 9.88495 51.6541 9.80603 51.652 9.75139C51.6699 9.33602 51.6413 8.91996 51.5667 8.51089C51.3765 7.86983 50.9902 7.30389 50.4617 6.89197C49.8613 6.35213 49.0786 6.05798 48.2699 6.06835C43.6812 6.1068 39.0904 6.12096 34.4997 6.13513C32.9336 6.13513 31.7716 6.90614 30.8251 8.0576C30.2072 8.80022 29.8147 9.70299 29.6936 10.66C29.5437 11.5858 29.665 12.5351 30.043 13.394C30.5163 14.4179 31.3288 15.1586 32.2449 15.79C32.9767 16.309 33.8555 16.5819 34.7536 16.5691C38.6781 16.5448 42.6026 16.5691 46.525 16.5508C46.7764 16.5426 47.0263 16.5935 47.2543 16.6993C47.4823 16.8051 47.6821 16.9629 47.8376 17.16C47.993 17.357 48.0998 17.5877 48.1491 17.8335C48.1984 18.0792 48.189 18.3331 48.1216 18.5745C47.8494 19.3415 47.4533 19.6227 46.6489 19.6227H29.8155V19.6329ZM122.285 13.6044C122.285 13.8068 122.285 13.9403 122.285 14.084C122.285 14.1427 122.319 14.1994 122.329 14.2581C122.499 15.1287 122.947 15.921 123.607 16.5164C123.804 16.7133 124.039 16.8685 124.297 16.9729C124.556 17.0772 124.833 17.1284 125.112 17.1235H131.446C131.519 17.1089 131.594 17.1161 131.663 17.1442C131.731 17.1723 131.79 17.22 131.832 17.2814C132.238 17.85 132.679 18.3903 133.107 18.9408C134.05 20.155 135.005 21.3692 135.935 22.5833C136.151 22.8997 136.444 23.1558 136.787 23.3276C137.13 23.4994 137.512 23.581 137.895 23.5648C139.102 23.5061 139.945 22.2879 139.689 21.0899C139.528 20.3391 139.063 19.7705 138.59 19.1998C138.157 18.6777 137.722 18.1556 137.314 17.6133C137.173 17.4518 137.093 17.2462 137.089 17.0322C137.084 16.8182 137.154 16.6092 137.288 16.4416C137.44 16.249 137.621 16.0816 137.826 15.9458C138.669 15.4067 139.282 14.5776 139.551 13.6166C139.835 12.715 139.914 11.7619 139.784 10.8259C139.675 10.1156 139.51 9.40939 139.088 8.81444C138.541 8.05325 137.841 7.41315 137.034 6.93447C136.315 6.4717 135.479 6.22187 134.623 6.21405C129.947 6.21405 125.271 6.21405 120.595 6.21405C120.323 6.21506 120.051 6.23603 119.782 6.27678C119.092 6.37698 118.458 6.70983 117.984 7.2198C117.372 7.86756 117.036 8.7263 117.046 9.61581C117.027 13.628 117.027 17.6402 117.046 21.6525C117.023 22.0071 117.127 22.3582 117.34 22.6437C117.552 22.9292 117.859 23.1308 118.206 23.2127C118.841 23.4149 119.524 23.4092 120.156 23.1965C120.415 23.0904 120.64 22.9163 120.808 22.6926C121.094 22.3304 121.127 21.867 121.129 21.4258C121.137 17.763 121.137 14.0995 121.129 10.4354V10.061C121.24 10.061 121.32 10.0509 121.399 10.0509H134.007C134.108 10.052 134.208 10.0684 134.304 10.0995C135.202 10.3726 135.799 11.6395 135.423 12.4914C135.343 12.6657 135.24 12.8284 135.116 12.9751C134.793 13.3596 134.436 13.6186 133.871 13.6166C130.134 13.5943 126.394 13.6044 122.654 13.6044H122.285ZM65.0302 13.481C65.0392 13.7383 65.0616 13.995 65.0972 14.25C65.2997 15.1674 65.8349 15.9781 66.6004 16.5266C67.0955 16.9213 67.7112 17.1356 68.3453 17.1337C71.6306 17.1134 74.9152 17.1134 78.1992 17.1337C78.7086 17.1466 79.212 17.0214 79.6556 16.7714C80.124 16.5111 80.5674 16.2083 80.98 15.8669C81.5434 15.3823 81.9993 14.7862 82.3186 14.1164C82.7777 13.1592 82.8021 12.1454 82.7249 11.1335C82.6685 10.5533 82.5261 9.98452 82.3024 9.44582C81.9063 8.45423 81.177 7.7075 80.3422 7.05387C79.5784 6.45891 78.7456 6.07442 77.7502 6.08656C76.5314 6.0987 75.3127 6.08656 74.1061 6.08656C70.3712 6.10275 66.637 6.12299 62.9034 6.14727C62.8122 6.14985 62.7216 6.16275 62.6333 6.18572C61.7232 6.4063 61.0427 6.95673 60.4801 7.67715C59.9985 8.29656 59.7524 9.06573 59.7854 9.84853C59.8118 13.8189 59.7996 17.7893 59.7955 21.7597C59.7825 22.0445 59.8523 22.3269 59.9964 22.5731C60.1405 22.8194 60.3529 23.019 60.6081 23.1479C60.8987 23.3058 61.2107 23.4209 61.5343 23.4899C61.807 23.5577 62.0916 23.5626 62.3665 23.5041C62.6413 23.4457 62.8992 23.3256 63.1203 23.1529C63.3415 22.9801 63.5202 22.7594 63.6428 22.5074C63.7654 22.2555 63.8286 21.979 63.8277 21.699C63.8277 17.9026 63.8277 14.1063 63.8277 10.3099V9.93959C63.917 9.93959 63.976 9.92745 64.0308 9.92745C68.3561 9.92745 72.6814 9.92745 77.0068 9.92745C77.1674 9.92218 77.3247 9.973 77.4516 10.0711C77.8519 10.4324 78.1568 10.8862 78.3393 11.3926C78.6054 12.281 77.7462 13.4769 76.8199 13.4769H65.0302V13.481ZM84.8273 21.4643C84.6871 22.296 85.6256 23.152 86.2716 23.2856C87.2263 23.4879 88.0286 23.2167 88.7335 22.5692C89.5704 21.7982 90.1128 20.8228 90.6409 19.8393C90.6699 19.757 90.7256 19.6867 90.7991 19.6394C90.8727 19.5921 90.96 19.5706 91.0472 19.5782C91.8089 19.5904 92.5727 19.5782 93.3344 19.5782C97.1126 19.5782 100.892 19.5782 104.673 19.5782C104.81 19.5731 104.944 19.6169 105.051 19.7017C105.208 19.8852 105.351 20.08 105.48 20.2845C106.119 21.181 106.656 22.1584 107.552 22.8525C107.917 23.1358 108.317 23.3847 108.785 23.3786C109.528 23.3786 110.206 23.1358 110.657 22.5004C111.108 21.865 111.183 21.0555 110.82 20.503C110.282 19.6936 109.664 18.9205 109.081 18.1313C108.248 16.9994 107.417 15.8675 106.587 14.7356L104.141 11.4371C103.288 10.2816 102.435 9.13013 101.59 7.97058C101.153 7.36348 100.743 6.75639 100.056 6.40225C99.1853 5.92679 98.1804 5.75377 97.2 5.9105C96.4139 6.04406 95.6826 6.31523 95.1504 6.93649C94.797 7.35134 94.4882 7.80464 94.1611 8.23972C92.9424 9.85864 91.7182 11.4816 90.4885 13.1086C89.5298 14.3768 88.5717 15.6443 87.6143 16.9111C86.95 17.7893 86.2858 18.6696 85.6297 19.5539C85.2051 20.1246 84.7826 20.6973 84.8273 21.4643Z" fill="#E42B24"/>
<path d="M166.147 30C163.843 29.9983 161.559 29.5644 159.415 28.7211C158.09 28.1934 156.859 27.4561 155.769 26.5375C154.13 25.1503 152.84 23.4005 152.001 21.4278C151.477 20.233 151.135 18.9672 150.985 17.6719C150.865 16.7853 150.806 15.8914 150.809 14.9967C150.828 12.9474 151.267 10.9237 152.099 9.04916C152.752 7.61769 153.614 6.29059 154.658 5.11114C156.167 3.41982 158.029 2.07663 160.112 1.17515C161.276 0.647459 162.515 0.300758 163.785 0.147134C164.301 0.0864242 164.821 0.0439276 165.339 0.0277384C167.067 -0.0789196 168.8 0.122557 170.458 0.622691C172.161 1.10594 173.765 1.88708 175.195 2.92965C176.221 3.68009 177.14 4.56498 177.929 5.56039C178.695 6.4935 179.349 7.51217 179.879 8.59587C180.433 9.75475 180.823 10.9848 181.037 12.2506C181.163 12.9771 181.223 13.7157 181.288 14.4523C181.466 16.4984 181.194 18.5585 180.49 20.4889C179.96 22.0574 179.141 23.5141 178.077 24.7851C176.934 26.1315 175.553 27.2577 174.002 28.1079C172.876 28.7264 171.674 29.1971 170.427 29.5083C169.452 29.7602 168.45 29.896 167.443 29.913C167.004 29.9191 166.568 29.9717 166.147 30ZM175.156 20.9968H167.38C167.38 21.5088 167.38 21.9965 167.38 22.4842C167.372 22.9015 167.396 23.3188 167.449 23.7328C167.559 24.3945 167.855 24.9733 168.505 25.2647C169.591 25.7304 170.812 25.7801 171.932 25.4043C173.231 25.0005 174.396 24.2528 175.302 23.241C175.887 22.6188 176.388 21.9236 176.793 21.1728C177.575 19.7276 178.036 18.1321 178.146 16.4942C178.273 15.0611 178.161 13.617 177.815 12.2202C177.553 11.1381 177.13 10.1012 176.56 9.14428C176.119 8.41702 175.624 7.72367 175.079 7.07004C173.874 5.69097 172.348 4.6272 170.634 3.97183C169.215 3.39329 167.698 3.09104 166.165 3.08142C165.27 3.09489 164.377 3.17539 163.494 3.32224C162.192 3.54362 160.948 4.0255 159.838 4.73879C158.607 5.48871 157.517 6.44756 156.618 7.5719C155.753 8.64324 155.066 9.84568 154.583 11.1335C154.202 12.1895 153.969 13.2926 153.89 14.4118C153.803 15.5173 153.859 16.6295 154.059 17.7205C154.293 19.0068 154.745 20.2441 155.395 21.3793C155.982 22.3911 156.675 23.3462 157.597 24.0545C158.96 25.1007 160.508 25.6856 162.286 25.4549C162.647 25.4252 162.994 25.3048 163.296 25.1048C163.598 24.9049 163.843 24.6319 164.01 24.3115C164.246 23.8376 164.361 23.3126 164.343 22.7837V20.9786H156.789C160.561 15.6908 163.632 10.0974 165.83 4.00218C168.061 10.148 171.355 15.6705 175.156 20.9968Z" fill="#007C45"/>
<path d="M29.8136 19.6328H46.6389C47.4514 19.6328 47.8394 19.3515 48.1116 18.5845C48.179 18.3431 48.1884 18.0892 48.139 17.8435C48.0897 17.5978 47.983 17.3671 47.8275 17.17C47.6721 16.973 47.4723 16.8152 47.2442 16.7094C47.0162 16.6035 46.7664 16.5527 46.5149 16.5609C42.5925 16.5751 38.668 16.5609 34.7435 16.5791C33.8454 16.5919 32.9666 16.319 32.2349 15.8C31.3188 15.1686 30.5062 14.428 30.0329 13.404C29.6549 12.5451 29.5336 11.5959 29.6836 10.6701C29.8046 9.71304 30.1971 8.81026 30.815 8.06764C31.7616 6.91618 32.9235 6.15124 34.4896 6.14517C39.0804 6.131 43.6711 6.11684 48.2598 6.07839C49.0685 6.06802 49.8513 6.36218 50.4516 6.90202C50.9801 7.31393 51.3664 7.87987 51.5566 8.52093C51.6312 8.93 51.6598 9.34606 51.642 9.76143C51.642 9.81607 51.5384 9.89499 51.4673 9.92332C51.3867 9.93759 51.3041 9.93759 51.2235 9.92332C47.5245 9.92332 43.8275 9.92332 40.1306 9.92332C38.5583 9.92332 36.9861 9.88083 35.4139 9.86666C35.074 9.87154 34.7464 9.99388 34.487 10.2128C34.2276 10.4317 34.0527 10.7335 33.992 11.0667C33.8782 11.6434 34.0732 12.4165 34.6663 12.7423C34.8181 12.8208 34.9869 12.8611 35.1579 12.8596C39.2774 12.8596 43.3969 12.8758 47.5164 12.8596C48.2323 12.863 48.9318 13.0739 49.5294 13.4667C50.4841 14.0597 51.3576 14.774 51.8695 15.798C52.1093 16.273 52.279 16.7801 52.3732 17.3036C52.498 17.9833 52.4826 18.6811 52.3279 19.3547C52.1732 20.0283 51.8825 20.6634 51.4734 21.2214C50.7584 22.2698 49.6847 23.023 48.4528 23.3401C48.2248 23.3952 47.9907 23.421 47.7561 23.417C42.801 23.417 37.8467 23.417 32.893 23.417C32.1755 23.4069 31.4886 23.1255 30.9714 22.6298C30.3697 22.1372 29.9518 21.4572 29.7851 20.6993C29.7323 20.3532 29.584 19.9991 29.8136 19.6328Z" fill="white"/>
<path d="M122.285 13.6042H122.652C126.392 13.6042 130.131 13.6042 133.869 13.6164C134.434 13.6164 134.791 13.3594 135.114 12.9749C135.238 12.8282 135.341 12.6655 135.421 12.4912C135.797 11.6393 135.2 10.3725 134.302 10.0993C134.206 10.0682 134.106 10.0518 134.005 10.0507H121.391C121.312 10.0507 121.232 10.0507 121.121 10.0608V10.4392C121.121 14.102 121.121 17.7655 121.121 21.4297C121.121 21.8708 121.086 22.3343 120.8 22.6965C120.632 22.9201 120.407 23.0943 120.148 23.2004C119.516 23.4131 118.833 23.4187 118.198 23.2166C117.85 23.1347 117.544 22.9331 117.331 22.6476C117.119 22.362 117.015 22.0109 117.038 21.6563C117.019 17.6428 117.019 13.6305 117.038 9.61967C117.028 8.73016 117.364 7.87142 117.976 7.22367C118.448 6.71301 119.081 6.37876 119.77 6.2766C120.039 6.23584 120.31 6.21487 120.582 6.21387C125.258 6.21387 129.934 6.21387 134.61 6.21387C135.466 6.22169 136.303 6.47152 137.022 6.93429C137.829 7.41297 138.528 8.05307 139.075 8.81426C139.498 9.42135 139.662 10.1155 139.772 10.8258C139.906 11.7608 139.83 12.7139 139.551 13.6164C139.286 14.5834 138.672 15.4188 137.826 15.9618C137.621 16.0976 137.44 16.265 137.288 16.4576C137.154 16.6255 137.084 16.8345 137.089 17.0485C137.095 17.2626 137.175 17.468 137.316 17.6293C137.722 18.1716 138.159 18.6937 138.592 19.2158C139.065 19.7865 139.53 20.3551 139.691 21.1059C139.947 22.3039 139.104 23.5221 137.897 23.5808C137.514 23.597 137.132 23.5154 136.789 23.3436C136.446 23.1719 136.153 22.9157 135.937 22.5994C135.007 21.373 134.052 20.171 133.109 18.9568C132.681 18.4064 132.236 17.866 131.834 17.2974C131.792 17.236 131.733 17.1883 131.665 17.1602C131.596 17.1321 131.521 17.1249 131.448 17.1395H125.108C124.829 17.1444 124.552 17.0932 124.293 16.9889C124.035 16.8845 123.8 16.7293 123.603 16.5325C122.943 15.937 122.495 15.1447 122.325 14.2741C122.315 14.2154 122.285 14.1587 122.28 14.1C122.285 13.9402 122.285 13.7965 122.285 13.6042Z" fill="white"/>
<path d="M97.9843 10.1211L102.311 15.9897H93.4688L97.9843 10.1211Z" fill="#E42B24"/>
<path d="M65.031 13.481H76.8268C77.753 13.481 78.6123 12.2851 78.3462 11.3967C78.1636 10.8903 77.8588 10.4365 77.4585 10.0752C77.3316 9.97712 77.1742 9.92629 77.0136 9.93156C72.6802 9.93156 68.3549 9.93156 64.0377 9.93156C63.9788 9.93156 63.9198 9.93156 63.8345 9.9437V10.3242C63.8345 14.1205 63.8345 17.9169 63.8345 21.7132C63.8355 21.9932 63.7722 22.2697 63.6497 22.5217C63.5271 22.7736 63.3484 22.9944 63.1272 23.1671C62.906 23.3398 62.6482 23.46 62.3733 23.5184C62.0985 23.5768 61.8139 23.5719 61.5412 23.5042C61.2175 23.4352 60.9055 23.32 60.6149 23.1622C60.3598 23.0332 60.1474 22.8336 60.0033 22.5874C59.8591 22.3411 59.7894 22.0587 59.8024 21.774C59.8024 17.8036 59.8186 13.8332 59.7922 9.86276C59.758 9.0814 60.0019 8.3131 60.4808 7.69341C61.0435 6.97299 61.724 6.42255 62.634 6.20198C62.7223 6.17901 62.813 6.16611 62.9042 6.16353C66.6377 6.14194 70.3719 6.12171 74.1068 6.10282C75.3256 6.10282 76.5444 6.10282 77.751 6.10282C78.7463 6.09068 79.5792 6.47517 80.3429 7.07012C81.1778 7.72376 81.9071 8.47049 82.3032 9.46208C82.5253 9.99566 82.6677 10.5588 82.7257 11.1336C82.8029 12.1454 82.7785 13.1573 82.3194 14.1165C82.0001 14.7862 81.5442 15.3824 80.9808 15.8669C80.5681 16.2083 80.1248 16.5111 79.6564 16.7715C79.215 17.0218 78.7138 17.1483 78.206 17.1378C74.9221 17.1216 71.6374 17.1216 68.3521 17.1378C67.718 17.1397 67.1023 16.9255 66.6073 16.5307C65.8418 15.9822 65.3065 15.1715 65.1041 14.2541C65.0663 13.9978 65.0419 13.7398 65.031 13.481Z" fill="white"/>
<path d="M84.8266 21.4645C84.7819 20.6975 85.2044 20.1248 85.6289 19.5542C86.285 18.6698 86.9493 17.7896 87.6135 16.9113C88.5696 15.6431 89.5277 14.3757 90.4878 13.1089C91.7066 11.4899 92.9308 9.86697 94.1604 8.23996C94.4874 7.80487 94.7962 7.35157 95.1497 6.93673C95.6819 6.31344 96.4131 6.0443 97.1992 5.91074C98.1796 5.754 99.1845 5.92702 100.055 6.40248C100.742 6.75662 101.152 7.37181 101.589 7.97081C102.434 9.13036 103.287 10.2818 104.14 11.4373L106.592 14.7561C107.425 15.888 108.254 17.0199 109.08 18.1518C109.663 18.941 110.281 19.706 110.819 20.5235C111.183 21.076 111.104 21.8955 110.657 22.5208C110.21 23.1462 109.527 23.391 108.784 23.3991C108.317 23.3991 107.916 23.1563 107.551 22.873C106.655 22.1789 106.129 21.2014 105.479 20.305C105.351 20.1004 105.207 19.9056 105.05 19.7221C104.943 19.6374 104.809 19.5936 104.672 19.5987C100.891 19.5987 97.1119 19.5987 93.3337 19.5987C92.5719 19.5987 91.8082 19.5987 91.0464 19.5987C90.9592 19.5911 90.872 19.6126 90.7984 19.6599C90.7248 19.7071 90.6692 19.7775 90.6402 19.8597C90.112 20.8432 89.5697 21.8186 88.7328 22.5897C88.0279 23.2372 87.2255 23.5145 86.2708 23.306C85.6249 23.1522 84.6864 22.2962 84.8266 21.4645ZM97.9833 10.1219L93.4677 15.9905H102.31L97.9833 10.1219Z" fill="white"/>
</svg>
