<svg width="12" height="3" viewBox="0 0 12 3" fill="none" xmlns="http://www.w3.org/2000/svg">
<path d="M1.82129 1.8418C1.66309 2 1.46973 2.0791 1.24121 2.0791C1.0127 2.0791 0.816406 2 0.652344 1.8418C0.494141 1.68359 0.415039 1.49023 0.415039 1.26172C0.415039 1.02734 0.494141 0.831055 0.652344 0.672852C0.816406 0.514648 1.0127 0.435547 1.24121 0.435547C1.46973 0.435547 1.66309 0.514648 1.82129 0.672852C1.97949 0.831055 2.05859 1.02734 2.05859 1.26172C2.05859 1.49023 1.97949 1.68359 1.82129 1.8418ZM6.30371 1.8418C6.14551 2 5.95215 2.0791 5.72363 2.0791C5.49512 2.0791 5.29883 2 5.13477 1.8418C4.97656 1.68359 4.89746 1.49023 4.89746 1.26172C4.89746 1.02734 4.97656 0.831055 5.13477 0.672852C5.29883 0.514648 5.49512 0.435547 5.72363 0.435547C5.95215 0.435547 6.14551 0.514648 6.30371 0.672852C6.46191 0.831055 6.54102 1.02734 6.54102 1.26172C6.54102 1.49023 6.46191 1.68359 6.30371 1.8418ZM10.7861 1.8418C10.6279 2 10.4346 2.0791 10.2061 2.0791C9.97754 2.0791 9.78125 2 9.61719 1.8418C9.45898 1.68359 9.37988 1.49023 9.37988 1.26172C9.37988 1.02734 9.45898 0.831055 9.61719 0.672852C9.78125 0.514648 9.97754 0.435547 10.2061 0.435547C10.4346 0.435547 10.6279 0.514648 10.7861 0.672852C10.9443 0.831055 11.0234 1.02734 11.0234 1.26172C11.0234 1.49023 10.9443 1.68359 10.7861 1.8418Z" fill="#2E2E2E"/>
</svg>
