<svg width="14" height="12" viewBox="0 0 14 12" fill="none" xmlns="http://www.w3.org/2000/svg">
<path d="M0 2.34311C0.0366667 2.19811 0.0666667 2.05144 0.108333 1.90644C0.209378 1.54538 0.418694 1.22398 0.708064 0.985569C0.997435 0.747159 1.35294 0.603202 1.72667 0.573105C1.83167 0.563105 1.935 0.558105 2.04 0.558105C5.33667 0.558105 8.63334 0.558105 11.93 0.558105C12.9717 0.558105 13.7083 1.13144 13.895 2.07144C13.922 2.23163 13.9331 2.39407 13.9283 2.55644C13.9283 4.92533 13.9283 7.29311 13.9283 9.65977C13.9283 10.9331 13.1683 11.6981 11.8933 11.6998C8.63111 11.6998 5.36945 11.6998 2.10833 11.6998C0.92 11.7098 0.296667 11.1998 0.0416667 10.0298C0.0316319 9.99655 0.0176428 9.96466 0 9.93477L0 2.34311ZM6.92167 10.9798C8.58167 10.9798 10.2411 10.9798 11.9 10.9798C12.72 10.9798 13.1917 10.5314 13.1933 9.72311C13.2 7.32088 13.2 4.91922 13.1933 2.51811C13.1933 1.72311 12.7317 1.26811 11.9333 1.26644C8.61556 1.26644 5.29722 1.26644 1.97833 1.26644C1.145 1.26644 0.696667 1.73977 0.696667 2.57311C0.696667 4.94088 0.696667 7.30811 0.696667 9.67477C0.696667 10.5264 1.155 10.9781 2.01333 10.9798C3.65 10.982 5.28611 10.982 6.92167 10.9798Z" fill="#2E2E2E"  stroke-width="0.3"/>
<path d="M7.02083 7.31599C6.71158 7.32633 6.4041 7.26524 6.12228 7.13748C5.84045 7.00972 5.59187 6.81873 5.39583 6.57932C4.29917 5.28765 3.22917 3.97932 2.13583 2.67932C1.96917 2.48932 1.94083 2.29599 2.13583 2.13265C2.33083 1.96932 2.51917 2.06099 2.6725 2.24599C3.71917 3.50265 4.7675 4.75876 5.8175 6.01432C6.54583 6.88932 7.38083 6.88432 8.1125 6.00265C9.09917 4.81599 10.0875 3.62987 11.0775 2.44432C11.1345 2.37129 11.1951 2.3012 11.2592 2.23432C11.4008 2.08599 11.5675 2.00599 11.7475 2.16099C11.7884 2.18954 11.8223 2.22689 11.8468 2.27029C11.8713 2.31369 11.8858 2.36204 11.8892 2.41177C11.8925 2.4615 11.8847 2.51136 11.8662 2.55766C11.8478 2.60396 11.8191 2.64553 11.7825 2.67932C11.5575 2.94599 11.3358 3.21432 11.1158 3.48265C10.2542 4.51599 9.3875 5.54599 8.5325 6.58599C8.3526 6.81457 8.12294 6.99913 7.861 7.12562C7.59906 7.25212 7.31172 7.31722 7.02083 7.31599Z" fill="#2E2E2E"  stroke-width="0.3"/>
<path d="M9.92554 6.45605C10.0413 6.52144 10.1497 6.59911 10.2489 6.68772C11.0289 7.60439 11.8005 8.52105 12.5822 9.44605C12.6219 9.48094 12.6531 9.52444 12.6734 9.57323C12.6937 9.62201 12.7026 9.6748 12.6994 9.72755C12.6962 9.7803 12.6809 9.83161 12.6548 9.87757C12.6288 9.92353 12.5925 9.96292 12.5489 9.99272C12.3472 10.1594 12.1872 10.0511 12.0489 9.88439C11.2739 8.97272 10.4989 8.06605 9.74554 7.14439C9.65863 7.01709 9.62183 6.86217 9.6422 6.70939C9.65387 6.62272 9.81054 6.55439 9.92554 6.45605Z" fill="#2E2E2E"  stroke-width="0.3"/>
<path d="M1.58606 10.0691C1.48106 9.99912 1.33273 9.96079 1.30773 9.87912C1.28278 9.81842 1.2712 9.75306 1.27379 9.68748C1.27638 9.62191 1.29307 9.55766 1.32273 9.49912C2.10106 8.54745 2.8944 7.60745 3.69106 6.66578C3.71673 6.62584 3.75131 6.59241 3.7921 6.56811C3.83288 6.54381 3.87875 6.52932 3.92609 6.52576C3.97343 6.52221 4.02095 6.52969 4.06491 6.54763C4.10886 6.56556 4.14806 6.59346 4.1794 6.62912C4.21604 6.65908 4.24589 6.6965 4.26695 6.73889C4.28801 6.78128 4.2998 6.82767 4.30153 6.87497C4.30327 6.92228 4.29491 6.96941 4.27701 7.01323C4.25911 7.05705 4.23209 7.09655 4.19773 7.12912C3.42773 8.04412 2.66273 8.96245 1.8894 9.87245C1.79789 9.95175 1.6958 10.0179 1.58606 10.0691Z" fill="#2E2E2E"  stroke-width="0.3"/>
</svg>
