<svg width="22" height="22" viewBox="0 0 22 22" fill="none" xmlns="http://www.w3.org/2000/svg">
<path d="M11.4835 1.00003C13.6083 1.0786 15.6467 1.86116 17.2782 3.22463C17.4703 3.37662 17.6171 3.57825 17.7028 3.80769C17.7003 3.89385 17.6752 3.97784 17.6301 4.05128C17.5849 4.12473 17.5214 4.18507 17.4457 4.2263C17.2139 4.26151 16.9773 4.20929 16.7819 4.07979C15.4584 3.02233 13.8774 2.33605 12.2011 2.0914C10.9749 1.92702 9.72793 2.01739 8.53822 2.35686C7.34852 2.69633 6.24164 3.2776 5.28681 4.06432C4.33197 4.85104 3.54971 5.8263 2.98895 6.9291C2.42818 8.03191 2.10096 9.23855 2.02775 10.4736C1.95455 11.7086 2.13693 12.9454 2.56349 14.1068C2.99005 15.2681 3.65162 16.3289 4.50682 17.2229C5.36203 18.117 6.39249 18.8249 7.53376 19.3026C8.67503 19.7802 9.90258 20.0172 11.1396 19.9989C16.9553 19.9361 21.2341 14.2639 19.6912 8.66953C19.6733 8.60973 19.6583 8.54993 19.6374 8.49013C19.5058 8.11338 19.4101 7.70075 19.9095 7.5662C20.4088 7.43165 20.5254 7.86521 20.6241 8.23897C21.4344 11.2709 20.9859 14.1085 19.2068 16.6949C17.9682 18.4931 16.1724 19.8339 14.0963 20.5105C12.0203 21.187 9.77926 21.1617 7.719 20.4384C5.64934 19.7104 3.87457 18.3255 2.66531 16.4949C1.45606 14.6643 0.878694 12.4884 1.02126 10.2991C1.36811 5.09641 5.80237 0.988066 11.4835 1.00003Z" fill="#007C45" stroke="#007C45"/>
<path d="M10.9356 13.5046C11.047 13.3035 11.1771 13.1133 11.3243 12.9365C14.129 10.1199 16.9396 7.30226 19.7562 4.48362C19.8878 4.35206 20.0074 4.16668 20.1689 4.11585C20.2655 4.07885 20.3689 4.06316 20.4721 4.06987C20.5754 4.07658 20.6759 4.10552 20.7669 4.15472C20.819 4.24422 20.8525 4.34332 20.8653 4.44609C20.8782 4.54886 20.8701 4.65316 20.8416 4.75273C20.8117 4.89326 20.6353 5.0039 20.5187 5.12051L11.417 14.2342C10.8578 14.7934 10.7502 14.7934 10.2 14.2342L6.01393 10.0481C5.75379 9.78799 5.46974 9.50992 5.83153 9.15111C6.19333 8.7923 6.46842 9.09729 6.72855 9.35444C7.92458 10.5505 9.1206 11.7465 10.2987 12.9425C10.443 13.123 10.5692 13.3173 10.6754 13.5226L10.9356 13.5046Z" fill="#007C45" stroke="#007C45"/>
</svg>
