<svg width="24" height="25" viewBox="0 0 24 25" fill="none" xmlns="http://www.w3.org/2000/svg">
<path d="M23.0007 3.99757C23.0007 4.79361 22.6855 5.55641 22.1254 6.11831L21.4353 6.81015L17.2125 2.57372L17.9066 1.87683C17.9066 1.87681 17.9067 1.8768 17.9067 1.87678C17.9067 1.87671 17.9068 1.87664 17.9069 1.87658C18.4669 1.31494 19.2256 1 20.016 1C20.8066 1 21.5654 1.31503 22.1254 1.87683L22.8192 1.1853L22.1254 1.87683C22.6855 2.43874 23.0007 3.20153 23.0007 3.99757Z" stroke="#007C45" stroke-width="2"/>
<path d="M3.1897 16.6416L14.3905 5.40383L18.6134 9.64028L7.40849 20.8831C6.89808 21.3951 6.25888 21.758 5.55942 21.9333L5.55923 21.9334L1.0004 23.0773L2.14175 18.4992L2.1418 18.499C2.31699 17.7957 2.67933 17.1538 3.18967 16.6417C3.18968 16.6417 3.18969 16.6417 3.1897 16.6416Z" stroke="#007C45" stroke-width="2"/>
</svg>
