<svg width="12" height="12" viewBox="0 0 12 12" fill="none" xmlns="http://www.w3.org/2000/svg">
<g clip-path="url(#clip0_1434_4434)">
<path d="M0 5.78255C0.0324484 5.54351 0.0560472 5.30306 0.100295 5.06543C0.234569 4.27297 0.665005 3.55446 1.31124 3.04405C1.95747 2.53364 2.77532 2.26623 3.61209 2.29174C3.73451 2.29174 3.85546 2.30871 4.00295 2.32003C3.96608 2.27194 3.94395 2.24082 3.91888 2.21253C3.50972 1.77311 3.2885 1.20183 3.29941 0.612814C3.29499 0.283252 3.4823 0.0908901 3.83481 0.0979623C4.77876 0.113521 5.52065 0.469957 5.9705 1.30023C5.9882 1.33417 6.00885 1.36953 6.02802 1.40489C6.54425 0.85751 7.19027 0.484101 7.83923 0.119179C7.95141 0.0487945 8.0806 0.0073142 8.21436 -0.00126246C8.34811 -0.00983911 8.48192 0.0147772 8.60287 0.0702128C8.72382 0.125648 8.82783 0.210033 8.90488 0.315231C8.98194 0.420428 9.02943 0.542889 9.04277 0.670805C9.0619 0.81488 9.03811 0.961204 8.97417 1.09286C8.91022 1.22452 8.80873 1.33613 8.68142 1.41479C8.45133 1.58028 8.19617 1.71324 7.9587 1.87165C7.65192 2.07675 7.35103 2.29598 7.0472 2.5039L7.07965 2.54634C7.10777 2.54161 7.13541 2.53451 7.16224 2.52512C8.70059 1.808 11.2832 2.43884 11.8584 4.7882C11.9142 5.08254 11.9536 5.37952 11.9764 5.67788C11.9764 5.73163 11.9956 5.78537 12.0059 5.83912V6.24648C11.9838 6.44025 11.9631 6.63403 11.941 6.82922C11.7846 8.26393 11.1192 9.60361 10.056 10.6241C9.80865 10.8737 9.54191 11.1049 9.25811 11.3158C8.33628 11.9876 7.33038 12.1814 6.23599 11.7401C6.17103 11.7107 6.09971 11.6965 6.0279 11.6987C5.95609 11.7009 5.88586 11.7195 5.82301 11.7528C4.96608 12.1432 4.12832 12.0357 3.31563 11.6383C3.16814 11.5647 3.02065 11.477 2.87316 11.3907C2.69322 11.2833 2.64749 11.1687 2.72566 11.047C2.80383 10.9254 2.92625 10.9311 3.11062 11.0258C3.40046 11.187 3.70157 11.3288 4.0118 11.4502C4.29972 11.5541 4.60835 11.5944 4.91477 11.5682C5.22119 11.542 5.51751 11.4499 5.78171 11.2988C5.84283 11.2618 5.91267 11.24 5.98482 11.2356C6.05697 11.2311 6.12913 11.2441 6.19469 11.2734C6.58997 11.4148 6.98525 11.5718 7.4233 11.5562C8.02056 11.527 8.59098 11.3092 9.04572 10.9367C10.4115 9.866 11.2817 8.51805 11.4867 6.81649C11.5923 6.13172 11.5552 5.43367 11.3776 4.76274C10.9808 3.43318 9.79941 2.6411 8.30678 2.68919C7.71681 2.70758 7.21829 2.94945 6.74041 3.25496C6.70206 3.27901 6.66519 3.32144 6.62389 3.3271C6.54277 3.337 6.4351 3.35539 6.38053 3.3172C6.34996 3.28997 6.32664 3.25611 6.31253 3.21846C6.29841 3.1808 6.29391 3.14045 6.29941 3.10079C6.4292 2.73021 6.55162 2.34549 6.88938 2.09938C7.33186 1.78679 7.78614 1.49825 8.23451 1.19697C8.3326 1.13911 8.42277 1.06974 8.50295 0.990466C8.56387 0.936692 8.60044 0.862201 8.60485 0.78291C8.60926 0.70362 8.58116 0.62582 8.52655 0.566138C8.50266 0.531676 8.47168 0.502254 8.43552 0.479671C8.39936 0.457088 8.35878 0.441821 8.31625 0.434803C8.27372 0.427785 8.23015 0.429165 8.1882 0.438858C8.14625 0.44855 8.1068 0.466352 8.07227 0.491173C7.72566 0.694851 7.38791 0.915501 7.0472 1.12484C6.7148 1.32218 6.43582 1.59215 6.23304 1.91267C6.16962 2.01593 6.09439 2.11211 5.93805 2.09372C5.78171 2.07533 5.76106 1.96076 5.72271 1.85468C5.52655 1.32851 5.23009 0.880141 4.65339 0.68495C4.35208 0.599953 4.04636 0.530079 3.73746 0.475614C3.74779 0.667976 3.73746 0.800933 3.76401 0.93106C3.9115 1.7882 4.4469 2.29174 5.31416 2.48693C5.4292 2.5138 5.54277 2.53926 5.65634 2.57038C5.68838 2.57589 5.71881 2.58794 5.74557 2.60572C5.77233 2.62349 5.79479 2.64657 5.81144 2.6734C5.82808 2.70023 5.83852 2.73017 5.84204 2.7612C5.84557 2.79224 5.84209 2.82363 5.83186 2.85327C5.79794 2.99471 5.76106 3.12767 5.71829 3.26204C5.71303 3.29617 5.69905 3.32853 5.6776 3.35623C5.65615 3.38393 5.62789 3.40612 5.59534 3.42082C5.56278 3.43552 5.52695 3.44227 5.49101 3.44048C5.45508 3.43869 5.42017 3.42841 5.38938 3.41055C5.32329 3.38621 5.2612 3.35286 5.20501 3.31154C4.27729 2.57462 3.24484 2.54634 2.19469 3.01734C1.14454 3.48834 0.634218 4.32144 0.495575 5.39358C0.38938 6.20829 0.544248 6.99188 0.79056 7.76557C0.803835 7.80942 0.820059 7.85185 0.833333 7.8957C0.847254 7.9232 0.854397 7.9534 0.854211 7.98396C0.854024 8.01453 0.846514 8.04465 0.832259 8.07199C0.818004 8.09933 0.797386 8.12316 0.771999 8.14164C0.746611 8.16013 0.717133 8.17277 0.685841 8.17859C0.656997 8.18882 0.626123 8.19269 0.595505 8.18993C0.564887 8.18716 0.53531 8.17783 0.508964 8.16262C0.482619 8.1474 0.46018 8.1267 0.443309 8.10204C0.426438 8.07738 0.415568 8.0494 0.411504 8.02017C0.317109 7.69909 0.213864 7.37943 0.146018 7.05412C0.0855457 6.75567 0.0678466 6.45016 0.0280236 6.14747C0.0223168 6.11545 0.0129179 6.08414 0 6.05412L0 5.78255Z"  stroke-width="0.5"/>
<path d="M7.68602 7.98172C7.69868 8.22791 7.61067 8.46912 7.44072 8.65403C7.27076 8.83895 7.03227 8.95296 6.77599 8.97182C6.71522 8.98605 6.6517 8.98546 6.59123 8.9701C6.53076 8.95474 6.47526 8.92511 6.4298 8.8839C6.38434 8.8427 6.35036 8.79123 6.33096 8.7342C6.31157 8.67716 6.30737 8.61638 6.31876 8.55739C6.33181 8.36173 6.40945 8.17512 6.54044 8.02459C6.67143 7.87405 6.84898 7.76739 7.04738 7.72005C7.1322 7.69713 7.21839 7.67918 7.30549 7.6663C7.6049 7.61821 7.68749 7.68752 7.68602 7.98172ZM7.22584 8.11043C6.98985 8.18823 6.82319 8.28865 6.77156 8.53476C7.0105 8.4697 7.17864 8.37352 7.22584 8.11043Z"  stroke-width="0.5"/>
<path d="M4.80595 7.66657C5.05006 7.65835 5.28791 7.74162 5.46908 7.89872C5.65025 8.05583 5.7605 8.27442 5.77645 8.50815C5.7783 8.57113 5.76632 8.63378 5.7413 8.69204C5.71628 8.7503 5.67878 8.80287 5.63123 8.84634C5.58367 8.88981 5.52712 8.92322 5.46524 8.94439C5.40337 8.96556 5.33754 8.97404 5.27203 8.96926C4.75875 8.91975 4.32513 8.32569 4.45197 7.8462C4.48737 7.71183 4.57144 7.66799 4.80595 7.66657ZM5.3325 8.51523C5.2676 8.25073 5.15551 8.14323 4.92542 8.11636C4.92425 8.1686 4.93387 8.22056 4.95373 8.26922C4.97359 8.31788 5.00329 8.3623 5.04114 8.3999C5.07898 8.4375 5.1242 8.46755 5.17421 8.48832C5.22422 8.50908 5.27801 8.52015 5.3325 8.52088V8.51523Z"  stroke-width="0.5"/>
</g>
<defs>
<clipPath id="clip0_1434_4434">
<rect width="12" height="12" fill="white"/>
</clipPath>
</defs>
</svg>
