<svg width="11" height="12" viewBox="0 0 11 12" fill="none" xmlns="http://www.w3.org/2000/svg">
<g clip-path="url(#clip0_1434_4427)">
<path d="M4.03965 2.92811C3.82461 2.22066 3.62677 1.57689 3.44441 0.931349C3.4127 0.774385 3.39999 0.613994 3.40656 0.453825C3.40656 0.197377 3.50806 0.0134415 3.77128 -0.000707364C3.82853 -0.00826698 3.88671 -0.00238632 3.94143 0.0164926C3.99616 0.0353715 4.04601 0.0667575 4.08724 0.108291C4.12847 0.149825 4.16 0.200427 4.17947 0.256292C4.19894 0.312157 4.20584 0.371832 4.19965 0.430833C4.21713 1.07569 4.40895 1.7028 4.7536 2.24189C5.06843 1.88817 5.35917 1.57158 5.6568 1.255C5.84621 1.04819 6.08005 0.88979 6.33963 0.792444C6.59921 0.695097 6.87733 0.661507 7.15179 0.694355C7.78488 0.747414 8.4197 0.775711 9.04419 0.805777C9.28554 0.80508 9.52465 0.853318 9.74784 0.947731C9.97103 1.04214 10.1739 1.18088 10.3449 1.35599C10.5159 1.53111 10.6516 1.73917 10.7443 1.96827C10.8369 2.19736 10.8848 2.443 10.885 2.69111C10.9142 3.35611 10.9486 4.01934 10.9951 4.68256C11.0225 4.94726 10.9919 5.2149 10.9056 5.46586C10.8193 5.71682 10.6794 5.94471 10.4962 6.13282C8.78728 7.90143 7.07552 9.66119 5.36089 11.4121C4.57641 12.2098 3.4857 12.1868 2.69777 11.3856C1.9993 10.6781 1.30485 9.96362 0.614413 9.24203C-0.211361 8.37718 -0.202759 7.28242 0.628176 6.42641C1.78942 5.2326 2.95239 4.04233 4.03965 2.92811ZM4.6177 3.51352C3.48398 4.67903 2.29865 5.87991 1.13568 7.10556C0.714194 7.54948 0.750321 8.18441 1.17869 8.6301C1.88404 9.36112 2.5957 10.0927 3.31366 10.8249C3.40807 10.9337 3.52377 11.0207 3.65318 11.0803C3.7826 11.1399 3.9228 11.1707 4.0646 11.1707C4.2064 11.1707 4.3466 11.1399 4.47602 11.0803C4.60543 11.0207 4.72113 10.9337 4.81554 10.8249C6.49977 9.08993 8.18401 7.35316 9.84416 5.5934C10.0415 5.3672 10.1569 5.07801 10.171 4.77453C10.1882 4.08654 10.1297 3.39502 10.0816 2.70703C10.0775 2.43197 9.96811 2.16965 9.77713 1.97695C9.58615 1.78426 9.32898 1.67674 9.06139 1.6777C8.40421 1.63349 7.74187 1.58043 7.08814 1.56451C6.85933 1.56451 6.57203 1.58573 6.41203 1.72545C6.01572 2.11823 5.63904 2.53144 5.28348 2.96348L6.2572 3.61256C6.39427 3.42431 6.54494 3.24694 6.70794 3.08197C6.94563 2.89158 7.23447 2.78083 7.53539 2.76469C7.83631 2.74856 8.13478 2.82783 8.39045 2.99178C8.63291 3.17325 8.81592 3.42626 8.91518 3.71721C9.01443 4.00815 9.02522 4.32326 8.94613 4.62066C8.85359 4.90548 8.67811 5.15417 8.44348 5.33303C8.20885 5.51189 7.9264 5.61227 7.63442 5.62057C7.34243 5.62887 7.05502 5.54469 6.81114 5.37943C6.56725 5.21418 6.37867 4.97584 6.27096 4.69671C6.24263 4.58221 6.18292 4.47847 6.09893 4.39782C5.61895 4.09716 5.13208 3.81772 4.6177 3.51352ZM7.60769 3.61256C7.53017 3.60521 7.45201 3.61449 7.37815 3.6398C7.3043 3.66511 7.23636 3.7059 7.17863 3.7596C7.1209 3.81329 7.07464 3.87872 7.04278 3.95174C7.01091 4.02476 6.99414 4.10379 6.99352 4.18382C6.99478 4.35651 7.05917 4.5224 7.1739 4.64855C7.28864 4.77469 7.44533 4.85186 7.61285 4.86473C7.77514 4.85426 7.92716 4.77946 8.0369 4.65609C8.14664 4.53272 8.20554 4.37039 8.20121 4.20327C8.20432 4.12317 8.19095 4.0433 8.16196 3.96887C8.13297 3.89445 8.08903 3.82716 8.03301 3.7714C7.97698 3.71564 7.91013 3.67267 7.83684 3.6453C7.76355 3.61792 7.68546 3.60677 7.60769 3.61256Z"  stroke-width="0.3"/>
<path d="M4.84296 7.50854C4.84296 8.17353 4.84296 8.83853 4.84296 9.50353C4.84296 9.78827 4.76382 10.004 4.4576 10.0129C4.15137 10.0217 4.04127 9.80419 4.04299 9.49999C4.04987 8.19476 4.04987 6.88953 4.04299 5.58429C4.04299 5.28363 4.1204 5.05371 4.44383 5.05371C4.76726 5.05371 4.84812 5.28894 4.84468 5.58429C4.8378 6.22807 4.84296 6.8683 4.84296 7.50854Z"  stroke-width="0.3"/>
<path d="M3.06149 7.09613C3.15955 7.24823 3.31439 7.38971 3.34019 7.5542C3.35176 7.60871 3.34972 7.66534 3.33427 7.71882C3.31882 7.77231 3.29045 7.82091 3.25182 7.86009C3.21319 7.89928 3.16554 7.92778 3.11331 7.94295C3.06109 7.95811 3.00597 7.95945 2.95311 7.94683C2.86603 7.91843 2.78721 7.86813 2.72383 7.80049C2.66044 7.73286 2.61448 7.65002 2.59011 7.5595C2.58151 7.40917 2.78107 7.24823 2.88774 7.09082L3.06149 7.09613Z"  stroke-width="0.3"/>
<path d="M6.02287 7.09357C6.12437 7.2439 6.28608 7.38362 6.31189 7.54633C6.32177 7.60221 6.31842 7.65971 6.30212 7.71398C6.28582 7.76825 6.25705 7.81768 6.21823 7.8581C6.17942 7.89852 6.13171 7.92874 6.07914 7.9462C6.02657 7.96366 5.97068 7.96785 5.91621 7.95841C5.86205 7.96443 5.80728 7.95714 5.7564 7.93715C5.70552 7.91716 5.65998 7.88504 5.62353 7.84343C5.58709 7.80181 5.56077 7.7519 5.54675 7.69779C5.53273 7.64368 5.53141 7.58692 5.54289 7.53218C5.57385 7.37124 5.74245 7.23682 5.84911 7.0918L6.02287 7.09357Z"  stroke-width="0.3"/>
</g>
<defs>
<clipPath id="clip0_1434_4427">
<rect width="11" height="12" fill="white"/>
</clipPath>
</defs>
</svg>
