<svg width="16" height="14" viewBox="0 0 16 14" fill="none" xmlns="http://www.w3.org/2000/svg">
<g clip-path="url(#clip0_1434_4422)">
<path d="M3.54857 13.2262C4.72069 12.6037 5.82366 12.0522 6.8793 11.448C7.09268 11.3038 7.34433 11.2267 7.60187 11.2267C7.85941 11.2267 8.11106 11.3038 8.32444 11.448C9.2818 12.0122 10.2865 12.4982 11.2693 13.0187C11.3785 13.0769 11.4877 13.1297 11.6643 13.2189C11.566 12.48 11.4823 11.8175 11.3858 11.1568C11.2893 10.4542 11.2038 9.74985 11.0855 9.05094C11.0522 8.88447 11.0643 8.71209 11.1207 8.55195C11.1771 8.3918 11.2756 8.24981 11.4058 8.14091C12.3013 7.27819 13.1859 6.40638 14.0759 5.54002C14.1742 5.44356 14.2888 5.35802 14.3962 5.27793L14.3653 5.17601L13.3114 5.02494C13.1859 5.00674 13.0275 5.02494 12.9474 4.9576C12.8266 4.83139 12.7226 4.69007 12.638 4.53716C12.7818 4.43706 12.9347 4.24049 13.0694 4.25141C13.6122 4.28899 14.151 4.37179 14.6801 4.49894C15.2262 4.63727 15.339 5.3107 14.8967 5.75297C14.196 6.44824 13.4807 7.13259 12.7727 7.82604C12.6007 8.01202 12.4184 8.18823 12.2267 8.35386C12.0693 8.46335 11.9498 8.61895 11.8846 8.79922C11.8194 8.97949 11.8117 9.17555 11.8627 9.36036C12.0647 10.5197 12.203 11.6901 12.3668 12.8567C12.3796 12.9441 12.3978 13.0387 12.4032 13.1188C12.4469 13.8159 11.91 14.1872 11.2875 13.8705C10.3174 13.3754 9.3364 12.8968 8.4027 12.3398C7.83848 12.0031 7.39256 12.0013 6.82834 12.3398C5.89646 12.9022 4.91726 13.3827 3.9508 13.8832C3.39568 14.169 2.81326 13.9215 2.79688 13.3718C2.7973 12.9167 2.8554 12.4636 2.96978 12.0231C2.9989 11.8994 3.24279 11.8247 3.38658 11.7283C3.48486 11.8739 3.65777 12.0177 3.66505 12.1687C3.65166 12.5236 3.61273 12.877 3.54857 13.2262Z"  stroke-width="0.3"/>
<path d="M7.6045 0.728828C7.0876 1.65524 6.61074 2.51614 6.12478 3.37157C5.29118 4.83673 5.66976 4.54552 3.94979 4.79305C2.92509 4.94048 1.89675 5.06606 0.786504 5.21167C0.913909 5.34817 0.997632 5.44646 1.09046 5.53564C1.97501 6.38925 2.85411 7.24833 3.74776 8.09284C4.04989 8.37677 4.2046 8.68073 4.11178 9.10298C4.04989 9.39965 4.03533 9.70543 3.98983 10.013C3.95707 10.2351 3.84241 10.408 3.59306 10.377C3.34371 10.3461 3.22904 10.1714 3.23814 9.92202C3.23759 9.86066 3.24493 9.79949 3.25998 9.74001C3.49477 9.05384 3.20538 8.597 2.68666 8.14927C1.87127 7.4449 1.12686 6.66227 0.347866 5.91968C0.0985162 5.66487 -0.0780309 5.39367 0.0348136 5.0333C0.147658 4.67293 0.426129 4.51276 0.806525 4.46362C2.03689 4.30527 3.26362 4.11234 4.49399 3.95582C4.64816 3.94906 4.79753 3.90019 4.92588 3.81452C5.05423 3.72885 5.15665 3.60964 5.22202 3.46986C5.74438 2.48702 6.31407 1.52602 6.86009 0.557741C7.02753 0.257429 7.2241 0.0117188 7.61178 0.0117188C7.99945 0.0117188 8.19056 0.248328 8.35437 0.54682C8.90949 1.55514 9.48099 2.5489 10.0325 3.56814C10.1653 3.81021 10.3055 3.97584 10.6094 3.95946C10.7743 3.94109 10.9411 3.96815 11.0918 4.03772C11.2337 4.12326 11.4157 4.30345 11.4066 4.43086C11.3799 4.51309 11.3323 4.58699 11.2685 4.64536C11.2047 4.70373 11.1269 4.74458 11.0426 4.76393C10.3874 4.73663 9.76856 4.69841 9.40455 3.94126C8.88401 2.86741 8.23788 1.84635 7.6045 0.728828Z"  stroke-width="0.3"/>
</g>
<defs>
<clipPath id="clip0_1434_4422">
<rect width="15.1667" height="14" fill="white"/>
</clipPath>
</defs>
</svg>
