<svg width="82" height="70" viewBox="0 0 82 70" fill="none" xmlns="http://www.w3.org/2000/svg">
<path d="M69.0075 69.3786H12.7514C5.87562 69.3786 0.25 63.753 0.25 56.8772V13.1225C0.25 6.24671 5.87562 0.621094 12.7514 0.621094H69.0075C75.8833 0.621094 81.5089 6.24671 81.5089 13.1225V56.8772C81.5089 63.753 75.8833 69.3786 69.0075 69.3786Z" fill="#007C45" fill-opacity="0.5"/>
<path d="M12.7514 69.3782H69.0075C75.8833 69.3782 81.5089 63.7526 81.5089 56.8768V34.9994L69.0075 22.498L36.504 52.5013L22.1274 38.1248L0.25 58.1269C1.1876 64.3776 6.18815 69.3782 12.7514 69.3782Z" fill="#007C45"/>
<path d="M15.8757 25.6234C19.3278 25.6234 22.1264 22.8249 22.1264 19.3728C22.1264 15.9206 19.3278 13.1221 15.8757 13.1221C12.4235 13.1221 9.625 15.9206 9.625 19.3728C9.625 22.8249 12.4235 25.6234 15.8757 25.6234Z" fill="#F3FFFA"/>
</svg>
