<svg width="21" height="20" viewBox="0 0 21 20" fill="none" xmlns="http://www.w3.org/2000/svg">
<g clip-path="url(#clip0_1434_21531)">
<path d="M11.5716 0C12.0471 0.0952381 12.525 0.185714 12.998 0.290476C14.3582 0.608856 15.6398 1.17495 16.7713 1.95714C17.0983 2.17381 17.3147 2.44762 17.0581 2.78571C16.8015 3.12381 16.4594 2.97381 16.1449 2.7619C10.3516 -1.12857 2.60865 1.77619 1.21251 8.36429C0.163512 13.3071 3.97964 18.3119 9.26234 18.9119C10.6289 19.0806 12.018 18.9653 13.3327 18.5741C14.6475 18.183 15.8564 17.5253 16.8752 16.6469C17.894 15.7684 18.6984 14.6904 19.2322 13.4878C19.766 12.2852 20.0164 10.9869 19.9661 9.68333C19.9141 8.33111 19.5464 7.00656 18.8894 5.80476C18.8265 5.68571 18.7586 5.56667 18.6932 5.45C18.5272 5.14286 18.5373 4.85476 18.8894 4.68571C18.956 4.6502 19.0302 4.6295 19.1065 4.62519C19.1828 4.62088 19.2591 4.63307 19.3297 4.66084C19.4002 4.68861 19.4632 4.73122 19.5137 4.78545C19.5643 4.83968 19.6011 4.90409 19.6215 4.97381C20.0441 6.00952 20.5824 7.02857 20.8038 8.10476C21.0861 9.44095 21.0751 10.8178 20.7716 12.1498C20.4681 13.4818 19.8784 14.7405 19.0393 15.8478C18.2002 16.955 17.1295 17.8872 15.8938 18.5863C14.658 19.2854 13.2836 19.7367 11.8559 19.9119C11.7585 19.933 11.6633 19.9625 11.5716 20H9.46107C9.36664 19.9628 9.26902 19.9333 9.16926 19.9119C4.7016 19.1976 1.78354 16.7881 0.405007 12.6952C0.218855 12.1429 0.133325 11.5643 0 11V9C0.0393428 8.909 0.0704793 8.81502 0.0930762 8.71905C0.36016 6.7619 1.23237 4.9231 2.60014 3.43367C3.96791 1.94423 5.77023 0.870587 7.78067 0.347619C8.33158 0.204762 8.90009 0.109524 9.46107 0H11.5716Z" fill="#2E2E2E"/>
<path d="M11.0379 10.4333C11.0379 10.9904 11.0379 11.5214 11.0379 12.0547C11.0379 12.4095 10.8895 12.6404 10.4895 12.6309C10.0896 12.6214 9.98643 12.3928 9.98643 12.0618C9.98643 11.4642 9.98643 10.8714 9.98643 10.2642C9.98643 9.54993 10.0242 9.5166 10.7688 9.42136C11.1631 9.37504 11.5355 9.22393 11.8428 8.98553C12.1501 8.74714 12.3798 8.43122 12.5052 8.07436C12.6307 7.7175 12.6467 7.33431 12.5515 6.96918C12.4563 6.60404 12.2538 6.2719 11.9674 6.01124C11.681 5.75057 11.3224 5.57203 10.9331 5.49632C10.5439 5.4206 10.14 5.4508 9.76819 5.58341C9.39636 5.71603 9.07184 5.94563 8.83221 6.24563C8.59257 6.54563 8.44764 6.90375 8.4142 7.2785C8.39659 7.42374 8.4142 7.63088 8.32364 7.69993C8.16767 7.82136 7.85826 7.96898 7.76015 7.90469C7.65632 7.83641 7.56899 7.74804 7.50394 7.64543C7.43889 7.54281 7.39761 7.4283 7.38281 7.30945C7.38964 6.76465 7.56285 6.23334 7.88154 5.77961C8.20024 5.32588 8.65081 4.96911 9.17893 4.75231C9.69931 4.49788 10.2877 4.39511 10.8697 4.45698C11.4518 4.51885 12.0014 4.74258 12.4492 5.09993C12.8957 5.41155 13.2422 5.83412 13.4505 6.32079C13.6587 6.80746 13.7205 7.3392 13.629 7.85707C13.4479 9.04755 12.7058 9.83564 11.5335 10.2666C11.4505 10.2975 11.365 10.3118 11.282 10.338C11.1989 10.3642 11.1511 10.3904 11.0379 10.4333Z" fill="#2E2E2E"/>
<path d="M11.0328 15.0877C11.0717 15.3177 11.0657 15.5526 11.0152 15.7806C10.9296 15.9663 10.6806 16.2044 10.512 16.2044C10.3964 16.1797 10.2894 16.1273 10.2013 16.0523C10.1132 15.9772 10.047 15.882 10.0089 15.7758C9.93973 15.3138 9.93973 14.8449 10.0089 14.3829C10.0454 14.2757 10.1082 14.1782 10.1922 14.0983C10.2761 14.0185 10.3788 13.9585 10.4919 13.9234C10.8089 13.8496 11.0101 14.071 11.0302 14.3996C11.0453 14.6377 11.0302 14.8758 11.0302 15.0996L11.0328 15.0877Z" fill="#2E2E2E"/>
</g>
<defs>
<clipPath id="clip0_1434_21531">
<rect width="21" height="20" fill="white"/>
</clipPath>
</defs>
</svg>
