<svg width="14" height="14" viewBox="0 0 14 14" fill="none" xmlns="http://www.w3.org/2000/svg">
<g clip-path="url(#clip0_2038_12622)">
<path d="M7.66667 0C7.98167 0.0666667 8.29833 0.13 8.61167 0.203333C9.51285 0.426199 10.362 0.822467 11.1117 1.37C11.3283 1.52167 11.4717 1.71333 11.3017 1.95C11.1317 2.18667 10.905 2.08167 10.6967 1.93333C6.85833 -0.79 1.72833 1.24333 0.803333 5.855C0.108333 9.315 2.63667 12.8183 6.13667 13.2383C7.0421 13.3564 7.96239 13.2757 8.83346 13.0019C9.70454 12.7281 10.5055 12.2677 11.1805 11.6528C11.8555 11.0379 12.3884 10.2833 12.7421 9.44144C13.0957 8.59962 13.2617 7.69082 13.2283 6.77833C13.1939 5.83178 12.9502 4.90459 12.515 4.06333C12.4733 3.98 12.4283 3.89667 12.385 3.815C12.275 3.6 12.2817 3.39833 12.515 3.28C12.5591 3.25514 12.6083 3.24065 12.6588 3.23763C12.7094 3.23462 12.7599 3.24315 12.8067 3.26259C12.8534 3.28203 12.8951 3.31186 12.9286 3.34982C12.9621 3.38777 12.9865 3.43287 13 3.48167C13.28 4.20667 13.6367 4.92 13.7833 5.67333C13.9704 6.60866 13.9631 7.57246 13.762 8.50486C13.5609 9.43727 13.1702 10.3184 12.6143 11.0934C12.0583 11.8685 11.349 12.521 10.5303 13.0104C9.71153 13.4998 8.80093 13.8157 7.855 13.9383C7.79047 13.9531 7.72743 13.9737 7.66667 14H6.26833C6.20577 13.9739 6.14109 13.9533 6.075 13.9383C3.115 13.4383 1.18167 11.7517 0.268333 8.88667C0.145 8.5 0.0883333 8.095 0 7.7V6.3C0.0260662 6.2363 0.0466953 6.17051 0.0616667 6.10333C0.238621 4.73333 0.816497 3.44617 1.7227 2.40357C2.6289 1.36096 3.823 0.609411 5.155 0.243333C5.52 0.143333 5.89667 0.0766667 6.26833 0H7.66667Z" fill="#2E2E2E" stroke="#2E2E2E" stroke-width="0.3"/>
<path d="M7.31229 7.30309C7.31229 7.69309 7.31229 8.06475 7.31229 8.43809C7.31229 8.68642 7.21396 8.84809 6.94896 8.84142C6.68396 8.83475 6.61563 8.67475 6.61563 8.44309C6.61563 8.02475 6.61563 7.60975 6.61563 7.18475C6.61563 6.68475 6.64063 6.66142 7.13396 6.59475C7.39522 6.56233 7.64194 6.45655 7.84555 6.28968C8.04917 6.1228 8.20134 5.90166 8.28444 5.65186C8.36754 5.40205 8.37818 5.13382 8.31511 4.87823C8.25204 4.62263 8.11785 4.39014 7.92808 4.20767C7.73831 4.0252 7.50073 3.90023 7.24286 3.84723C6.98499 3.79423 6.71738 3.81536 6.47103 3.90819C6.22468 4.00102 6.00967 4.16175 5.85091 4.37175C5.69214 4.58175 5.59612 4.83243 5.57396 5.09475C5.56229 5.19642 5.57396 5.34142 5.51396 5.38975C5.41063 5.47475 5.20563 5.57809 5.14063 5.53309C5.07183 5.48529 5.01398 5.42343 4.97088 5.3516C4.92778 5.27977 4.90043 5.19961 4.89062 5.11642C4.89515 4.73506 5.0099 4.36314 5.22105 4.04553C5.4322 3.72792 5.73073 3.47818 6.08063 3.32642C6.4254 3.14832 6.81521 3.07638 7.20084 3.11969C7.58647 3.163 7.95062 3.31961 8.24729 3.56975C8.54311 3.78789 8.77273 4.08369 8.91071 4.42436C9.04868 4.76502 9.08961 5.13725 9.02896 5.49975C8.90896 6.33309 8.41729 6.88475 7.64063 7.18642C7.58563 7.20809 7.52896 7.21809 7.47396 7.23642C7.41896 7.25475 7.38729 7.27309 7.31229 7.30309Z" fill="#2E2E2E" stroke="#2E2E2E" stroke-width="0.3"/>
<path d="M7.31037 10.5613C7.33617 10.7223 7.33222 10.8867 7.2987 11.0463C7.24204 11.1763 7.07704 11.343 6.96537 11.343C6.88876 11.3257 6.81788 11.289 6.75951 11.2365C6.70114 11.184 6.65725 11.1173 6.63204 11.043C6.5862 10.7196 6.5862 10.3913 6.63204 10.068C6.65623 9.9929 6.69784 9.92464 6.75345 9.86873C6.80906 9.81283 6.87711 9.77087 6.95204 9.74629C7.16204 9.69462 7.29537 9.84962 7.3087 10.0796C7.3187 10.2463 7.3087 10.413 7.3087 10.5696L7.31037 10.5613Z" fill="#2E2E2E" stroke="#2E2E2E" stroke-width="0.3"/>
</g>
<defs>
<clipPath id="clip0_2038_12622">
<rect width="13.9133" height="14" fill="white"/>
</clipPath>
</defs>
</svg>
