<svg width="14" height="15" viewBox="0 0 14 15" fill="none" xmlns="http://www.w3.org/2000/svg">
<g clip-path="url(#clip0_424_6367)">
<path d="M3.69821 3.88001C3.69821 3.42835 3.69821 3.02501 3.69821 2.62168C3.69821 1.78835 4.14487 1.34668 4.96487 1.34668H11.7899C12.7599 1.34668 13.2032 1.79501 13.2032 2.78001V12.6333C13.2032 12.7133 13.2032 12.8 13.2032 12.8767C13.1749 13.5517 12.7249 14.0117 12.0499 14.0133C9.43821 14.0133 6.82821 14.0133 4.21654 14.0133C4.10672 14.025 3.9964 13.9965 3.90601 13.9331C3.81561 13.8696 3.75126 13.7756 3.72487 13.6683C2.66376 10.5717 1.60098 7.47224 0.536539 4.37001C0.421539 4.03668 0.536539 3.88501 0.929872 3.88168C1.69654 3.88168 2.46154 3.88168 3.22821 3.88168L3.69821 3.88001ZM4.33321 7.69001C4.33321 9.35668 4.33321 11.0283 4.33321 12.705C4.33321 13.2433 4.47321 13.385 5.01321 13.385H11.8332C12.3582 13.385 12.4999 13.245 12.4999 12.73C12.4999 9.37668 12.4999 6.02224 12.4999 2.66668C12.4999 2.12001 12.3549 1.98001 11.7932 1.98001H5.03654C4.48321 1.98001 4.33321 2.12668 4.33321 2.67668C4.33321 4.34668 4.33321 6.01779 4.33321 7.69001ZM1.24154 4.53668L3.66654 11.6017L3.71487 11.58V4.53668H1.24154Z" fill="#2E2E2E"/>
<path d="M6.68667 4.54688C7.12667 4.54688 7.56667 4.54688 8.00667 4.54688C8.3 4.54688 8.42833 4.67354 8.42667 4.96521C8.42667 5.74021 8.42667 6.51688 8.42667 7.29854C8.42667 7.59021 8.29333 7.72021 8.005 7.72021C7.13667 7.72021 6.26833 7.72021 5.4 7.72021C5.12167 7.71188 5 7.58688 5 7.31354C5.00667 6.52576 5.00667 5.73799 5 4.95021C5 4.67188 5.11667 4.54688 5.395 4.55021C5.83333 4.55188 6.25833 4.54688 6.68667 4.54688ZM7.775 7.05521V5.20021H5.66667V7.05521H7.775Z" fill="#2E2E2E"/>
<path d="M8.50034 8.34639H11.4537C11.6803 8.34639 11.9303 8.34639 11.9203 8.66306C11.9103 8.97973 11.667 8.97973 11.4387 8.97973H5.46034C5.24034 8.97973 5.02034 8.96139 5.01367 8.66973C5.01367 8.34806 5.24534 8.34473 5.47534 8.34473L8.50034 8.34639Z" fill="#2E2E2E"/>
<path d="M8.46031 10.882C9.46864 10.882 10.4786 10.882 11.487 10.882C11.7136 10.882 11.927 10.9053 11.922 11.197C11.917 11.4886 11.7036 11.5153 11.477 11.5153C9.46031 11.5153 7.44364 11.5153 5.42697 11.5153C5.21031 11.5153 5.02031 11.4753 5.01197 11.2103C5.00364 10.9453 5.20197 10.877 5.43531 10.877C6.44364 10.8836 7.45197 10.882 8.46031 10.882Z" fill="#2E2E2E"/>
<path d="M8.56464 3.59134C7.79964 3.59134 7.03464 3.59134 6.26964 3.59134C6.04464 3.59134 5.83298 3.57134 5.83798 3.27467C5.84298 2.97801 6.05298 2.95801 6.27631 2.95801H10.8996C11.1196 2.95801 11.3446 2.97134 11.353 3.25967C11.3613 3.54801 11.1296 3.59301 10.893 3.59301C10.118 3.58967 9.34131 3.59134 8.56464 3.59134Z" fill="#2E2E2E"/>
<path d="M10.5237 4.54828C10.8831 4.53271 11.2431 4.53716 11.602 4.56162C11.6785 4.57697 11.7502 4.61061 11.8108 4.65966C11.8715 4.70871 11.9194 4.77171 11.9504 4.84328C11.9954 5.05328 11.8304 5.17662 11.617 5.17662H9.41537C9.19371 5.17662 9.02204 5.07162 9.07371 4.85162C9.10198 4.78012 9.14701 4.71645 9.20502 4.66599C9.26303 4.61552 9.33231 4.57972 9.40704 4.56162C9.77875 4.53697 10.1515 4.53252 10.5237 4.54828V4.54828Z" fill="#2E2E2E"/>
<path d="M10.4813 6.44014H9.43629C9.22462 6.44014 9.06296 6.37514 9.05962 6.13514C9.05629 5.89514 9.20796 5.81348 9.42129 5.81348C10.1413 5.81348 10.8613 5.81348 11.588 5.81348C11.803 5.81348 11.968 5.89681 11.9696 6.12348C11.9713 6.35014 11.803 6.45681 11.568 6.44681C11.2013 6.43681 10.8413 6.44014 10.4813 6.44014Z" fill="#2E2E2E"/>
</g>
<defs>
<clipPath id="clip0_424_6367">
<rect width="14" height="14" fill="white" transform="translate(0 0.646484)"/>
</clipPath>
</defs>
</svg>
