<svg width="10" height="13" viewBox="0 0 10 13" fill="none" xmlns="http://www.w3.org/2000/svg">
<path d="M5.44618 0L5.96475 0.128452C7.99903 0.619048 9.53475 2.64024 9.56189 4.88893C9.57761 6.32202 9.56189 7.75512 9.56189 9.18821C9.56189 9.41726 9.51332 9.62 9.27618 9.62619C9.03903 9.63238 8.96475 9.42345 8.96475 9.17893C8.96475 7.8 8.96475 6.42107 8.96475 5.04214C8.9685 4.44824 8.8604 3.85976 8.64706 3.31266C8.43372 2.76556 8.11962 2.27135 7.72396 1.86025C7.3283 1.44914 6.85939 1.12978 6.34592 0.921693C5.83244 0.713602 5.28519 0.621153 4.73761 0.65C2.73761 0.730476 0.987606 2.55667 0.924749 4.73571C0.87332 6.54333 0.911892 8.35559 0.911892 10.1648C0.917197 10.2054 0.926291 10.2453 0.939034 10.2839C1.57332 10.2839 2.20618 10.2839 2.84046 10.2839C3.21475 10.2839 3.29618 10.3721 3.29761 10.7745C3.29761 11.3456 3.29761 11.9167 3.29761 12.4877C3.29761 12.8282 3.20189 12.9335 2.89046 12.9335C2.16475 12.9335 1.43903 12.9335 0.711891 12.9335C0.440463 12.9335 0.311891 12.8081 0.311891 12.5079C0.311891 9.93262 0.289034 7.35583 0.324749 4.78214C0.356177 2.45917 2.07761 0.407024 4.20475 0.0634524C4.28004 0.046694 4.35444 0.0255119 4.42761 0L5.44618 0ZM2.68618 10.9525H0.93332V12.2711H2.68618V10.9525Z" fill="#2E2E2E" stroke="black" stroke-width="0.2"/>
<path d="M7.17733 10.2834C7.83876 10.2834 8.46305 10.2834 9.08876 10.2834C9.48876 10.2834 9.56448 10.3623 9.56591 10.7832C9.56876 11.3321 9.57019 11.8821 9.57019 12.433C9.57019 12.8431 9.48876 12.9329 9.12305 12.9344C8.42686 12.9344 7.73067 12.9344 7.03448 12.9344C6.6659 12.9344 6.5859 12.8431 6.5859 12.4346C6.5859 9.96611 6.5859 7.49765 6.5859 5.0292C6.59436 4.69726 6.51351 4.36982 6.3532 4.08679C6.19289 3.80375 5.96005 3.57734 5.68305 3.43515C5.42384 3.27631 5.1273 3.20337 4.83018 3.22538C4.53307 3.24739 4.24846 3.36338 4.01162 3.55896C3.78551 3.72009 3.60118 3.94117 3.47617 4.20121C3.35115 4.46125 3.28959 4.7516 3.29733 5.04468C3.29733 6.38595 3.29733 7.73341 3.29733 9.08706C3.29733 9.18301 3.3259 9.30682 3.28162 9.37027C3.20733 9.47861 3.09019 9.60706 2.98305 9.6148C2.8759 9.62254 2.79162 9.47087 2.71305 9.37337C2.68305 9.33468 2.70019 9.24801 2.70019 9.18456C2.70019 7.78242 2.69162 6.38182 2.70019 4.98123C2.70107 4.39789 2.89675 3.8346 3.25111 3.39537C3.60546 2.95614 4.09455 2.67065 4.62805 2.59162C5.16155 2.51258 5.70343 2.64534 6.15363 2.96538C6.60382 3.28541 6.93192 3.77111 7.07733 4.33277C7.14359 4.60282 7.17579 4.88134 7.17305 5.16075C7.18162 6.77801 7.17305 8.39373 7.17305 10.011L7.17733 10.2834ZM8.95448 10.9519H7.20019V12.2721H8.95448V10.9519Z" fill="#2E2E2E" stroke="black" stroke-width="0.2"/>
</svg>
