<svg width="21" height="22" viewBox="0 0 21 22" fill="none" xmlns="http://www.w3.org/2000/svg">
<path d="M8.33524 2.78277C4.92024 2.79527 2.11774 5.64778 2.22274 9.00028C2.2383 9.83365 2.42331 10.6551 2.7665 11.4147C3.10969 12.1743 3.60389 12.8561 4.219 13.4186C4.83411 13.9811 5.55726 14.4125 6.34442 14.6865C7.13159 14.9606 7.9663 15.0716 8.79774 15.0128C9.09179 14.9861 9.38398 14.9419 9.67274 14.8803C9.92274 14.8278 10.1727 14.7578 10.2502 15.1078C10.3277 15.4578 10.2502 15.7203 9.86024 15.7678C9.24412 15.873 8.62028 15.9265 7.99524 15.9278C4.39524 15.7653 1.58774 13.0003 1.28024 9.36528C1.00024 5.95528 3.37024 2.80277 6.81024 2.02527C11.7027 0.920274 16.2102 5.32027 15.2502 10.2503C15.1877 10.5703 15.0977 10.9153 14.6752 10.8353C14.2527 10.7553 14.3077 10.4128 14.3752 10.0853C15.1627 6.32277 12.2302 2.77027 8.33524 2.78277Z" fill="#2E2E2E"/>
<path d="M13.6168 8.91802C13.6114 9.9507 13.2999 10.9586 12.7217 11.8143C12.1436 12.67 11.3247 13.335 10.3686 13.7254C9.41259 14.1158 8.36225 14.214 7.3504 14.0076C6.33854 13.8011 5.41061 13.2993 4.68389 12.5656C3.95716 11.8319 3.46428 10.8992 3.26753 9.88544C3.07079 8.87166 3.17902 7.8223 3.57854 6.87002C3.97806 5.91774 4.65094 5.10528 5.51212 4.53535C6.3733 3.96541 7.38412 3.66358 8.4168 3.66802C9.10306 3.67096 9.782 3.80913 10.4148 4.07463C11.0476 4.34013 11.6219 4.72774 12.1049 5.21531C12.5878 5.70289 12.9699 6.28086 13.2293 6.9162C13.4888 7.55153 13.6204 8.23177 13.6168 8.91802ZM4.08181 8.91802C4.09875 10.0603 4.56212 11.1507 5.37275 11.9557C6.18338 12.7607 7.27689 13.2165 8.41931 13.2255C9.55462 13.2062 10.6381 12.7468 11.4412 11.9442C12.2443 11.1415 12.7044 10.0583 12.7243 8.92302C12.7159 7.77889 12.2594 6.68364 11.4527 5.87226C10.646 5.06088 9.55337 4.59803 8.40931 4.58302C7.26484 4.59216 6.1698 5.05068 5.36028 5.85973C4.55076 6.66878 4.09161 7.76356 4.08181 8.90802V8.91802Z" fill="#2E2E2E"/>
<path d="M17.9212 20.0849C17.5637 19.8974 17.1362 19.7824 16.8562 19.5124C15.2087 17.9124 13.6062 16.2749 11.9687 14.6499C11.7362 14.4174 11.5812 14.1674 11.8787 13.8999C12.1762 13.6324 12.4162 13.8249 12.6287 14.0474L17.2162 18.6249L17.4662 18.8749C17.5279 18.9376 17.6014 18.9876 17.6824 19.0219C17.7634 19.0562 17.8504 19.0742 17.9384 19.0749C18.0264 19.0756 18.1136 19.059 18.1952 19.026C18.2767 18.9929 18.351 18.9442 18.4137 18.8824C18.4764 18.8207 18.5263 18.7473 18.5606 18.6662C18.595 18.5852 18.613 18.4982 18.6137 18.4102C18.6144 18.3223 18.5977 18.235 18.5647 18.1534C18.5317 18.0719 18.4829 17.9976 18.4212 17.9349C17.9987 17.4999 17.5487 17.0524 17.1062 16.6099C15.9395 15.4433 14.7729 14.2766 13.6062 13.1099C13.3562 12.8599 13.1637 12.6099 13.4812 12.3124C13.7987 12.0149 14.0162 12.2449 14.2312 12.4674C15.8162 14.0599 17.4087 15.6449 18.9812 17.2349C19.2362 17.4648 19.4126 17.7691 19.4852 18.1046C19.5579 18.4402 19.5233 18.7901 19.3862 19.1049C19.1862 19.6324 18.6062 19.9799 17.9212 20.0849Z" fill="#2E2E2E"/>
</svg>
