<svg width="16" height="16" viewBox="0 0 16 16" fill="none" xmlns="http://www.w3.org/2000/svg">
<path d="M6.26371 11.538C6.60715 11.4724 6.95488 11.4319 7.30419 11.4166C7.51133 11.4166 7.84466 11.5261 7.89228 11.6546C8.00419 11.9761 7.71609 12.0951 7.43752 12.1594C4.19704 12.9046 0.723234 10.6166 0.108949 7.32846C-0.172775 5.84868 0.0962325 4.31696 0.865315 3.02172C1.6344 1.72649 2.85049 0.757128 4.28458 0.296169C5.71868 -0.164791 7.27182 -0.0855364 8.65155 0.519007C10.0313 1.12355 11.1424 2.21167 11.7756 3.57846C12.3093 4.72988 12.4708 6.01907 12.2375 7.26655C12.1851 7.56179 12.1494 7.91893 11.7256 7.83798C11.3018 7.75703 11.4137 7.39751 11.4661 7.11179C11.7255 5.77995 11.4652 4.39934 10.7386 3.25342C10.012 2.1075 8.87423 1.28324 7.55895 0.949887C5.36133 0.416553 3.45895 1.01417 2.02323 2.75465C0.623235 4.44989 0.38752 6.39751 1.30895 8.39275C2.24228 10.438 3.9399 11.4166 6.26371 11.538Z" fill="#B7B7B7"/>
<path d="M6.1818 10.7094C5.27675 10.7113 4.39145 10.4449 3.63773 9.94385C2.88401 9.44283 2.29568 8.72968 1.94706 7.89447C1.59844 7.05926 1.50517 6.13947 1.67903 5.25128C1.85288 4.36309 2.28607 3.54635 2.92387 2.90423C3.56167 2.26211 4.37547 1.82341 5.26247 1.64356C6.14947 1.46371 7.06987 1.55077 7.90741 1.89375C8.74495 2.23672 9.46206 2.82022 9.96815 3.57054C10.4742 4.32086 10.7466 5.20434 10.7508 6.10938C10.7559 6.71226 10.6414 7.31015 10.4139 7.8685C10.1865 8.42685 9.8506 8.93458 9.42572 9.36233C9.00085 9.79008 8.49541 10.1294 7.9386 10.3606C7.3818 10.5918 6.7847 10.7103 6.1818 10.7094ZM6.16513 9.91176C6.91171 9.91174 7.64158 9.69069 8.26272 9.27649C8.88386 8.86228 9.36847 8.27346 9.65546 7.58424C9.94245 6.89502 10.019 6.13627 9.87539 5.40363C9.7318 4.67099 9.37453 3.99725 8.8486 3.46735C8.32268 2.93746 7.65166 2.57512 6.92012 2.42602C6.18858 2.27692 5.42927 2.34774 4.73791 2.62953C4.04655 2.91133 3.4541 3.39149 3.03523 4.0095C2.61635 4.6275 2.38982 5.35568 2.38418 6.10224C2.38415 7.10766 2.78159 8.07232 3.48984 8.78593C4.1981 9.49954 5.15974 9.90422 6.16513 9.91176Z" fill="#B7B7B7"/>
<path d="M14.4367 15.9758C14.1272 15.8044 13.7629 15.6901 13.5176 15.4544C12.0891 14.0663 10.6938 12.6473 9.2843 11.2425C9.07716 11.0354 8.91764 10.8092 9.17954 10.5615C9.44145 10.3139 9.65573 10.4973 9.85811 10.6973L14.0105 14.8496C14.2748 15.1139 14.5819 15.2401 14.8867 14.9663C15.1914 14.6925 15.1248 14.3425 14.8867 14.0306C14.8008 13.9296 14.7085 13.8341 14.6105 13.7449L11.2772 10.4115C11.0772 10.2115 10.8795 10.0115 10.6772 9.81392C10.4748 9.61631 10.3176 9.39012 10.5772 9.13535C10.8367 8.88059 11.0272 9.04488 11.2176 9.23774C12.6462 10.6663 14.0748 12.0711 15.4748 13.4973C15.6882 13.6989 15.8305 13.9643 15.8803 14.2536C15.9301 14.543 15.8847 14.8407 15.751 15.102C15.501 15.6306 15.0724 15.8854 14.4367 15.9758Z" fill="#B7B7B7"/>
</svg>
