<svg width="14" height="14" viewBox="0 0 14 14" fill="none" xmlns="http://www.w3.org/2000/svg">
<g clip-path="url(#clip0_1557_12505)">
<path d="M5.77637 12.6368L3.75464 11.8127C3.63911 11.9552 3.46775 12.1785 3.28483 12.3903C3.06918 12.6464 2.84775 12.6541 2.60707 12.4038C2.25664 12.036 1.89272 11.6779 1.52881 11.3217C1.33627 11.1291 1.31316 10.9366 1.52881 10.7325C1.74446 10.5284 1.96397 10.3339 2.14496 10.1683L1.29391 8.19667C1.04552 8.19667 0.750928 8.19667 0.458259 8.19667C0.165589 8.19667 0 8.05034 0 7.72879C0.0102691 7.21533 0.0102691 6.70573 0 6.19997C0 5.87457 0.155962 5.68973 0.460184 5.74556C1.14372 5.86687 1.4903 5.60116 1.61546 4.92917C1.66997 4.67924 1.77551 4.44326 1.92546 4.23601C2.118 3.95296 2.118 3.74116 1.83111 3.53707C1.72328 3.45812 1.63856 3.34452 1.54229 3.25595C1.29391 3.03067 1.28235 2.81117 1.52881 2.57049C1.88502 2.22583 2.23738 1.8754 2.58011 1.51919C2.81694 1.27273 3.11154 1.26117 3.27713 1.50571C3.71998 2.16036 4.1898 2.08334 4.77321 1.71558C5.07165 1.52304 5.44327 1.46335 5.8091 1.33049C5.8091 1.04167 5.8091 0.752854 5.8091 0.454408C5.8091 0.155962 5.95351 0 6.27314 0C6.78339 0.00962729 7.29171 0.00962729 7.80195 0C8.12735 0 8.30642 0.155962 8.25829 0.460184C8.15239 1.1418 8.37766 1.50956 9.09393 1.62894C9.4617 1.68863 9.79865 1.93508 10.2338 2.13726L10.7633 1.52304C10.7925 1.47705 10.8323 1.4387 10.8793 1.41115C10.9263 1.38361 10.9792 1.36767 11.0336 1.36466C11.088 1.36165 11.1424 1.37165 11.1921 1.39384C11.2419 1.41602 11.2856 1.44975 11.3198 1.49223C11.7241 1.87732 12.1208 2.28552 12.5135 2.68794C12.5526 2.72095 12.5837 2.76239 12.6045 2.80913C12.6253 2.85587 12.6352 2.90672 12.6335 2.95785C12.6319 3.00898 12.6187 3.05906 12.5949 3.10436C12.5711 3.14965 12.5374 3.18897 12.4962 3.21936C12.2786 3.43694 12.0553 3.64682 11.8743 3.82011L12.708 5.77637C12.9448 5.77637 13.226 5.78792 13.5052 5.77637C13.8421 5.75904 14.0058 5.89575 14 6.24233C14 6.76413 14 7.28786 14 7.81158C14 8.1158 13.8479 8.30642 13.5668 8.25058C12.7966 8.0927 12.4808 8.48164 12.3171 9.16518C12.2363 9.49636 12.0283 9.7948 11.8069 10.2569C11.9783 10.3936 12.2112 10.5688 12.4346 10.7556C12.7003 10.977 12.6772 11.1985 12.4346 11.4314C12.0745 11.7799 11.726 12.1304 11.3795 12.4885C11.1715 12.7003 10.9347 12.7465 10.7652 12.4885C10.3493 11.8762 9.88337 11.8531 9.31151 12.2594C9.14406 12.3718 8.95302 12.4443 8.75313 12.4712C8.27754 12.5347 8.14083 12.7985 8.21593 13.2414C8.22652 13.3612 8.22652 13.4816 8.21593 13.6014C8.22217 13.6547 8.21603 13.7087 8.19799 13.7592C8.17996 13.8097 8.15051 13.8554 8.11194 13.8926C8.07338 13.9299 8.02673 13.9577 7.97563 13.974C7.92454 13.9903 7.87037 13.9946 7.81736 13.9865C7.26667 13.9865 6.71792 13.9865 6.16724 13.9865C5.90153 13.9865 5.78215 13.844 5.78215 13.5822C5.786 13.2606 5.77637 12.9256 5.77637 12.6368ZM3.06533 11.8454C3.22514 11.6529 3.37918 11.4507 3.54862 11.2678C3.71806 11.0849 3.93371 11.0656 4.18979 11.1869C4.82712 11.4834 5.4837 11.7453 6.14221 11.9898C6.37711 12.0765 6.51382 12.1824 6.51382 12.4365C6.51382 12.6907 6.51382 12.9911 6.51382 13.2645H7.5632C7.5632 12.9795 7.57667 12.7253 7.5632 12.4731C7.54587 12.1631 7.68642 12.0418 7.97524 11.9398C8.61704 11.7223 9.24468 11.4651 9.85449 11.1696C10.1491 11.0232 10.3493 11.0136 10.5573 11.2581L11.0521 11.8358L11.857 11.0367C11.6471 10.8442 11.4488 10.667 11.2524 10.4841C11.056 10.3012 11.0598 10.1202 11.1734 9.87374C11.4642 9.22679 11.7453 8.57599 11.9763 7.91363C12.0688 7.65754 12.1881 7.52854 12.4539 7.52854H13.2625V6.43873C12.941 6.43873 12.6464 6.43873 12.3537 6.43873C12.3003 6.44604 12.2458 6.44203 12.194 6.42695C12.1422 6.41187 12.0941 6.38607 12.0529 6.35121C12.0117 6.31635 11.9782 6.27322 11.9548 6.22461C11.9313 6.176 11.9183 6.12299 11.9167 6.06904C11.8053 5.36482 11.5324 4.69593 11.1195 4.1147C11.079 4.06965 11.0486 4.01654 11.0301 3.95886C11.0116 3.90119 11.0055 3.84025 11.0122 3.78006C11.0189 3.71987 11.0383 3.66178 11.0691 3.60962C11.0999 3.55745 11.1413 3.51238 11.1908 3.47738L11.7684 2.96713L10.9616 2.12956C10.8037 2.3221 10.6574 2.51465 10.5034 2.70719C10.2839 2.96906 10.0682 2.94402 9.76399 2.79191C9.168 2.49794 8.5523 2.24573 7.92133 2.03713C7.61903 1.92546 7.47655 1.80993 7.48618 1.50571C7.48618 1.25347 7.48618 1.00316 7.48618 0.735525H6.43873C6.4586 1.02228 6.45409 1.31021 6.42525 1.5962C6.39829 1.74446 6.24811 1.96204 6.12295 1.9813C5.39695 2.1189 4.7069 2.40397 4.09545 2.81887C4.0515 2.85567 4.00044 2.88304 3.94546 2.89926C3.89048 2.91549 3.83275 2.92023 3.77586 2.91318C3.71897 2.90614 3.66414 2.88746 3.61478 2.85832C3.56541 2.82918 3.52258 2.79019 3.48893 2.74378C3.31371 2.55123 3.13464 2.35869 3.00756 2.21042L2.17384 2.90744C2.39527 3.15197 2.58204 3.35992 2.77266 3.56787C2.96328 3.77582 2.9344 3.95296 2.82272 4.18787C2.53198 4.81364 2.26049 5.4529 2.03136 6.11333C1.92546 6.39637 1.79068 6.5273 1.4903 6.51767C1.24192 6.50805 0.989685 6.51767 0.743226 6.51767V7.56512C1.04668 7.54386 1.35141 7.54901 1.65397 7.58052C1.74312 7.59864 1.82674 7.63755 1.89801 7.6941C1.96928 7.75064 2.02618 7.82322 2.06409 7.90593C2.1962 8.61881 2.47699 9.29586 2.88819 9.893C2.92837 9.93867 2.95834 9.9924 2.9761 10.0506C2.99386 10.1088 2.99899 10.1701 2.99115 10.2304C2.98331 10.2907 2.96269 10.3487 2.93065 10.4004C2.89862 10.4521 2.85591 10.4964 2.80539 10.5303L2.22775 11.0406L3.06533 11.8454Z" fill="#2E2E2E"/>
<path d="M6.98884 9.97555C6.48473 9.97554 5.98905 9.84616 5.54923 9.5998C5.10941 9.35344 4.74017 8.99833 4.47684 8.56846C4.21351 8.13859 4.06489 7.64833 4.04521 7.1446C4.02554 6.64087 4.13545 6.14052 4.36445 5.69141C4.45176 5.51986 4.60332 5.38975 4.78612 5.32942C5.08649 5.26974 5.20009 5.60669 5.00755 5.96868C4.74248 6.4645 4.67084 7.04104 4.80649 7.58666C4.94214 8.13227 5.27544 8.60814 5.74183 8.92211C6.20823 9.23607 6.77454 9.3658 7.33109 9.28616C7.88765 9.20652 8.39486 8.92319 8.75449 8.49102C9.05223 8.13283 9.2329 7.6919 9.2721 7.22777C9.3113 6.76364 9.20715 6.29865 8.97371 5.89559C8.74027 5.49252 8.38878 5.17079 7.96669 4.97383C7.5446 4.77686 7.07224 4.71414 6.61338 4.79415C6.51321 4.83199 6.40655 4.84965 6.29953 4.84613C6.13009 4.80185 5.88941 4.74986 5.82972 4.62663C5.71227 4.3898 5.89711 4.24154 6.13394 4.16837C6.68523 3.98857 7.27814 3.98051 7.83412 4.14527C8.52228 4.34631 9.11469 4.78911 9.50235 5.39219C9.89001 5.99527 10.0468 6.71806 9.94397 7.42757C9.8411 8.13708 9.48547 8.78558 8.9425 9.25374C8.39954 9.72189 7.70577 9.97822 6.98884 9.97555Z" fill="#2E2E2E"/>
</g>
<defs>
<clipPath id="clip0_1557_12505">
<rect width="14.0019" height="14" fill="white"/>
</clipPath>
</defs>
</svg>
