<svg width="9" height="14" viewBox="0 0 9 14" fill="none" xmlns="http://www.w3.org/2000/svg">
<path d="M5.24631 0C5.58733 0.230341 5.9156 0.479041 6.22964 0.745C6.87464 1.345 7.48631 1.98167 8.12297 2.59333C8.3384 2.7965 8.50898 3.04244 8.62378 3.31539C8.73859 3.58834 8.79508 3.88227 8.78964 4.17833C8.78964 6.345 8.78964 8.49667 8.78964 10.655C8.78964 10.9117 8.74797 11.1417 8.43297 11.1367C8.11797 11.1317 8.08964 10.895 8.08964 10.6367C8.08964 8.54833 8.08964 6.46 8.08964 4.37C8.09938 4.10533 8.05203 3.84167 7.9508 3.59693C7.84957 3.35219 7.69683 3.13212 7.50297 2.95167C6.82631 2.30333 6.16964 1.635 5.49297 0.976667C5.10797 0.596667 4.75797 0.591667 4.37964 0.976667C3.68131 1.69 2.98964 2.41 2.29464 3.125C2.15593 3.26619 2.04698 3.4338 1.97426 3.61789C1.90155 3.80198 1.86653 3.99879 1.87131 4.19667C1.87131 7.06333 1.87131 9.93 1.87131 12.7967C1.87131 13.1 1.99797 13.2383 2.31131 13.2367C3.63464 13.23 4.95797 13.23 6.28131 13.2367C6.59297 13.2367 6.71631 13.0983 6.71464 12.7917C6.71464 10.7617 6.71464 8.73 6.71464 6.7C6.71464 6.21667 6.47131 5.96667 5.98797 5.96C5.32131 5.94833 4.66464 5.96 4.00297 5.96C3.43131 5.96 3.19964 6.19333 3.19797 6.765C3.19797 8.425 3.19797 10.0844 3.19797 11.7433C3.19797 11.8483 3.19797 11.9533 3.19797 12.0567C3.19797 12.2967 3.10631 12.4733 2.83631 12.465C2.56631 12.4567 2.50297 12.2833 2.50297 12.06C2.50297 10.2383 2.48964 8.41667 2.51297 6.59333C2.51297 5.81833 3.06964 5.29333 3.84631 5.27C4.58964 5.24833 5.33297 5.24667 6.07464 5.27C6.25505 5.26981 6.43362 5.30623 6.59954 5.37706C6.76546 5.44789 6.91529 5.55165 7.03994 5.68207C7.16459 5.81249 7.26148 5.96684 7.32474 6.1358C7.388 6.30475 7.41632 6.48479 7.40797 6.665C7.41464 8.71944 7.41464 10.775 7.40797 12.8317C7.40797 13.525 6.98964 13.935 6.29964 13.9367C4.95297 13.9367 3.60686 13.9367 2.26131 13.9367C1.56131 13.9367 1.14131 13.5067 1.14131 12.8033C1.14131 9.94667 1.14131 7.09111 1.14131 4.23667C1.13389 3.94021 1.18713 3.64537 1.29776 3.37024C1.40839 3.0951 1.57407 2.84547 1.78464 2.63667C2.50297 1.90167 3.20464 1.16667 3.93464 0.451667C4.14809 0.27967 4.37746 0.128429 4.61964 0L5.24631 0Z"  stroke-width="0.3"/>
</svg>
