<svg width="14" height="14" viewBox="0 0 14 14" fill="none" xmlns="http://www.w3.org/2000/svg">
<g clip-path="url(#clip0_1434_4397)">
<path d="M1.67412 13.9997C0.894203 13.6314 0.618053 13.0089 0.646505 12.1586C0.686672 10.972 0.656546 9.7804 0.65822 8.59212C0.65822 8.48835 0.628095 8.35781 0.678304 8.28417C0.758639 8.16367 0.894203 8.00467 1.01303 8.00467C1.13186 8.00467 1.26408 8.16199 1.34776 8.28249C1.40132 8.36952 1.36952 8.51011 1.36952 8.61722C1.36952 9.85404 1.36952 11.0892 1.36952 12.3243C1.36952 13.0222 1.64567 13.29 2.35027 13.29H4.62642C4.62642 12.5135 4.62642 11.7603 4.62642 11.0055C4.62196 10.7531 4.64214 10.5009 4.68667 10.2524C4.81549 9.70327 5.13804 9.21906 5.59513 8.88863C6.05221 8.5582 6.61314 8.40374 7.17494 8.45359C7.73674 8.50344 8.26171 8.75426 8.65347 9.16001C9.04522 9.56576 9.27748 10.0992 9.30759 10.6624C9.32768 11.526 9.31763 12.3879 9.32266 13.2499C9.32266 13.2599 9.3327 13.2699 9.35613 13.3084C9.43696 13.322 9.51858 13.3304 9.60048 13.3335C10.2883 13.3335 10.9762 13.3335 11.6641 13.3335C12.2733 13.3285 12.5528 13.054 12.5528 12.4331C12.5528 11.1729 12.5528 9.91429 12.5528 8.65572C12.5528 8.56199 12.5528 8.46827 12.5528 8.37622C12.5528 8.14693 12.6733 7.94944 12.9026 8.003C13.0499 8.03647 13.1704 8.23563 13.2775 8.37789C13.316 8.43145 13.2775 8.53689 13.2775 8.6189C13.2775 9.8189 13.2507 11.0206 13.2875 12.2206C13.3126 13.0574 13.0097 13.6616 12.2281 13.9997H1.67412ZM5.31763 13.275H8.60132C8.60132 12.3662 8.62475 11.4791 8.60132 10.5971C8.57173 10.1839 8.38669 9.79721 8.08346 9.51491C7.78022 9.23261 7.38131 9.07566 6.96701 9.07566C6.55271 9.07566 6.15379 9.23261 5.85056 9.51491C5.54732 9.79721 5.36229 10.1839 5.3327 10.5971C5.2942 11.4775 5.31763 12.3628 5.31763 13.275Z" fill="#2E2E2E"/>
<path d="M6.96266 7.24924C5.12054 7.24924 3.27954 7.24924 1.43965 7.24924C1.23033 7.25792 1.02082 7.23765 0.817054 7.18898C0.62936 7.13224 0.459297 7.02844 0.323028 6.88744C0.186758 6.74645 0.0888117 6.57294 0.038497 6.38343C-0.0118178 6.19391 -0.0128286 5.99467 0.0355605 5.80465C0.0839496 5.61463 0.180131 5.44014 0.314962 5.29777C0.984418 4.53794 1.69906 3.81158 2.37354 3.05509C2.48976 2.90648 2.56066 2.7275 2.57772 2.53961C2.6112 2.25175 2.57772 1.95718 2.58944 1.66597C2.60026 1.22767 2.78078 0.810679 3.09298 0.502853C3.40517 0.195026 3.82467 0.0203983 4.26308 0.0157615C6.07061 0.00125659 7.8787 0.00125659 9.68735 0.0157615C10.1161 0.0288901 10.524 0.203725 10.8291 0.505162C11.1343 0.8066 11.3141 1.21232 11.3325 1.64087C11.335 1.66367 11.335 1.68668 11.3325 1.70949C11.1652 2.56472 11.535 3.18731 12.1576 3.74463C12.6497 4.1848 13.0681 4.71032 13.5233 5.18898C13.8966 5.58564 14.0773 6.04924 13.8581 6.56304C13.6388 7.07685 13.1769 7.24924 12.6279 7.24756C10.7434 7.24422 8.8522 7.24924 6.96266 7.24924ZM6.91915 6.54631H12.6179C12.8472 6.54631 13.0648 6.52455 13.1769 6.28187C13.289 6.03919 13.1769 5.83668 13.0095 5.65593C12.2848 4.88271 11.5668 4.10279 10.8338 3.33626C10.7305 3.23687 10.5953 3.17753 10.4522 3.1689C8.13253 3.15886 5.81343 3.15886 3.49488 3.1689C3.37035 3.17101 3.25105 3.21933 3.16015 3.30447C2.38191 4.11451 1.60701 4.93626 0.850527 5.77476C0.79778 5.83802 0.760489 5.9127 0.741607 5.99288C0.722725 6.07306 0.722771 6.15653 0.74174 6.23668C0.800318 6.37225 1.0045 6.46095 1.15346 6.5279C1.25534 6.55297 1.36127 6.55696 1.46475 6.53961L6.91915 6.54631ZM10.6296 2.44087C10.6296 2.14631 10.648 1.8802 10.6296 1.61576C10.612 1.37311 10.5042 1.14585 10.3272 0.978843C10.1503 0.811838 9.91722 0.717222 9.67396 0.71367C7.86754 0.70028 6.06168 0.70028 4.25638 0.71367C4.0198 0.715302 3.79195 0.803282 3.61567 0.961076C3.43938 1.11887 3.32679 1.33561 3.29906 1.57057C3.28311 1.86101 3.28311 2.1521 3.29906 2.44254L10.6296 2.44087Z" fill="#2E2E2E"/>
<path d="M7.2057 11.6917C7.2057 11.5243 7.2057 11.3419 7.2057 11.1678C7.2057 10.9436 7.34628 10.7913 7.55716 10.8331C7.63361 10.8548 7.70381 10.8943 7.76201 10.9484C7.8202 11.0026 7.86471 11.0697 7.89189 11.1444C7.93792 11.514 7.93792 11.8878 7.89189 12.2574C7.86302 12.3359 7.81498 12.406 7.75214 12.4612C7.68929 12.5165 7.61364 12.5551 7.53206 12.5737C7.44503 12.5871 7.27097 12.3812 7.22745 12.239C7.1939 12.0585 7.18657 11.8742 7.2057 11.6917Z" fill="#2E2E2E"/>
</g>
<defs>
<clipPath id="clip0_1434_4397">
<rect width="13.9548" height="14" fill="white"/>
</clipPath>
</defs>
</svg>
