<svg width="11" height="13" viewBox="0 0 11 13" fill="none" xmlns="http://www.w3.org/2000/svg">
<path d="M6.24488 0C6.31297 0.0789286 6.37797 0.1625 6.45226 0.236786C7.67488 1.42742 8.89492 2.61496 10.1124 3.7994C10.192 3.87014 10.2551 3.95758 10.2971 4.05548C10.3391 4.15339 10.359 4.25936 10.3554 4.36583C10.3554 6.74607 10.3554 9.12786 10.3554 11.5096C10.3554 12.4212 9.83845 12.935 8.93464 12.935C6.64003 12.935 4.34492 12.935 2.04928 12.935C1.17023 12.935 0.656423 12.4351 0.656423 11.5561C0.656423 8.16214 0.656423 4.76667 0.656423 1.37274C0.647137 0.659286 1.01238 0.229048 1.65154 0H6.24488ZM1.29249 6.46905C1.29249 8.14976 1.29249 9.83048 1.29249 11.5112C1.29249 12.0823 1.50297 12.285 2.0663 12.285H8.90523C9.50261 12.285 9.7069 12.0869 9.70845 11.4957C9.70845 9.18976 9.70845 6.88381 9.69916 4.57786C9.69011 4.40424 9.6193 4.23957 9.49952 4.11357C8.3873 3.0127 7.26682 1.92214 6.13809 0.841905C6.00588 0.727841 5.83898 0.661844 5.66452 0.654643C4.48988 0.639167 3.31523 0.646905 2.14059 0.646905C1.4813 0.646905 1.29714 0.829524 1.29714 1.4919C1.29611 3.15095 1.29611 4.81 1.29714 6.46905H1.29249Z" fill="#2E2E2E"/>
<path d="M6.08367 4.16977H8.28748C8.49176 4.16977 8.65736 4.23477 8.6651 4.47155C8.67283 4.70834 8.51033 4.81203 8.29057 4.81358C7.4626 4.81358 6.63462 4.81358 5.80664 4.81358C5.54819 4.81358 5.44141 4.67274 5.44141 4.42667C5.44141 3.60953 5.44141 2.79239 5.44141 1.97524C5.44141 1.75239 5.51879 1.58679 5.7695 1.58989C6.02022 1.59298 6.08831 1.76631 6.08831 1.98453L6.08367 4.16977Z" fill="#2E2E2E"/>
</svg>
