<svg width="14" height="14" viewBox="0 0 14 14" fill="none" xmlns="http://www.w3.org/2000/svg">
<path d="M3.82134 8.73981C3.30778 8.22953 2.81227 7.74058 2.32332 7.24671C2.00347 6.94658 1.80642 6.53841 1.77035 6.10129C1.73428 5.66417 1.86175 5.22922 2.12807 4.88072C2.71546 4.11776 3.60476 3.95368 4.48257 4.43115C4.54278 4.45672 4.60799 4.46838 4.67333 4.46525C4.73867 4.46213 4.80246 4.4443 4.85995 4.4131C5.81488 3.74585 6.76161 3.06712 7.70013 2.3769C7.79131 2.29976 7.85471 2.19487 7.88061 2.07828C7.99218 1.58605 8.2465 1.21852 8.7453 1.06593C8.9686 0.989066 9.2095 0.97918 9.43835 1.03748C9.6672 1.09579 9.874 1.21974 10.0333 1.39408C11.0375 2.39495 12.0394 3.39691 13.0392 4.39997C13.2154 4.55757 13.3429 4.76217 13.4069 4.98974C13.4708 5.21731 13.4685 5.4584 13.4002 5.6847C13.264 6.1917 12.8768 6.43617 12.3878 6.55759C12.2514 6.58904 12.1291 6.66458 12.04 6.77253C11.3738 7.69956 10.7274 8.63973 10.0628 9.57004C10.0056 9.63004 9.97182 9.70858 9.96761 9.79138C9.96339 9.87419 9.98903 9.95576 10.0399 10.0213C10.2651 10.3956 10.3451 10.8396 10.2647 11.269C10.1843 11.6984 9.94911 12.0834 9.60371 12.3509C9.25831 12.6184 8.82674 12.7498 8.39087 12.7202C7.95501 12.6906 7.54516 12.5021 7.23907 12.1904C6.73371 11.6981 6.2382 11.1895 5.72628 10.6743L3.06331 12.384C2.55467 12.7121 2.05095 13.0403 1.53083 13.3569C1.46921 13.3917 1.40081 13.4128 1.33031 13.4187C1.25981 13.4247 1.18885 13.4154 1.12228 13.3914C0.938509 13.2749 0.987733 13.0813 1.10095 12.909C1.64021 12.0886 2.17839 11.2682 2.71546 10.4479L3.82134 8.73981ZM11.6413 6.31803C11.5461 6.21795 11.4772 6.13427 11.3886 6.05551C10.7831 5.44843 10.1744 4.84462 9.57225 4.2359C9.33926 3.99962 9.35238 3.7289 9.60998 3.67311C9.68439 3.6676 9.75912 3.67791 9.82926 3.70336C9.89939 3.72881 9.96334 3.76883 10.0169 3.82078C10.6732 4.45576 11.3147 5.10714 11.9612 5.75361C12.2237 6.01449 12.4255 6.01121 12.6799 5.74541C12.9342 5.4796 12.9194 5.16293 12.629 4.86759C11.8907 4.12104 11.1523 3.37941 10.4008 2.63614C10.1268 2.36214 9.8561 2.08156 9.58045 1.81576C9.49308 1.72354 9.3793 1.66062 9.25473 1.63565C9.13017 1.61068 9.00093 1.62487 8.88476 1.67629C8.76286 1.716 8.65847 1.79671 8.58937 1.9047C8.52027 2.01269 8.49072 2.14129 8.50575 2.26861C8.51412 2.3705 8.49209 2.47259 8.44244 2.56196C8.39279 2.65133 8.31775 2.72397 8.22681 2.77069C7.28501 3.44012 6.34813 4.10956 5.40961 4.78063C5.31281 4.84954 5.21928 4.92502 5.18154 4.95455L9.5181 9.29111L11.6413 6.31803ZM9.67233 11.0221C9.68696 10.846 9.65931 10.669 9.59167 10.5057C9.52403 10.3425 9.41836 10.1978 9.28347 10.0836C9.17846 9.99664 9.0833 9.89656 8.98649 9.79975C7.45511 8.26836 5.92372 6.73698 4.39233 5.20559C4.08223 4.89385 3.72782 4.71336 3.28481 4.81509C3.08079 4.85299 2.89125 4.94663 2.73718 5.08564C2.58311 5.22465 2.47053 5.4036 2.41192 5.60266C2.34302 5.81092 2.33742 6.03494 2.39583 6.24639C2.45424 6.45784 2.57404 6.64721 2.74008 6.79058C3.77814 7.83848 4.82003 8.89022 5.86574 9.94578C6.46791 10.5529 7.07007 11.1616 7.68372 11.7588C7.8533 11.9316 8.07311 12.0463 8.31179 12.0867C8.55046 12.1271 8.79579 12.091 9.01274 11.9836C9.44263 11.7818 9.68054 11.4454 9.67726 11.0221H9.67233ZM4.22333 9.2304L2.44474 11.9721L2.50052 12.0164L5.23569 10.2395L4.22333 9.2304Z"  stroke-width="0.2"/>
</svg>
