<svg width="14" height="14" viewBox="0 0 14 14" fill="none" xmlns="http://www.w3.org/2000/svg">
<path d="M4.60095 8.94122C4.29595 8.27455 4.00429 7.62122 3.69762 6.97789C3.64197 6.88808 3.55544 6.8217 3.45429 6.79122C2.92262 6.62455 2.63429 6.29122 2.60429 5.73622C2.58754 5.48157 2.59591 5.22589 2.62929 4.97289C2.64746 4.76223 2.73373 4.56321 2.87506 4.40595C3.01639 4.24868 3.20509 4.14171 3.41262 4.10122C3.61595 4.05455 3.66595 3.93455 3.74595 3.76789C4.00929 3.20455 4.23429 2.60122 4.60595 2.11789C5.83262 0.517886 7.92595 0.47622 9.20595 2.03622C9.61429 2.53622 9.85929 3.17122 10.1476 3.76122C10.2276 3.92789 10.2726 4.04622 10.481 4.09455C10.716 4.14503 10.926 4.27615 11.0745 4.46517C11.2231 4.6542 11.3008 4.88923 11.2943 5.12955C11.2943 5.34955 11.2943 5.57122 11.2943 5.79622C11.293 6.02964 11.2125 6.25572 11.066 6.43741C10.9194 6.61909 10.7155 6.74561 10.4876 6.79622C10.2726 6.83955 10.216 6.94122 10.1543 7.12955C9.92555 7.96333 9.45526 8.71081 8.80262 9.27788C8.34291 9.68566 7.7624 9.9318 7.14969 9.97875C6.53699 10.0257 5.92575 9.87086 5.40929 9.53788C5.27793 9.46413 5.12267 9.44555 4.97762 9.48622C4.24762 9.75122 3.52595 10.0379 2.81095 10.3196C2.4855 10.4335 2.19667 10.6329 1.97471 10.8968C1.75274 11.1607 1.60581 11.4794 1.54929 11.8196C1.45429 12.3196 1.56762 12.4479 2.08262 12.4479H10.951C11.2993 12.4479 11.6476 12.4479 11.996 12.4479C12.3443 12.4479 12.511 12.3079 12.4276 11.9579C12.3419 11.6254 12.2183 11.3039 12.0593 10.9996C11.961 10.8012 11.8793 10.6279 12.096 10.4879C12.1346 10.4604 12.1794 10.4428 12.2264 10.4366C12.2734 10.4304 12.3213 10.4357 12.3657 10.4521C12.4102 10.4685 12.45 10.4955 12.4817 10.5308C12.5134 10.5661 12.536 10.6086 12.5476 10.6546C12.7519 11.1028 12.9116 11.57 13.0243 12.0496C13.1093 12.5312 12.7343 12.9129 12.241 12.9762C12.1142 12.9896 11.9867 12.9946 11.8593 12.9912H2.11262C1.12762 12.9912 0.760952 12.5429 0.964286 11.5796C1.0396 11.1719 1.21896 10.7905 1.48497 10.4726C1.75099 10.1546 2.09464 9.91068 2.48262 9.76455C3.09429 9.51455 3.71429 9.28955 4.33095 9.05289L4.60095 8.94122ZM4.67762 2.89122C4.49929 3.43122 4.33262 3.87122 4.20262 4.32289C4.18808 4.42535 4.13455 4.51824 4.0532 4.5822C3.97185 4.64617 3.86895 4.67626 3.76595 4.66622C3.32429 4.66622 3.19262 4.81789 3.18429 5.25789C3.18429 5.39789 3.18429 5.53789 3.18429 5.67622C3.19762 6.05289 3.33762 6.23289 3.70262 6.22789C4.06762 6.22289 4.16929 6.37789 4.23429 6.68455C4.36393 7.33656 4.65891 7.94432 5.09095 8.44955C6.03429 9.55455 7.43429 9.62622 8.48929 8.61622C9.04371 8.08025 9.42112 7.38766 9.57095 6.63122C9.64262 6.29789 9.76762 6.14622 10.1226 6.16289C10.1876 6.17171 10.2538 6.16594 10.3163 6.14599C10.3788 6.12605 10.4361 6.09243 10.4839 6.04758C10.5318 6.00273 10.5691 5.94777 10.5931 5.88671C10.6171 5.82564 10.6272 5.76 10.6226 5.69455C10.6226 5.33289 10.7893 4.90789 10.336 4.66622C10.2956 4.64274 10.2492 4.63173 10.2026 4.63455C9.73929 4.69622 9.63429 4.40789 9.53595 4.03289C9.29429 3.13789 8.85262 2.36622 8.04929 1.83789C7.91762 1.77185 7.78178 1.7145 7.64262 1.66622C7.9086 2.18077 8.20064 2.68142 8.51762 3.16622C8.63929 3.35622 8.68429 3.54289 8.46095 3.67455C8.23762 3.80622 8.12762 3.64289 8.01762 3.47455C7.68429 2.94455 7.35095 2.41566 7.01762 1.88789C6.74929 1.46122 6.57929 1.42455 6.11929 1.72122C6.40929 2.17955 6.69762 2.64122 6.99095 3.09955C7.11595 3.29455 7.24262 3.50622 6.99095 3.67122C6.73929 3.83622 6.61429 3.58955 6.49929 3.41622C6.18929 2.92955 5.88262 2.44122 5.56929 1.94289C5.49262 1.99622 5.44429 2.02622 5.40262 2.06122C5.03095 2.35122 5.03095 2.35122 5.28095 2.74122C5.3985 2.88458 5.49503 3.04396 5.56762 3.21455C5.60429 3.34955 5.52595 3.51622 5.49929 3.66789C5.36262 3.62122 5.18929 3.61289 5.09929 3.52122C4.93983 3.32451 4.79868 3.11363 4.67762 2.89122Z"  stroke-width="0.3"/>
<path d="M10.6848 10.2996C10.6848 10.5229 10.6848 10.6946 10.6848 10.8662C10.6848 11.0696 10.5765 11.2346 10.3731 11.1879C10.3072 11.1573 10.2487 11.1126 10.2018 11.0571C10.1549 11.0015 10.1206 10.9364 10.1015 10.8662C10.0734 10.6786 10.0695 10.4882 10.0898 10.2996C9.88646 10.2996 9.7048 10.2996 9.52479 10.2996C9.34479 10.2996 9.14813 10.2029 9.19979 9.99957C9.23199 9.93006 9.27822 9.86796 9.33559 9.81719C9.39296 9.76642 9.46022 9.72807 9.53313 9.70457C9.71613 9.67493 9.90237 9.671 10.0865 9.6929C10.0665 9.48926 10.0705 9.28398 10.0981 9.08124C10.1265 8.9679 10.2748 8.81124 10.3715 8.80957C10.4375 8.82362 10.499 8.85381 10.5504 8.89744C10.6019 8.94106 10.6418 8.99677 10.6665 9.05957C10.6958 9.26719 10.7002 9.47756 10.6798 9.68624C10.8723 9.66612 11.0666 9.67004 11.2581 9.6979C11.3848 9.73457 11.4798 9.8779 11.5915 9.97457C11.4798 10.0829 11.3865 10.2396 11.2581 10.2862C11.0688 10.3197 10.8755 10.3242 10.6848 10.2996Z" fill="#007C45" stroke="#007C45" stroke-width="0.3"/>
</svg>
