<svg width="14" height="14" viewBox="0 0 14 14" fill="none" xmlns="http://www.w3.org/2000/svg">
<path d="M4.60001 8.93966C4.29334 8.27299 4.00168 7.60632 3.69834 6.97132C3.64837 6.89165 3.5715 6.83252 3.48168 6.80466C2.87834 6.61299 2.61001 6.26965 2.60168 5.63799C2.59186 5.39493 2.60638 5.15149 2.64501 4.91132C2.67221 4.71973 2.75788 4.5412 2.89032 4.40011C3.02276 4.25902 3.19552 4.16224 3.38501 4.12299C3.62168 4.07132 3.67001 3.93299 3.75668 3.74632C4.01334 3.19299 4.24168 2.60632 4.60834 2.12965C5.83334 0.519655 7.92834 0.481321 9.20668 2.04299C9.61501 2.54299 9.86168 3.17799 10.1467 3.76799C10.2283 3.93465 10.2783 4.04965 10.48 4.10132C10.7143 4.1538 10.923 4.28607 11.0704 4.47549C11.2179 4.66491 11.2949 4.8997 11.2883 5.13965C11.2883 5.34799 11.2883 5.55799 11.2883 5.76632C11.2896 6.01315 11.2069 6.25308 11.0541 6.44685C10.9012 6.64062 10.687 6.77676 10.4467 6.83299C10.3364 6.86714 10.243 6.9415 10.185 7.04132C9.88501 7.66132 9.60168 8.29132 9.29834 8.94799C9.32001 8.95799 9.43001 9.00965 9.54168 9.05299C10.1983 9.31299 10.875 9.55299 11.5117 9.83299C11.9457 10.008 12.3202 10.3042 12.5903 10.6864C12.8605 11.0686 13.0149 11.5204 13.035 11.988C13.0817 12.573 12.7217 12.9563 12.135 12.988C12.0417 12.988 11.9483 12.988 11.8567 12.988H2.11001C1.12668 12.988 0.75501 12.5347 0.968343 11.5747C1.04799 11.1611 1.23294 10.7752 1.50534 10.454C1.77774 10.1328 2.12836 9.88738 2.52334 9.74132C3.12501 9.49799 3.73334 9.27466 4.33834 9.03966C4.45334 8.99966 4.56668 8.95465 4.60001 8.93966ZM4.68668 2.88465C4.50834 3.40632 4.34168 3.82132 4.22834 4.24965C4.15001 4.54465 4.02501 4.68299 3.70334 4.67299C3.38168 4.66299 3.20334 4.83965 3.18668 5.18465C3.18668 5.31132 3.18668 5.43965 3.18668 5.56632C3.18668 6.08965 3.28834 6.20799 3.80168 6.23299C4.02001 6.24632 4.08168 6.33132 4.12334 6.54132C4.24801 7.21608 4.54417 7.84742 4.98334 8.37465C6.06001 9.64466 7.66834 9.62965 8.72668 8.33965C9.14665 7.82581 9.43294 7.21602 9.56001 6.56465C9.61334 6.29965 9.72668 6.16799 10.0283 6.16799C10.44 6.16799 10.5867 6.00132 10.595 5.59132C10.595 5.44132 10.595 5.28965 10.595 5.13965C10.595 4.81632 10.4167 4.62299 10.095 4.63965C9.71834 4.65632 9.60668 4.46299 9.52668 4.13965C9.35199 3.32787 8.91721 2.59524 8.28834 2.05299C8.08086 1.90093 7.86496 1.7607 7.64168 1.63299L7.57668 1.70965C7.88334 2.19743 8.19112 2.68299 8.50001 3.16632C8.61001 3.34299 8.64834 3.52299 8.45168 3.65465C8.25501 3.78632 8.11834 3.65465 8.00501 3.48799L7.00501 1.90132C6.71668 1.44632 6.62501 1.42299 6.09668 1.69465C6.15501 1.79299 6.20834 1.89132 6.26334 1.98632C6.51668 2.38799 6.77668 2.78632 7.02334 3.19132C7.16668 3.42632 7.10668 3.67799 6.89168 3.69132C6.8176 3.68322 6.74606 3.65959 6.68173 3.62197C6.6174 3.58435 6.56172 3.53358 6.51834 3.47299C6.18501 2.97299 5.87501 2.47299 5.54001 1.93632L5.06001 2.39465C5.22668 2.65799 5.37501 2.89465 5.52834 3.12465C5.64834 3.30632 5.74001 3.49965 5.50001 3.66632C5.26001 3.83299 5.14501 3.62465 5.03501 3.45465L4.68668 2.88465ZM6.96001 12.4097H11.97C12.3483 12.4097 12.4317 12.3313 12.4017 11.958C12.3921 11.6012 12.2771 11.2553 12.0713 10.9638C11.8654 10.6722 11.578 10.4481 11.245 10.3197C10.465 9.99965 9.66668 9.69965 8.88001 9.40632C8.76841 9.37406 8.64859 9.38724 8.54668 9.44299C7.49334 10.1213 6.44334 10.1413 5.38001 9.47799C5.32829 9.44816 5.27113 9.42896 5.21188 9.42151C5.15264 9.41407 5.0925 9.41854 5.03501 9.43466C4.25334 9.72632 3.47334 10.018 2.70168 10.3447C2.38431 10.4667 2.10712 10.6745 1.90109 10.945C1.69506 11.2155 1.56831 11.5379 1.53501 11.8763C1.47501 12.3163 1.56834 12.408 2.02001 12.408L6.96001 12.4097Z"  stroke-width="0.3"/>
</svg>
