<svg width="652" height="652" viewBox="0 0 652 652" fill="none" xmlns="http://www.w3.org/2000/svg">
<path fill-rule="evenodd" clip-rule="evenodd" d="M326 652C506.045 652 652 506.045 652 326C652 145.955 506.045 0 326 0C145.955 0 0 145.955 0 326C0 506.045 145.955 652 326 652ZM219.488 556.664C132.408 516.386 71.9932 428.248 71.9932 326C71.9932 185.716 185.716 71.9932 326 71.9932C466.284 71.9932 580.007 185.716 580.007 326C580.007 428.411 519.399 516.667 432.096 556.856C418.169 556.181 403.45 553.284 388.587 546.753C363.73 534.492 358.654 503.518 358.654 475.801V440.694H538.553C467.684 368.536 325.945 196.387 325.945 85.0577C325.945 196.387 184.205 368.536 113.336 440.694H293.236V475.801C293.236 503.518 288.159 534.492 263.302 546.753C249.951 553.339 234.598 556.152 219.488 556.664Z" fill="#B0AFB3" fill-opacity="0.1"/>
</svg>
